Workaround SemiRound Semibold.ufo
<glyph name="Exclamation_Mark" format="1">
  <advance width="325"/>
  <unicode hex="0021"/>
  <outline>
    <contour>
      <point x="190" y="111" type="line" smooth="yes"/>
      <point x="190" y="144"/>
      <point x="147" y="170"/>
      <point x="95" y="170" type="curve" smooth="yes"/>
      <point x="43" y="170"/>
      <point x="0" y="144"/>
      <point x="0" y="111" type="curve" smooth="yes"/>
      <point x="0" y="54" type="line" smooth="yes"/>
      <point x="0" y="21"/>
      <point x="43" y="-5"/>
      <point x="95" y="-5" type="curve" smooth="yes"/>
      <point x="147" y="-5"/>
      <point x="190" y="21"/>
      <point x="190" y="54" type="curve" smooth="yes"/>
    </contour>
    <contour>
      <point x="190" y="946" type="line" smooth="yes"/>
      <point x="190" y="979"/>
      <point x="147" y="1005"/>
      <point x="95" y="1005" type="curve" smooth="yes"/>
      <point x="43" y="1005"/>
      <point x="0" y="979"/>
      <point x="0" y="946" type="curve" smooth="yes"/>
      <point x="0" y="370" type="line" smooth="yes"/>
      <point x="0" y="337"/>
      <point x="43" y="310"/>
      <point x="95" y="310" type="curve" smooth="yes"/>
      <point x="147" y="310"/>
      <point x="190" y="337"/>
      <point x="190" y="370" type="curve" smooth="yes"/>
    </contour>
  </outline>
</glyph>
<glyph name="exclam" format="1">
  <advance width="339"/>
  <unicode hex="0021"/>
  <outline>
    <contour>
      <point x="203" y="132" type="line" smooth="yes"/>
      <point x="203" y="164"/>
      <point x="158" y="190"/>
      <point x="102" y="190" type="curve" smooth="yes"/>
      <point x="46" y="190"/>
      <point x="0" y="164"/>
      <point x="0" y="132" type="curve" smooth="yes"/>
      <point x="0" y="54" type="line" smooth="yes"/>
      <point x="0" y="21"/>
      <point x="46" y="-5"/>
      <point x="102" y="-5" type="curve" smooth="yes"/>
      <point x="158" y="-5"/>
      <point x="203" y="21"/>
      <point x="203" y="54" type="curve" smooth="yes"/>
    </contour>
    <contour>
      <point x="203" y="946" type="line"/>
      <point x="203" y="979"/>
      <point x="158" y="1005"/>
      <point x="102" y="1005" type="curve" smooth="yes"/>
      <point x="46" y="1005"/>
      <point x="0" y="979"/>
      <point x="0" y="946" type="curve" smooth="yes"/>
      <point x="13" y="372" type="line" smooth="yes"/>
      <point x="13" y="343"/>
      <point x="53" y="320"/>
      <point x="102" y="320" type="curve" smooth="yes"/>
      <point x="150" y="320"/>
      <point x="190" y="343"/>
      <point x="190" y="372" type="curve"/>
    </contour>
  </outline>
</glyph>
<glyph name="quotedbl" format="1">
  <advance width="620"/>
  <unicode hex="0022"/>
  <outline>
    <contour>
      <point x="190" y="981" type="line" smooth="yes"/>
      <point x="191" y="990"/>
      <point x="174" y="997"/>
      <point x="144" y="1002" type="curve" smooth="yes"/>
      <point x="113" y="1007"/>
      <point x="77" y="1007"/>
      <point x="46" y="1002" type="curve" smooth="yes"/>
      <point x="16" y="997"/>
      <point x="-1" y="990"/>
      <point x="0" y="981" type="curve" smooth="yes"/>
      <point x="30" y="781" type="line"/>
      <point x="32" y="772"/>
      <point x="60" y="765"/>
      <point x="95" y="765" type="curve" smooth="yes"/>
      <point x="130" y="765"/>
      <point x="158" y="772"/>
      <point x="160" y="781" type="curve"/>
    </contour>
    <contour>
      <point x="484" y="981" type="line"/>
      <point x="486" y="990"/>
      <point x="469" y="997"/>
      <point x="438" y="1002" type="curve" smooth="yes"/>
      <point x="407" y="1007"/>
      <point x="372" y="1007"/>
      <point x="341" y="1002" type="curve" smooth="yes"/>
      <point x="310" y="997"/>
      <point x="293" y="990"/>
      <point x="295" y="981" type="curve"/>
      <point x="325" y="781" type="line" smooth="yes"/>
      <point x="326" y="772"/>
      <point x="355" y="765"/>
      <point x="390" y="765" type="curve" smooth="yes"/>
      <point x="424" y="765"/>
      <point x="453" y="772"/>
      <point x="454" y="781" type="curve" smooth="yes"/>
    </contour>
  </outline>
</glyph>
<glyph name="numbersign" format="1">
  <advance width="1076"/>
  <unicode hex="0023"/>
  <outline>
    <contour>
      <point x="576" y="612" type="line"/>
      <point x="532" y="388" type="line"/>
      <point x="365" y="388" type="line"/>
      <point x="409" y="612" type="line"/>
    </contour>
    <contour>
      <point x="766" y="612" type="line"/>
      <point x="892" y="612" type="line" smooth="yes"/>
      <point x="906" y="612"/>
      <point x="926" y="651"/>
      <point x="935" y="700" type="curve" smooth="yes"/>
      <point x="945" y="749"/>
      <point x="942" y="788"/>
      <point x="927" y="788" type="curve" smooth="yes"/>
      <point x="802" y="788" type="line"/>
      <point x="840" y="982" type="line" smooth="yes"/>
      <point x="843" y="995"/>
      <point x="802" y="1005"/>
      <point x="750" y="1005" type="curve" smooth="yes"/>
      <point x="698" y="1005"/>
      <point x="653" y="995"/>
      <point x="650" y="982" type="curve" smooth="yes"/>
      <point x="612" y="788" type="line"/>
      <point x="445" y="788" type="line"/>
      <point x="483" y="982" type="line" smooth="yes"/>
      <point x="486" y="995"/>
      <point x="445" y="1005"/>
      <point x="393" y="1005" type="curve" smooth="yes"/>
      <point x="341" y="1005"/>
      <point x="296" y="995"/>
      <point x="293" y="982" type="curve" smooth="yes"/>
      <point x="255" y="788" type="line"/>
      <point x="129" y="788" type="line" smooth="yes"/>
      <point x="115" y="788"/>
      <point x="95" y="749"/>
      <point x="85" y="700" type="curve" smooth="yes"/>
      <point x="76" y="651"/>
      <point x="79" y="612"/>
      <point x="94" y="612" type="curve" smooth="yes"/>
      <point x="219" y="612" type="line"/>
      <point x="175" y="388" type="line"/>
      <point x="49" y="388" type="line" smooth="yes"/>
      <point x="35" y="388"/>
      <point x="15" y="349"/>
      <point x="5" y="300" type="curve" smooth="yes"/>
      <point x="-4" y="251"/>
      <point x="-1" y="212"/>
      <point x="14" y="212" type="curve" smooth="yes"/>
      <point x="139" y="212" type="line"/>
      <point x="101" y="18" type="line" smooth="yes"/>
      <point x="98" y="5"/>
      <point x="138" y="-5"/>
      <point x="191" y="-5" type="curve" smooth="yes"/>
      <point x="243" y="-5"/>
      <point x="288" y="5"/>
      <point x="291" y="18" type="curve" smooth="yes"/>
      <point x="329" y="212" type="line"/>
      <point x="496" y="212" type="line"/>
      <point x="458" y="18" type="line" smooth="yes"/>
      <point x="455" y="5"/>
      <point x="495" y="-5"/>
      <point x="548" y="-5" type="curve" smooth="yes"/>
      <point x="600" y="-5"/>
      <point x="645" y="5"/>
      <point x="648" y="18" type="curve" smooth="yes"/>
      <point x="686" y="212" type="line"/>
      <point x="812" y="212" type="line" smooth="yes"/>
      <point x="826" y="212"/>
      <point x="846" y="251"/>
      <point x="855" y="300" type="curve" smooth="yes"/>
      <point x="865" y="349"/>
      <point x="862" y="388"/>
      <point x="847" y="388" type="curve" smooth="yes"/>
      <point x="722" y="388" type="line"/>
    </contour>
  </outline>
</glyph>
<glyph name="dollar" format="1">
  <advance width="788"/>
  <unicode hex="0024"/>
  <outline>
    <contour>
      <point x="390" y="7" type="line"/>
      <point x="542" y="44"/>
      <point x="653" y="168"/>
      <point x="653" y="314" type="curve" smooth="yes"/>
      <point x="653" y="471"/>
      <point x="534" y="556"/>
      <point x="390" y="611" type="curve"/>
      <point x="390" y="817" type="line"/>
      <point x="402" y="813"/>
      <point x="414" y="808"/>
      <point x="425" y="801" type="curve"/>
      <point x="435" y="792"/>
      <point x="472" y="811"/>
      <point x="509" y="845" type="curve" smooth="yes"/>
      <point x="545" y="879"/>
      <point x="567" y="914"/>
      <point x="559" y="925" type="curve"/>
      <point x="510" y="963"/>
      <point x="453" y="987"/>
      <point x="390" y="998" type="curve"/>
      <point x="390" y="1060" type="line" smooth="yes"/>
      <point x="390" y="1069"/>
      <point x="360" y="1077"/>
      <point x="323" y="1077" type="curve" smooth="yes"/>
      <point x="286" y="1077"/>
      <point x="257" y="1069"/>
      <point x="257" y="1060" type="curve" smooth="yes"/>
      <point x="257" y="1002" type="line"/>
      <point x="111" y="980"/>
      <point x="0" y="867"/>
      <point x="0" y="731" type="curve" smooth="yes"/>
      <point x="0" y="589"/>
      <point x="122" y="517"/>
      <point x="257" y="470" type="curve"/>
      <point x="257" y="172" type="line"/>
      <point x="211" y="177"/>
      <point x="170" y="190"/>
      <point x="135" y="212" type="curve"/>
      <point x="126" y="221"/>
      <point x="89" y="202"/>
      <point x="52" y="168" type="curve" smooth="yes"/>
      <point x="15" y="134"/>
      <point x="-7" y="99"/>
      <point x="2" y="89" type="curve"/>
      <point x="73" y="33"/>
      <point x="158" y="2"/>
      <point x="257" y="-4" type="curve"/>
      <point x="257" y="-60" type="line" smooth="yes"/>
      <point x="257" y="-69"/>
      <point x="286" y="-77"/>
      <point x="323" y="-77" type="curve" smooth="yes"/>
      <point x="360" y="-77"/>
      <point x="390" y="-69"/>
      <point x="390" y="-60" type="curve" smooth="yes"/>
    </contour>
    <contour>
      <point x="257" y="819" type="curve"/>
      <point x="257" y="661" type="line"/>
      <point x="223" y="678"/>
      <point x="194" y="701"/>
      <point x="194" y="731" type="curve" smooth="yes"/>
      <point x="194" y="770"/>
      <point x="219" y="803"/>
    </contour>
    <contour>
      <point x="390" y="198" type="curve"/>
      <point x="390" y="413" type="line"/>
      <point x="428" y="389"/>
      <point x="458" y="357"/>
      <point x="458" y="314" type="curve" smooth="yes"/>
      <point x="458" y="266"/>
      <point x="431" y="224"/>
    </contour>
  </outline>
</glyph>
<glyph name="percent" format="1">
  <advance width="1141"/>
  <unicode hex="0025"/>
  <outline>
    <contour>
      <point x="155" y="780" type="curve" smooth="yes"/>
      <point x="155" y="827"/>
      <point x="194" y="865"/>
      <point x="243" y="865" type="curve" smooth="yes"/>
      <point x="292" y="865"/>
      <point x="332" y="827"/>
      <point x="332" y="780" type="curve" smooth="yes"/>
      <point x="332" y="734"/>
      <point x="292" y="696"/>
      <point x="243" y="696" type="curve" smooth="yes"/>
      <point x="194" y="696"/>
      <point x="155" y="734"/>
    </contour>
    <contour>
      <point x="0" y="780" type="curve" smooth="yes"/>
      <point x="0" y="656"/>
      <point x="109" y="555"/>
      <point x="243" y="555" type="curve" smooth="yes"/>
      <point x="378" y="555"/>
      <point x="486" y="656"/>
      <point x="486" y="780" type="curve" smooth="yes"/>
      <point x="486" y="905"/>
      <point x="378" y="1005"/>
      <point x="243" y="1005" type="curve" smooth="yes"/>
      <point x="109" y="1005"/>
      <point x="0" y="905"/>
    </contour>
    <contour>
      <point x="674" y="220" type="curve" smooth="yes"/>
      <point x="674" y="266"/>
      <point x="714" y="304"/>
      <point x="763" y="304" type="curve" smooth="yes"/>
      <point x="812" y="304"/>
      <point x="851" y="266"/>
      <point x="851" y="220" type="curve" smooth="yes"/>
      <point x="851" y="173"/>
      <point x="812" y="135"/>
      <point x="763" y="135" type="curve" smooth="yes"/>
      <point x="714" y="135"/>
      <point x="674" y="173"/>
    </contour>
    <contour>
      <point x="519" y="220" type="curve" smooth="yes"/>
      <point x="519" y="95"/>
      <point x="628" y="-5"/>
      <point x="763" y="-5" type="curve" smooth="yes"/>
      <point x="897" y="-5"/>
      <point x="1006" y="95"/>
      <point x="1006" y="220" type="curve" smooth="yes"/>
      <point x="1006" y="344"/>
      <point x="897" y="445"/>
      <point x="763" y="445" type="curve" smooth="yes"/>
      <point x="628" y="445"/>
      <point x="519" y="344"/>
    </contour>
    <contour>
      <point x="913" y="905" type="line"/>
      <point x="919" y="914"/>
      <point x="899" y="941"/>
      <point x="868" y="965" type="curve" smooth="yes"/>
      <point x="836" y="990"/>
      <point x="805" y="1003"/>
      <point x="799" y="995" type="curve" smooth="yes"/>
      <point x="93" y="95" type="line"/>
      <point x="89" y="89"/>
      <point x="95" y="76"/>
      <point x="111" y="59" type="curve" smooth="yes"/>
      <point x="127" y="42"/>
      <point x="148" y="26"/>
      <point x="168" y="14" type="curve"/>
      <point x="189" y="3"/>
      <point x="203" y="0"/>
      <point x="207" y="5" type="curve" smooth="yes"/>
    </contour>
  </outline>
</glyph>
<glyph name="ampersand" format="1">
  <advance width="946"/>
  <unicode hex="0026"/>
  <outline>
    <contour>
      <point x="295" y="624" type="curve"/>
      <point x="283" y="640"/>
      <point x="271" y="657"/>
      <point x="259" y="674" type="curve" smooth="yes"/>
      <point x="246" y="691"/>
      <point x="240" y="710"/>
      <point x="240" y="731" type="curve" smooth="yes"/>
      <point x="240" y="786"/>
      <point x="283" y="830"/>
      <point x="336" y="830" type="curve" smooth="yes"/>
      <point x="389" y="830"/>
      <point x="432" y="786"/>
      <point x="432" y="731" type="curve" smooth="yes"/>
      <point x="432" y="658"/>
      <point x="337" y="645"/>
      <point x="296" y="624" type="curve"/>
      <point x="296" y="624"/>
      <point x="296" y="624"/>
    </contour>
    <contour>
      <point x="554" y="349" type="curve"/>
      <point x="506" y="393"/>
      <point x="459" y="437"/>
      <point x="414" y="485" type="curve"/>
      <point x="510" y="535"/>
      <point x="622" y="602"/>
      <point x="622" y="731" type="curve" smooth="yes"/>
      <point x="622" y="883"/>
      <point x="494" y="1005"/>
      <point x="336" y="1005" type="curve" smooth="yes"/>
      <point x="178" y="1005"/>
      <point x="50" y="883"/>
      <point x="50" y="731" type="curve" smooth="yes"/>
      <point x="50" y="671"/>
      <point x="68" y="619"/>
      <point x="105" y="570" type="curve" smooth="yes"/>
      <point x="114" y="558"/>
      <point x="124" y="546"/>
      <point x="133" y="534" type="curve"/>
      <point x="59" y="484"/>
      <point x="0" y="416"/>
      <point x="0" y="314" type="curve" smooth="yes"/>
      <point x="0" y="138"/>
      <point x="151" y="-5"/>
      <point x="336" y="-5" type="curve" smooth="yes"/>
      <point x="426" y="-5"/>
      <point x="509" y="28"/>
      <point x="580" y="89" type="curve"/>
      <point x="617" y="58"/>
      <point x="654" y="26"/>
      <point x="692" y="-6" type="curve" smooth="yes"/>
      <point x="702" y="-15"/>
      <point x="736" y="9"/>
      <point x="769" y="46" type="curve" smooth="yes"/>
      <point x="801" y="84"/>
      <point x="818" y="121"/>
      <point x="808" y="130" type="curve" smooth="yes"/>
      <point x="769" y="163"/>
      <point x="731" y="195"/>
      <point x="694" y="227" type="curve"/>
      <point x="722" y="275"/>
      <point x="747" y="330"/>
      <point x="766" y="391" type="curve"/>
      <point x="771" y="403"/>
      <point x="737" y="430"/>
      <point x="691" y="450" type="curve" smooth="yes"/>
      <point x="644" y="470"/>
      <point x="602" y="477"/>
      <point x="596" y="465" type="curve"/>
      <point x="584" y="422"/>
      <point x="570" y="383"/>
    </contour>
    <contour>
      <point x="243" y="406" type="curve"/>
      <point x="308" y="335"/>
      <point x="375" y="271"/>
      <point x="445" y="207" type="curve"/>
      <point x="412" y="183"/>
      <point x="375" y="170"/>
      <point x="336" y="170" type="curve" smooth="yes"/>
      <point x="255" y="170"/>
      <point x="190" y="235"/>
      <point x="190" y="314" type="curve" smooth="yes"/>
      <point x="190" y="357"/>
      <point x="212" y="385"/>
    </contour>
  </outline>
</glyph>
<glyph name="quotesingle" format="1">
  <advance width="325"/>
  <unicode hex="0027"/>
  <outline>
    <contour>
      <point x="190" y="945" type="line" smooth="yes"/>
      <point x="193" y="967"/>
      <point x="176" y="986"/>
      <point x="145" y="997" type="curve" smooth="yes"/>
      <point x="113" y="1008"/>
      <point x="77" y="1008"/>
      <point x="45" y="997" type="curve" smooth="yes"/>
      <point x="14" y="986"/>
      <point x="-3" y="967"/>
      <point x="0" y="945" type="curve" smooth="yes"/>
      <point x="31" y="747" type="line" smooth="yes"/>
      <point x="34" y="727"/>
      <point x="61" y="713"/>
      <point x="95" y="713" type="curve" smooth="yes"/>
      <point x="129" y="713"/>
      <point x="156" y="727"/>
      <point x="159" y="747" type="curve" smooth="yes"/>
    </contour>
  </outline>
</glyph>
<glyph name="parenleft" format="1">
  <advance width="429"/>
  <unicode hex="0028"/>
  <outline>
    <contour>
      <point x="293" y="967" type="curve" smooth="yes"/>
      <point x="298" y="980"/>
      <point x="263" y="1004"/>
      <point x="215" y="1022" type="curve" smooth="yes"/>
      <point x="168" y="1040"/>
      <point x="125" y="1045"/>
      <point x="121" y="1033" type="curve" smooth="yes"/>
      <point x="-40" y="607"/>
      <point x="-40" y="193"/>
      <point x="121" y="-233" type="curve" smooth="yes"/>
      <point x="125" y="-245"/>
      <point x="168" y="-240"/>
      <point x="215" y="-222" type="curve" smooth="yes"/>
      <point x="263" y="-204"/>
      <point x="298" y="-180"/>
      <point x="293" y="-167" type="curve" smooth="yes"/>
      <point x="149" y="214"/>
      <point x="149" y="586"/>
    </contour>
  </outline>
</glyph>
<glyph name="parenright" format="1">
  <advance width="429"/>
  <unicode hex="0029"/>
  <outline>
    <contour>
      <point x="0" y="967" type="curve"/>
      <point x="145" y="586"/>
      <point x="145" y="214"/>
      <point x="0" y="-167" type="curve"/>
      <point x="-4" y="-180"/>
      <point x="31" y="-204"/>
      <point x="78" y="-222" type="curve" smooth="yes"/>
      <point x="126" y="-240"/>
      <point x="169" y="-245"/>
      <point x="173" y="-233" type="curve" smooth="yes"/>
      <point x="334" y="193"/>
      <point x="334" y="607"/>
      <point x="173" y="1033" type="curve" smooth="yes"/>
      <point x="169" y="1045"/>
      <point x="126" y="1040"/>
      <point x="78" y="1022" type="curve" smooth="yes"/>
      <point x="31" y="1004"/>
      <point x="-4" y="980"/>
    </contour>
  </outline>
</glyph>
<glyph name="asterisk" format="1">
  <advance width="556"/>
  <unicode hex="002A"/>
  <outline>
    <contour>
      <point x="281" y="975" type="line"/>
      <point x="281" y="985"/>
      <point x="250" y="993"/>
      <point x="210" y="993" type="curve" smooth="yes"/>
      <point x="171" y="993"/>
      <point x="139" y="985"/>
      <point x="139" y="975" type="curve"/>
      <point x="155" y="871" type="line"/>
      <point x="70" y="933" type="line"/>
      <point x="61" y="938"/>
      <point x="39" y="916"/>
      <point x="21" y="885" type="curve" smooth="yes"/>
      <point x="3" y="853"/>
      <point x="-5" y="823"/>
      <point x="4" y="818" type="curve"/>
      <point x="100" y="775" type="line"/>
      <point x="4" y="733" type="line"/>
      <point x="-5" y="728"/>
      <point x="3" y="698"/>
      <point x="21" y="666" type="curve" smooth="yes"/>
      <point x="39" y="634"/>
      <point x="61" y="612"/>
      <point x="70" y="618" type="curve" smooth="yes"/>
      <point x="155" y="680" type="line"/>
      <point x="139" y="575" type="line"/>
      <point x="139" y="565"/>
      <point x="171" y="557"/>
      <point x="210" y="557" type="curve" smooth="yes"/>
      <point x="250" y="557"/>
      <point x="281" y="565"/>
      <point x="281" y="575" type="curve"/>
      <point x="265" y="680" type="line"/>
      <point x="350" y="618" type="line" smooth="yes"/>
      <point x="356" y="614"/>
      <point x="367" y="622"/>
      <point x="381" y="638" type="curve"/>
      <point x="394" y="655"/>
      <point x="406" y="676"/>
      <point x="414" y="696" type="curve" smooth="yes"/>
      <point x="422" y="716"/>
      <point x="423" y="730"/>
      <point x="417" y="733" type="curve"/>
      <point x="320" y="775" type="line"/>
      <point x="417" y="818" type="line"/>
      <point x="426" y="823"/>
      <point x="418" y="853"/>
      <point x="399" y="885" type="curve" smooth="yes"/>
      <point x="381" y="916"/>
      <point x="359" y="938"/>
      <point x="350" y="933" type="curve"/>
      <point x="265" y="871" type="line"/>
    </contour>
  </outline>
</glyph>
<glyph name="plus" format="1">
  <advance width="835"/>
  <unicode hex="002B"/>
  <outline>
    <contour>
      <point x="255" y="422" type="line"/>
      <point x="255" y="220" type="line" smooth="yes"/>
      <point x="255" y="189"/>
      <point x="298" y="164"/>
      <point x="350" y="164" type="curve" smooth="yes"/>
      <point x="402" y="164"/>
      <point x="445" y="189"/>
      <point x="445" y="220" type="curve" smooth="yes"/>
      <point x="445" y="422" type="line"/>
      <point x="640" y="422" type="line" smooth="yes"/>
      <point x="673" y="422"/>
      <point x="700" y="461"/>
      <point x="700" y="510" type="curve" smooth="yes"/>
      <point x="700" y="559"/>
      <point x="673" y="598"/>
      <point x="640" y="598" type="curve" smooth="yes"/>
      <point x="445" y="598" type="line"/>
      <point x="445" y="800" type="line" smooth="yes"/>
      <point x="445" y="831"/>
      <point x="402" y="856"/>
      <point x="350" y="856" type="curve" smooth="yes"/>
      <point x="298" y="856"/>
      <point x="255" y="831"/>
      <point x="255" y="800" type="curve" smooth="yes"/>
      <point x="255" y="598" type="line"/>
      <point x="60" y="598" type="line" smooth="yes"/>
      <point x="27" y="598"/>
      <point x="0" y="559"/>
      <point x="0" y="510" type="curve" smooth="yes"/>
      <point x="0" y="461"/>
      <point x="27" y="422"/>
      <point x="60" y="422" type="curve" smooth="yes"/>
    </contour>
  </outline>
</glyph>
<glyph name="comma" format="1">
  <advance width="344"/>
  <unicode hex="002C"/>
  <outline>
    <contour>
      <point x="209" y="167" type="curve" smooth="yes"/>
      <point x="209" y="181"/>
      <point x="162" y="193"/>
      <point x="105" y="193" type="curve" smooth="yes"/>
      <point x="47" y="193"/>
      <point x="0" y="181"/>
      <point x="0" y="167" type="curve" smooth="yes"/>
      <point x="0" y="21" type="line" smooth="yes"/>
      <point x="0" y="11"/>
      <point x="20" y="3"/>
      <point x="49" y="-1" type="curve"/>
      <point x="53" y="-2"/>
      <point x="57" y="-11"/>
      <point x="57" y="-24" type="curve"/>
      <point x="58" y="-37"/>
      <point x="56" y="-50"/>
      <point x="53" y="-56" type="curve"/>
      <point x="24" y="-72" type="line"/>
      <point x="19" y="-74"/>
      <point x="22" y="-89"/>
      <point x="30" y="-105" type="curve" smooth="yes"/>
      <point x="38" y="-121"/>
      <point x="48" y="-132"/>
      <point x="53" y="-129" type="curve"/>
      <point x="167" y="-71"/>
      <point x="209" y="48"/>
    </contour>
  </outline>
</glyph>
<glyph name="hyphen" format="1">
  <advance width="585"/>
  <unicode hex="002D"/>
  <outline>
    <contour>
      <point x="390" y="422" type="line" smooth="yes"/>
      <point x="423" y="422"/>
      <point x="450" y="461"/>
      <point x="450" y="510" type="curve" smooth="yes"/>
      <point x="450" y="559"/>
      <point x="423" y="598"/>
      <point x="390" y="598" type="curve" smooth="yes"/>
      <point x="60" y="598" type="line" smooth="yes"/>
      <point x="27" y="598"/>
      <point x="0" y="559"/>
      <point x="0" y="510" type="curve" smooth="yes"/>
      <point x="0" y="461"/>
      <point x="27" y="422"/>
      <point x="60" y="422" type="curve" smooth="yes"/>
    </contour>
  </outline>
</glyph>
<glyph name="period" format="1">
  <advance width="344"/>
  <unicode hex="002E"/>
  <outline>
    <contour>
      <point x="209" y="167" type="line" smooth="yes"/>
      <point x="209" y="181"/>
      <point x="162" y="193"/>
      <point x="105" y="193" type="curve" smooth="yes"/>
      <point x="47" y="193"/>
      <point x="0" y="181"/>
      <point x="0" y="167" type="curve" smooth="yes"/>
      <point x="0" y="21" type="line" smooth="yes"/>
      <point x="0" y="6"/>
      <point x="47" y="-5"/>
      <point x="104" y="-5" type="curve" smooth="yes"/>
      <point x="162" y="-5"/>
      <point x="209" y="6"/>
      <point x="209" y="21" type="curve" smooth="yes"/>
    </contour>
  </outline>
</glyph>
<glyph name="slash" format="1">
  <advance width="667"/>
  <unicode hex="002F"/>
  <outline>
    <contour>
      <point x="530" y="1012" type="line" smooth="yes"/>
      <point x="539" y="1042"/>
      <point x="507" y="1078"/>
      <point x="459" y="1094" type="curve" smooth="yes"/>
      <point x="410" y="1110"/>
      <point x="363" y="1099"/>
      <point x="353" y="1070" type="curve" smooth="yes"/>
      <point x="2" y="-12" type="line" smooth="yes"/>
      <point x="-8" y="-42"/>
      <point x="24" y="-78"/>
      <point x="73" y="-94" type="curve" smooth="yes"/>
      <point x="121" y="-110"/>
      <point x="169" y="-99"/>
      <point x="178" y="-70" type="curve" smooth="yes"/>
    </contour>
  </outline>
</glyph>
<glyph name="zero" format="1">
  <advance width="883"/>
  <unicode hex="0030"/>
  <outline>
    <contour>
      <point x="203" y="472" type="curve" smooth="yes"/>
      <point x="203" y="528" type="line" smooth="yes"/>
      <point x="203" y="678"/>
      <point x="273" y="824"/>
      <point x="361" y="824" type="curve" smooth="yes"/>
      <point x="387" y="824" type="line" smooth="yes"/>
      <point x="493" y="824"/>
      <point x="545" y="693"/>
      <point x="545" y="528" type="curve" smooth="yes"/>
      <point x="545" y="472" type="line" smooth="yes"/>
      <point x="545" y="322"/>
      <point x="475" y="176"/>
      <point x="387" y="176" type="curve" smooth="yes"/>
      <point x="361" y="176" type="line" smooth="yes"/>
      <point x="255" y="176"/>
      <point x="203" y="307"/>
    </contour>
    <contour>
      <point x="0" y="472" type="line" smooth="yes"/>
      <point x="0" y="212"/>
      <point x="162" y="0"/>
      <point x="361" y="0" type="curve" smooth="yes"/>
      <point x="387" y="0" type="line" smooth="yes"/>
      <point x="586" y="0"/>
      <point x="748" y="212"/>
      <point x="748" y="472" type="curve" smooth="yes"/>
      <point x="748" y="528" type="line" smooth="yes"/>
      <point x="748" y="788"/>
      <point x="586" y="1000"/>
      <point x="387" y="1000" type="curve" smooth="yes"/>
      <point x="361" y="1000" type="line" smooth="yes"/>
      <point x="162" y="1000"/>
      <point x="0" y="788"/>
      <point x="0" y="528" type="curve" smooth="yes"/>
    </contour>
  </outline>
</glyph>
<glyph name="1" format="1">
  <advance width="504"/>
  <unicode hex="0031"/>
  <outline>
    <contour>
      <point x="369" y="940" type="line" smooth="yes"/>
      <point x="369" y="968"/>
      <point x="343" y="991"/>
      <point x="301" y="1001" type="curve" smooth="yes"/>
      <point x="260" y="1011"/>
      <point x="216" y="1004"/>
      <point x="186" y="984" type="curve"/>
      <point x="11" y="790" type="line" smooth="yes"/>
      <point x="-11" y="765"/>
      <point x="1" y="718"/>
      <point x="38" y="685" type="curve"/>
      <point x="38" y="685" type="line"/>
      <point x="75" y="652"/>
      <point x="123" y="645"/>
      <point x="146" y="670" type="curve" smooth="yes"/>
      <point x="179" y="706" type="line"/>
      <point x="179" y="54" type="line" smooth="yes"/>
      <point x="179" y="21"/>
      <point x="221" y="-5"/>
      <point x="274" y="-5" type="curve" smooth="yes"/>
      <point x="326" y="-5"/>
      <point x="369" y="21"/>
      <point x="369" y="54" type="curve" smooth="yes"/>
    </contour>
  </outline>
</glyph>
<glyph name="one" format="1">
  <advance width="531"/>
  <unicode hex="0031"/>
  <outline>
    <contour>
      <point x="396" y="945" type="line" smooth="yes"/>
      <point x="396" y="970"/>
      <point x="371" y="991"/>
      <point x="331" y="1001" type="curve" smooth="yes"/>
      <point x="291" y="1010"/>
      <point x="247" y="1005"/>
      <point x="217" y="987" type="curve"/>
      <point x="11" y="783" type="line" smooth="yes"/>
      <point x="-11" y="761"/>
      <point x="0" y="715"/>
      <point x="36" y="680" type="curve" smooth="yes"/>
      <point x="71" y="646"/>
      <point x="118" y="635"/>
      <point x="140" y="657" type="curve" smooth="yes"/>
      <point x="206" y="722" type="line"/>
      <point x="206" y="50" type="line" smooth="yes"/>
      <point x="206" y="19"/>
      <point x="248" y="-5"/>
      <point x="301" y="-5" type="curve" smooth="yes"/>
      <point x="353" y="-5"/>
      <point x="396" y="19"/>
      <point x="396" y="50" type="curve" smooth="yes"/>
    </contour>
  </outline>
</glyph>
<glyph name="Digit_Two" format="1">
  <advance width="812"/>
  <unicode hex="0032"/>
  <outline>
    <contour>
      <point x="256" y="176" type="line"/>
      <point x="613" y="176" type="line" smooth="yes"/>
      <point x="648" y="176"/>
      <point x="677" y="136"/>
      <point x="677" y="88" type="curve"/>
      <point x="677" y="88" type="line"/>
      <point x="677" y="39"/>
      <point x="648" y="0"/>
      <point x="613" y="0" type="curve" smooth="yes"/>
      <point x="80" y="0" type="line" smooth="yes"/>
      <point x="36" y="0"/>
      <point x="0" y="49"/>
      <point x="0" y="110" type="curve"/>
      <point x="0" y="110" type="line"/>
      <point x="0" y="144"/>
      <point x="12" y="175"/>
      <point x="30" y="195" type="curve" smooth="yes"/>
      <point x="467" y="682" type="line" smooth="yes"/>
      <point x="480" y="696"/>
      <point x="487" y="712"/>
      <point x="487" y="729" type="curve"/>
      <point x="487" y="729" type="line"/>
      <point x="487" y="782"/>
      <point x="420" y="824"/>
      <point x="338" y="824" type="curve"/>
      <point x="338" y="824" type="line"/>
      <point x="273" y="824"/>
      <point x="217" y="811"/>
      <point x="178" y="785" type="curve"/>
      <point x="174" y="783" type="line"/>
      <point x="155" y="756"/>
      <point x="106" y="759"/>
      <point x="66" y="788" type="curve"/>
      <point x="66" y="788" type="line"/>
      <point x="25" y="817"/>
      <point x="8" y="863"/>
      <point x="28" y="890" type="curve"/>
      <point x="24" y="888" type="line"/>
      <point x="100" y="961"/>
      <point x="210" y="1000"/>
      <point x="338" y="1000" type="curve"/>
      <point x="338" y="1000" type="line"/>
      <point x="525" y="1000"/>
      <point x="677" y="879"/>
      <point x="677" y="729" type="curve"/>
      <point x="677" y="729" type="line"/>
      <point x="677" y="680"/>
      <point x="661" y="634"/>
      <point x="632" y="594" type="curve"/>
    </contour>
  </outline>
</glyph>
<glyph name="two" format="1">
  <advance width="812"/>
  <unicode hex="0032"/>
  <outline>
    <contour>
      <point x="252" y="176" type="line"/>
      <point x="631" y="593" type="line"/>
      <point x="660" y="633"/>
      <point x="677" y="680"/>
      <point x="677" y="729" type="curve" smooth="yes"/>
      <point x="677" y="879"/>
      <point x="525" y="1000"/>
      <point x="338" y="1000" type="curve" smooth="yes"/>
      <point x="203" y="1000"/>
      <point x="85" y="955"/>
      <point x="15" y="879" type="curve" smooth="yes"/>
      <point x="9" y="873"/>
      <point x="17" y="856"/>
      <point x="36" y="834" type="curve" smooth="yes"/>
      <point x="55" y="813"/>
      <point x="81" y="792"/>
      <point x="106" y="777" type="curve" smooth="yes"/>
      <point x="131" y="762"/>
      <point x="148" y="757"/>
      <point x="154" y="764" type="curve" smooth="yes"/>
      <point x="185" y="801"/>
      <point x="255" y="824"/>
      <point x="338" y="824" type="curve" smooth="yes"/>
      <point x="420" y="824"/>
      <point x="487" y="782"/>
      <point x="487" y="729" type="curve" smooth="yes"/>
      <point x="487" y="712"/>
      <point x="480" y="696"/>
      <point x="467" y="682" type="curve" smooth="yes"/>
      <point x="20" y="189" type="line" smooth="yes"/>
      <point x="8" y="176"/>
      <point x="0" y="140"/>
      <point x="0" y="97" type="curve" smooth="yes"/>
      <point x="0" y="43"/>
      <point x="13" y="0"/>
      <point x="28" y="0" type="curve" smooth="yes"/>
      <point x="651" y="0" type="line" smooth="yes"/>
      <point x="665" y="0"/>
      <point x="677" y="39"/>
      <point x="677" y="88" type="curve" smooth="yes"/>
      <point x="677" y="136"/>
      <point x="665" y="176"/>
      <point x="651" y="176" type="curve" smooth="yes"/>
    </contour>
  </outline>
</glyph>
<glyph name="Digit_Three" format="1">
  <advance width="762"/>
  <unicode hex="0033"/>
  <outline>
    <contour>
      <point x="443" y="548" type="curve"/>
      <point x="520" y="580"/>
      <point x="573" y="650"/>
      <point x="573" y="731" type="curve"/>
      <point x="573" y="731" type="line"/>
      <point x="573" y="883"/>
      <point x="435" y="1005"/>
      <point x="266" y="1005" type="curve"/>
      <point x="266" y="1005" type="line"/>
      <point x="181" y="1005"/>
      <point x="109" y="979"/>
      <point x="49" y="925" type="curve"/>
      <point x="50" y="924" type="line"/>
      <point x="27" y="900"/>
      <point x="39" y="852"/>
      <point x="75" y="818" type="curve"/>
      <point x="75" y="818" type="line"/>
      <point x="112" y="785"/>
      <point x="160" y="777"/>
      <point x="182" y="802" type="curve"/>
      <point x="183" y="801" type="line"/>
      <point x="206" y="820"/>
      <point x="234" y="830"/>
      <point x="266" y="830" type="curve"/>
      <point x="266" y="830" type="line"/>
      <point x="326" y="830"/>
      <point x="374" y="786"/>
      <point x="374" y="731" type="curve"/>
      <point x="374" y="731" type="line"/>
      <point x="374" y="677"/>
      <point x="326" y="633"/>
      <point x="266" y="633" type="curve"/>
      <point x="266" y="633" type="line"/>
      <point x="236" y="633"/>
      <point x="211" y="594"/>
      <point x="211" y="545" type="curve"/>
      <point x="211" y="545" type="line"/>
      <point x="211" y="497"/>
      <point x="236" y="458"/>
      <point x="266" y="458" type="curve"/>
      <point x="266" y="458" type="line"/>
      <point x="353" y="458"/>
      <point x="424" y="393"/>
      <point x="424" y="314" type="curve"/>
      <point x="424" y="314" type="line"/>
      <point x="424" y="235"/>
      <point x="353" y="170"/>
      <point x="266" y="170" type="curve"/>
      <point x="266" y="170" type="line"/>
      <point x="219" y="170"/>
      <point x="178" y="184"/>
      <point x="145" y="213" type="curve"/>
      <point x="144" y="212" type="line"/>
      <point x="121" y="236"/>
      <point x="73" y="229"/>
      <point x="37" y="195" type="curve"/>
      <point x="37" y="195" type="line"/>
      <point x="0" y="161"/>
      <point x="-11" y="114"/>
      <point x="12" y="89" type="curve"/>
      <point x="11" y="88" type="line"/>
      <point x="81" y="26"/>
      <point x="166" y="-5"/>
      <point x="266" y="-5" type="curve"/>
      <point x="266" y="-5" type="line"/>
      <point x="465" y="-5"/>
      <point x="627" y="138"/>
      <point x="627" y="314" type="curve"/>
      <point x="627" y="314" type="line"/>
      <point x="627" y="421"/>
      <point x="550" y="513"/>
    </contour>
  </outline>
</glyph>
<glyph name="three" format="1">
  <advance width="753"/>
  <unicode hex="0033"/>
  <outline>
    <contour>
      <point x="433" y="548" type="curve"/>
      <point x="510" y="580"/>
      <point x="563" y="650"/>
      <point x="563" y="731" type="curve" smooth="yes"/>
      <point x="563" y="883"/>
      <point x="426" y="1005"/>
      <point x="257" y="1005" type="curve" smooth="yes"/>
      <point x="172" y="1005"/>
      <point x="100" y="979"/>
      <point x="40" y="925" type="curve"/>
      <point x="32" y="914"/>
      <point x="54" y="879"/>
      <point x="90" y="845" type="curve" smooth="yes"/>
      <point x="127" y="811"/>
      <point x="164" y="792"/>
      <point x="173" y="801" type="curve"/>
      <point x="197" y="820"/>
      <point x="224" y="830"/>
      <point x="257" y="830" type="curve" smooth="yes"/>
      <point x="319" y="830"/>
      <point x="370" y="786"/>
      <point x="370" y="731" type="curve" smooth="yes"/>
      <point x="370" y="681"/>
      <point x="326" y="640"/>
      <point x="270" y="634" type="curve" smooth="yes"/>
      <point x="186" y="626" type="line" smooth="yes"/>
      <point x="175" y="625"/>
      <point x="167" y="589"/>
      <point x="167" y="545" type="curve" smooth="yes"/>
      <point x="167" y="502"/>
      <point x="175" y="466"/>
      <point x="186" y="465" type="curve" smooth="yes"/>
      <point x="275" y="457" type="line" smooth="yes"/>
      <point x="358" y="449"/>
      <point x="422" y="388"/>
      <point x="422" y="314" type="curve" smooth="yes"/>
      <point x="422" y="235"/>
      <point x="348" y="170"/>
      <point x="257" y="170" type="curve" smooth="yes"/>
      <point x="209" y="170"/>
      <point x="169" y="184"/>
      <point x="135" y="212" type="curve"/>
      <point x="126" y="221"/>
      <point x="89" y="202"/>
      <point x="52" y="168" type="curve" smooth="yes"/>
      <point x="15" y="134"/>
      <point x="-7" y="99"/>
      <point x="2" y="89" type="curve"/>
      <point x="72" y="26"/>
      <point x="157" y="-5"/>
      <point x="257" y="-5" type="curve" smooth="yes"/>
      <point x="456" y="-5"/>
      <point x="618" y="138"/>
      <point x="618" y="314" type="curve" smooth="yes"/>
      <point x="618" y="421"/>
      <point x="541" y="513"/>
    </contour>
  </outline>
</glyph>
<glyph name="Digit_Four" format="1">
  <advance width="722"/>
  <unicode hex="0034"/>
  <outline>
    <contour>
      <point x="410" y="663" type="line"/>
      <point x="410" y="408" type="line"/>
      <point x="242" y="408" type="line"/>
    </contour>
    <contour>
      <point x="600" y="232" type="line"/>
      <point x="658" y="232" type="line" smooth="yes"/>
      <point x="693" y="232"/>
      <point x="722" y="271"/>
      <point x="722" y="320" type="curve"/>
      <point x="722" y="320" type="line"/>
      <point x="722" y="369"/>
      <point x="693" y="408"/>
      <point x="658" y="408" type="curve" smooth="yes"/>
      <point x="600" y="408" type="line"/>
      <point x="600" y="937" type="line" smooth="yes"/>
      <point x="600" y="975"/>
      <point x="551" y="1005"/>
      <point x="491" y="1005" type="curve"/>
      <point x="491" y="1005" type="line"/>
      <point x="446" y="1005"/>
      <point x="406" y="988"/>
      <point x="390" y="963" type="curve" smooth="yes"/>
      <point x="19" y="401" type="line" smooth="yes"/>
      <point x="7" y="383"/>
      <point x="0" y="359"/>
      <point x="0" y="333" type="curve"/>
      <point x="0" y="333" type="line"/>
      <point x="0" y="277"/>
      <point x="33" y="232"/>
      <point x="74" y="232" type="curve" smooth="yes"/>
      <point x="410" y="232" type="line"/>
      <point x="410" y="54" type="line" smooth="yes"/>
      <point x="410" y="21"/>
      <point x="453" y="-5"/>
      <point x="505" y="-5" type="curve" smooth="yes"/>
      <point x="558" y="-5"/>
      <point x="600" y="21"/>
      <point x="600" y="54" type="curve" smooth="yes"/>
    </contour>
  </outline>
</glyph>
<glyph name="four" format="1">
  <advance width="857"/>
  <unicode hex="0034"/>
  <outline>
    <contour>
      <point x="410" y="692" type="line"/>
      <point x="410" y="408" type="line"/>
      <point x="224" y="408" type="line"/>
    </contour>
    <contour>
      <point x="600" y="232" type="line"/>
      <point x="696" y="232" type="line" smooth="yes"/>
      <point x="711" y="232"/>
      <point x="722" y="271"/>
      <point x="722" y="320" type="curve" smooth="yes"/>
      <point x="722" y="369"/>
      <point x="711" y="408"/>
      <point x="696" y="408" type="curve" smooth="yes"/>
      <point x="600" y="408" type="line"/>
      <point x="600" y="978" type="line" smooth="yes"/>
      <point x="600" y="993"/>
      <point x="551" y="1005"/>
      <point x="491" y="1005" type="curve" smooth="yes"/>
      <point x="437" y="1005"/>
      <point x="392" y="995"/>
      <point x="383" y="982" type="curve" smooth="yes"/>
      <point x="18" y="426" type="line" smooth="yes"/>
      <point x="7" y="410"/>
      <point x="0" y="374"/>
      <point x="0" y="333" type="curve" smooth="yes"/>
      <point x="0" y="277"/>
      <point x="13" y="232"/>
      <point x="30" y="232" type="curve" smooth="yes"/>
      <point x="410" y="232" type="line"/>
      <point x="410" y="18" type="line" smooth="yes"/>
      <point x="410" y="5"/>
      <point x="453" y="-5"/>
      <point x="505" y="-5" type="curve" smooth="yes"/>
      <point x="558" y="-5"/>
      <point x="600" y="5"/>
      <point x="600" y="18" type="curve" smooth="yes"/>
    </contour>
  </outline>
</glyph>
<glyph name="5" format="1">
  <advance width="762"/>
  <unicode hex="0035"/>
  <outline>
    <contour>
      <point x="247" y="824" type="line"/>
      <point x="563" y="824" type="line" smooth="yes"/>
      <point x="598" y="824"/>
      <point x="627" y="864"/>
      <point x="627" y="912" type="curve"/>
      <point x="627" y="912" type="line"/>
      <point x="627" y="961"/>
      <point x="598" y="1000"/>
      <point x="563" y="1000" type="curve" smooth="yes"/>
      <point x="135" y="1000" type="line" smooth="yes"/>
      <point x="104" y="1000"/>
      <point x="78" y="969"/>
      <point x="72" y="929" type="curve" smooth="yes"/>
      <point x="15" y="525" type="line" smooth="yes"/>
      <point x="11" y="501"/>
      <point x="22" y="470"/>
      <point x="46" y="446" type="curve"/>
      <point x="46" y="446" type="line"/>
      <point x="80" y="410"/>
      <point x="128" y="399"/>
      <point x="152" y="423" type="curve"/>
      <point x="153" y="422" type="line"/>
      <point x="186" y="446"/>
      <point x="223" y="458"/>
      <point x="266" y="458" type="curve"/>
      <point x="266" y="458" type="line"/>
      <point x="353" y="458"/>
      <point x="424" y="393"/>
      <point x="424" y="314" type="curve"/>
      <point x="424" y="314" type="line"/>
      <point x="424" y="235"/>
      <point x="353" y="170"/>
      <point x="266" y="170" type="curve"/>
      <point x="266" y="170" type="line"/>
      <point x="219" y="170"/>
      <point x="178" y="184"/>
      <point x="145" y="213" type="curve"/>
      <point x="144" y="212" type="line"/>
      <point x="121" y="236"/>
      <point x="73" y="229"/>
      <point x="37" y="195" type="curve"/>
      <point x="37" y="195" type="line"/>
      <point x="0" y="161"/>
      <point x="-11" y="114"/>
      <point x="12" y="89" type="curve"/>
      <point x="11" y="88" type="line"/>
      <point x="81" y="26"/>
      <point x="166" y="-5"/>
      <point x="266" y="-5" type="curve"/>
      <point x="266" y="-5" type="line"/>
      <point x="465" y="-5"/>
      <point x="627" y="138"/>
      <point x="627" y="314" type="curve"/>
      <point x="627" y="314" type="line"/>
      <point x="627" y="490"/>
      <point x="465" y="633"/>
      <point x="266" y="633" type="curve"/>
      <point x="266" y="633" type="line"/>
      <point x="250" y="633"/>
      <point x="235" y="633"/>
      <point x="220" y="631" type="curve"/>
    </contour>
  </outline>
</glyph>
<glyph name="five" format="1">
  <advance width="753"/>
  <unicode hex="0035"/>
  <outline>
    <contour>
      <point x="239" y="824" type="line"/>
      <point x="592" y="824" type="line" smooth="yes"/>
      <point x="606" y="824"/>
      <point x="618" y="864"/>
      <point x="618" y="912" type="curve" smooth="yes"/>
      <point x="618" y="961"/>
      <point x="606" y="1000"/>
      <point x="592" y="1000" type="curve" smooth="yes"/>
      <point x="87" y="1000" type="line" smooth="yes"/>
      <point x="77" y="1000"/>
      <point x="67" y="977"/>
      <point x="64" y="945" type="curve" smooth="yes"/>
      <point x="16" y="547" type="line" smooth="yes"/>
      <point x="15" y="533"/>
      <point x="34" y="502"/>
      <point x="63" y="471" type="curve" smooth="yes"/>
      <point x="97" y="435"/>
      <point x="133" y="413"/>
      <point x="143" y="422" type="curve"/>
      <point x="176" y="446"/>
      <point x="213" y="458"/>
      <point x="257" y="458" type="curve" smooth="yes"/>
      <point x="348" y="458"/>
      <point x="422" y="393"/>
      <point x="422" y="314" type="curve" smooth="yes"/>
      <point x="422" y="235"/>
      <point x="348" y="170"/>
      <point x="257" y="170" type="curve" smooth="yes"/>
      <point x="209" y="170"/>
      <point x="169" y="184"/>
      <point x="135" y="212" type="curve"/>
      <point x="126" y="221"/>
      <point x="89" y="202"/>
      <point x="52" y="168" type="curve" smooth="yes"/>
      <point x="15" y="134"/>
      <point x="-7" y="99"/>
      <point x="2" y="89" type="curve"/>
      <point x="72" y="26"/>
      <point x="157" y="-5"/>
      <point x="257" y="-5" type="curve" smooth="yes"/>
      <point x="456" y="-5"/>
      <point x="618" y="138"/>
      <point x="618" y="314" type="curve" smooth="yes"/>
      <point x="618" y="490"/>
      <point x="456" y="633"/>
      <point x="257" y="633" type="curve" smooth="yes"/>
      <point x="243" y="633"/>
      <point x="229" y="633"/>
      <point x="216" y="632" type="curve"/>
    </contour>
  </outline>
</glyph>
<glyph name="6" format="1">
  <advance width="785"/>
  <unicode hex="0036"/>
  <outline>
    <contour>
      <point x="200" y="320" type="curve"/>
      <point x="200" y="402"/>
      <point x="256" y="469"/>
      <point x="325" y="469" type="curve"/>
      <point x="325" y="469" type="line"/>
      <point x="394" y="469"/>
      <point x="450" y="402"/>
      <point x="450" y="320" type="curve"/>
      <point x="450" y="320" type="line"/>
      <point x="450" y="237"/>
      <point x="394" y="170"/>
      <point x="325" y="170" type="curve"/>
      <point x="325" y="170" type="line"/>
      <point x="256" y="170"/>
      <point x="200" y="237"/>
    </contour>
    <contour>
      <point x="305" y="989" type="curve" smooth="yes"/>
      <point x="150" y="789"/>
      <point x="0" y="591"/>
      <point x="0" y="320" type="curve" smooth="yes"/>
      <point x="0" y="140"/>
      <point x="145" y="-5"/>
      <point x="325" y="-5" type="curve"/>
      <point x="325" y="-5" type="line"/>
      <point x="504" y="-5"/>
      <point x="650" y="140"/>
      <point x="650" y="320" type="curve"/>
      <point x="650" y="320" type="line"/>
      <point x="650" y="485"/>
      <point x="516" y="619"/>
      <point x="351" y="619" type="curve"/>
      <point x="351" y="619" type="line"/>
      <point x="320" y="619"/>
      <point x="290" y="614"/>
      <point x="262" y="605" type="curve"/>
      <point x="262" y="605" type="line"/>
      <point x="311" y="702"/>
      <point x="380" y="790"/>
      <point x="448" y="878" type="curve" smooth="yes"/>
      <point x="469" y="904"/>
      <point x="453" y="951"/>
      <point x="414" y="981" type="curve"/>
      <point x="414" y="981" type="line"/>
      <point x="374" y="1012"/>
      <point x="326" y="1015"/>
    </contour>
  </outline>
</glyph>
<glyph name="Digit_Six" format="1">
  <advance width="785"/>
  <unicode hex="0036"/>
  <outline>
    <contour>
      <point x="200" y="320" type="curve"/>
      <point x="200" y="402"/>
      <point x="256" y="469"/>
      <point x="325" y="469" type="curve"/>
      <point x="325" y="469" type="line"/>
      <point x="394" y="469"/>
      <point x="450" y="402"/>
      <point x="450" y="320" type="curve"/>
      <point x="450" y="320" type="line"/>
      <point x="450" y="237"/>
      <point x="394" y="170"/>
      <point x="325" y="170" type="curve"/>
      <point x="325" y="170" type="line"/>
      <point x="256" y="170"/>
      <point x="200" y="237"/>
    </contour>
    <contour>
      <point x="305" y="989" type="curve" smooth="yes"/>
      <point x="150" y="789"/>
      <point x="0" y="591"/>
      <point x="0" y="320" type="curve" smooth="yes"/>
      <point x="0" y="140"/>
      <point x="145" y="-5"/>
      <point x="325" y="-5" type="curve"/>
      <point x="325" y="-5" type="line"/>
      <point x="504" y="-5"/>
      <point x="650" y="140"/>
      <point x="650" y="320" type="curve"/>
      <point x="650" y="320" type="line"/>
      <point x="650" y="486"/>
      <point x="515" y="620"/>
      <point x="349" y="620" type="curve"/>
      <point x="349" y="620" type="line"/>
      <point x="319" y="620"/>
      <point x="291" y="616"/>
      <point x="264" y="608" type="curve"/>
      <point x="264" y="608" type="line"/>
      <point x="313" y="703"/>
      <point x="380" y="790"/>
      <point x="448" y="878" type="curve" smooth="yes"/>
      <point x="469" y="904"/>
      <point x="453" y="951"/>
      <point x="414" y="981" type="curve"/>
      <point x="414" y="981" type="line"/>
      <point x="374" y="1012"/>
      <point x="326" y="1015"/>
    </contour>
  </outline>
</glyph>
<glyph name="six" format="1">
  <advance width="785"/>
  <unicode hex="0036"/>
  <outline>
    <contour>
      <point x="200" y="320" type="curve" smooth="yes"/>
      <point x="200" y="402"/>
      <point x="256" y="469"/>
      <point x="325" y="469" type="curve" smooth="yes"/>
      <point x="394" y="469"/>
      <point x="450" y="402"/>
      <point x="450" y="320" type="curve" smooth="yes"/>
      <point x="450" y="237"/>
      <point x="394" y="170"/>
      <point x="325" y="170" type="curve" smooth="yes"/>
      <point x="256" y="170"/>
      <point x="200" y="237"/>
    </contour>
    <contour>
      <point x="305" y="992" type="curve" smooth="yes"/>
      <point x="149" y="791"/>
      <point x="0" y="591"/>
      <point x="0" y="320" type="curve" smooth="yes"/>
      <point x="0" y="140"/>
      <point x="145" y="-5"/>
      <point x="325" y="-5" type="curve" smooth="yes"/>
      <point x="504" y="-5"/>
      <point x="650" y="140"/>
      <point x="650" y="320" type="curve" smooth="yes"/>
      <point x="650" y="486"/>
      <point x="515" y="620"/>
      <point x="349" y="620" type="curve" smooth="yes"/>
      <point x="319" y="620"/>
      <point x="290" y="616"/>
      <point x="262" y="607" type="curve"/>
      <point x="312" y="704"/>
      <point x="380" y="792"/>
      <point x="448" y="881" type="curve" smooth="yes"/>
      <point x="467" y="905"/>
      <point x="451" y="950"/>
      <point x="411" y="981" type="curve" smooth="yes"/>
      <point x="372" y="1011"/>
      <point x="324" y="1016"/>
    </contour>
  </outline>
</glyph>
<glyph name="Digit_Seven" format="1">
  <advance width="880"/>
  <unicode hex="0037"/>
  <outline>
    <contour>
      <point x="500" y="830" type="line"/>
      <point x="416" y="693" type="line" smooth="yes"/>
      <point x="293" y="492"/>
      <point x="218" y="294"/>
      <point x="218" y="54" type="curve" smooth="yes"/>
      <point x="218" y="21"/>
      <point x="260" y="-5"/>
      <point x="313" y="-5" type="curve" smooth="yes"/>
      <point x="365" y="-5"/>
      <point x="408" y="21"/>
      <point x="408" y="54" type="curve" smooth="yes"/>
      <point x="408" y="257"/>
      <point x="467" y="426"/>
      <point x="572" y="598" type="curve" smooth="yes"/>
      <point x="729" y="854" type="line" smooth="yes"/>
      <point x="746" y="882"/>
      <point x="750" y="919"/>
      <point x="738" y="952" type="curve"/>
      <point x="738" y="952" type="line"/>
      <point x="727" y="985"/>
      <point x="704" y="1005"/>
      <point x="677" y="1005" type="curve" smooth="yes"/>
      <point x="64" y="1005" type="line" smooth="yes"/>
      <point x="29" y="1005"/>
      <point x="0" y="966"/>
      <point x="0" y="917" type="curve"/>
      <point x="0" y="917" type="line"/>
      <point x="0" y="869"/>
      <point x="29" y="830"/>
      <point x="64" y="830" type="curve" smooth="yes"/>
    </contour>
  </outline>
</glyph>
<glyph name="seven" format="1">
  <advance width="835"/>
  <unicode hex="0037"/>
  <outline>
    <contour>
      <point x="471" y="830" type="line"/>
      <point x="367" y="620" type="line" smooth="yes"/>
      <point x="275" y="434"/>
      <point x="209" y="261"/>
      <point x="209" y="50" type="curve" smooth="yes"/>
      <point x="209" y="19"/>
      <point x="252" y="-5"/>
      <point x="304" y="-5" type="curve" smooth="yes"/>
      <point x="357" y="-5"/>
      <point x="399" y="19"/>
      <point x="399" y="50" type="curve" smooth="yes"/>
      <point x="399" y="231"/>
      <point x="452" y="379"/>
      <point x="531" y="538" type="curve" smooth="yes"/>
      <point x="687" y="852" type="line" smooth="yes"/>
      <point x="702" y="882"/>
      <point x="704" y="919"/>
      <point x="692" y="952" type="curve" smooth="yes"/>
      <point x="681" y="986"/>
      <point x="659" y="1005"/>
      <point x="634" y="1005" type="curve" smooth="yes"/>
      <point x="60" y="1005" type="line" smooth="yes"/>
      <point x="27" y="1005"/>
      <point x="0" y="966"/>
      <point x="0" y="917" type="curve" smooth="yes"/>
      <point x="0" y="869"/>
      <point x="27" y="830"/>
      <point x="60" y="830" type="curve" smooth="yes"/>
    </contour>
  </outline>
</glyph>
<glyph name="eight" format="1">
  <advance width="808"/>
  <unicode hex="0038"/>
  <outline>
    <contour>
      <point x="336" y="170" type="curve" smooth="yes"/>
      <point x="258" y="170"/>
      <point x="194" y="235"/>
      <point x="194" y="314" type="curve" smooth="yes"/>
      <point x="194" y="393"/>
      <point x="258" y="458"/>
      <point x="336" y="458" type="curve" smooth="yes"/>
      <point x="414" y="458"/>
      <point x="478" y="393"/>
      <point x="478" y="314" type="curve" smooth="yes"/>
      <point x="478" y="235"/>
      <point x="414" y="170"/>
    </contour>
    <contour>
      <point x="336" y="633" type="curve" smooth="yes"/>
      <point x="285" y="633"/>
      <point x="243" y="677"/>
      <point x="243" y="731" type="curve" smooth="yes"/>
      <point x="243" y="786"/>
      <point x="285" y="830"/>
      <point x="336" y="830" type="curve" smooth="yes"/>
      <point x="387" y="830"/>
      <point x="429" y="786"/>
      <point x="429" y="731" type="curve" smooth="yes"/>
      <point x="429" y="677"/>
      <point x="387" y="633"/>
    </contour>
    <contour>
      <point x="336" y="1005" type="curve" smooth="yes"/>
      <point x="178" y="1005"/>
      <point x="50" y="883"/>
      <point x="50" y="731" type="curve" smooth="yes"/>
      <point x="50" y="656"/>
      <point x="91" y="589"/>
      <point x="153" y="550" type="curve"/>
      <point x="62" y="507"/>
      <point x="0" y="417"/>
      <point x="0" y="314" type="curve" smooth="yes"/>
      <point x="0" y="138"/>
      <point x="151" y="-5"/>
      <point x="336" y="-5" type="curve" smooth="yes"/>
      <point x="522" y="-5"/>
      <point x="672" y="138"/>
      <point x="672" y="314" type="curve" smooth="yes"/>
      <point x="672" y="417"/>
      <point x="610" y="507"/>
      <point x="520" y="550" type="curve"/>
      <point x="581" y="589"/>
      <point x="622" y="656"/>
      <point x="622" y="731" type="curve" smooth="yes"/>
      <point x="622" y="883"/>
      <point x="494" y="1005"/>
    </contour>
  </outline>
</glyph>
<glyph name="9" format="1">
  <advance width="785"/>
  <unicode hex="0039"/>
  <outline>
    <contour>
      <point x="450" y="680" type="curve"/>
      <point x="450" y="680" type="line"/>
      <point x="450" y="598"/>
      <point x="394" y="531"/>
      <point x="325" y="531" type="curve"/>
      <point x="325" y="531" type="line"/>
      <point x="256" y="531"/>
      <point x="200" y="598"/>
      <point x="200" y="680" type="curve"/>
      <point x="200" y="680" type="line"/>
      <point x="200" y="763"/>
      <point x="256" y="830"/>
      <point x="325" y="830" type="curve"/>
      <point x="325" y="830" type="line"/>
      <point x="394" y="830"/>
      <point x="450" y="763"/>
    </contour>
    <contour>
      <point x="344" y="11" type="curve" smooth="yes"/>
      <point x="500" y="211"/>
      <point x="650" y="409"/>
      <point x="650" y="680" type="curve" smooth="yes"/>
      <point x="650" y="860"/>
      <point x="504" y="1005"/>
      <point x="325" y="1005" type="curve"/>
      <point x="325" y="1005" type="line"/>
      <point x="145" y="1005"/>
      <point x="0" y="860"/>
      <point x="0" y="680" type="curve"/>
      <point x="0" y="680" type="line"/>
      <point x="0" y="515"/>
      <point x="134" y="381"/>
      <point x="299" y="381" type="curve"/>
      <point x="299" y="381" type="line"/>
      <point x="330" y="381"/>
      <point x="360" y="386"/>
      <point x="388" y="395" type="curve"/>
      <point x="388" y="395" type="line"/>
      <point x="338" y="298"/>
      <point x="270" y="210"/>
      <point x="201" y="122" type="curve" smooth="yes"/>
      <point x="181" y="96"/>
      <point x="196" y="49"/>
      <point x="236" y="19" type="curve"/>
      <point x="236" y="19" type="line"/>
      <point x="275" y="-12"/>
      <point x="324" y="-15"/>
    </contour>
  </outline>
</glyph>
<glyph name="Digit_Nine" format="1">
  <advance width="650"/>
  <unicode hex="0039"/>
  <outline>
    <contour>
      <point x="450" y="680" type="curve"/>
      <point x="450" y="680" type="line"/>
      <point x="450" y="598"/>
      <point x="394" y="531"/>
      <point x="325" y="531" type="curve"/>
      <point x="325" y="531" type="line"/>
      <point x="256" y="531"/>
      <point x="200" y="598"/>
      <point x="200" y="680" type="curve"/>
      <point x="200" y="680" type="line"/>
      <point x="200" y="763"/>
      <point x="256" y="830"/>
      <point x="325" y="830" type="curve"/>
      <point x="325" y="830" type="line"/>
      <point x="394" y="830"/>
      <point x="450" y="763"/>
    </contour>
    <contour>
      <point x="344" y="11" type="curve" smooth="yes"/>
      <point x="500" y="211"/>
      <point x="650" y="409"/>
      <point x="650" y="680" type="curve" smooth="yes"/>
      <point x="650" y="860"/>
      <point x="504" y="1005"/>
      <point x="325" y="1005" type="curve"/>
      <point x="325" y="1005" type="line"/>
      <point x="145" y="1005"/>
      <point x="0" y="860"/>
      <point x="0" y="680" type="curve"/>
      <point x="0" y="680" type="line"/>
      <point x="0" y="514"/>
      <point x="135" y="380"/>
      <point x="301" y="380" type="curve"/>
      <point x="301" y="380" type="line"/>
      <point x="330" y="380"/>
      <point x="359" y="384"/>
      <point x="386" y="392" type="curve"/>
      <point x="386" y="392" type="line"/>
      <point x="337" y="297"/>
      <point x="269" y="210"/>
      <point x="201" y="122" type="curve" smooth="yes"/>
      <point x="181" y="96"/>
      <point x="196" y="49"/>
      <point x="236" y="19" type="curve"/>
      <point x="236" y="19" type="line"/>
      <point x="275" y="-12"/>
      <point x="324" y="-15"/>
    </contour>
  </outline>
</glyph>
<glyph name="nine" format="1">
  <advance width="785"/>
  <unicode hex="0039"/>
  <outline>
    <contour>
      <point x="450" y="680" type="curve" smooth="yes"/>
      <point x="450" y="598"/>
      <point x="394" y="531"/>
      <point x="325" y="531" type="curve" smooth="yes"/>
      <point x="256" y="531"/>
      <point x="200" y="598"/>
      <point x="200" y="680" type="curve" smooth="yes"/>
      <point x="200" y="763"/>
      <point x="256" y="830"/>
      <point x="325" y="830" type="curve" smooth="yes"/>
      <point x="394" y="830"/>
      <point x="450" y="763"/>
    </contour>
    <contour>
      <point x="344" y="8" type="curve" smooth="yes"/>
      <point x="500" y="209"/>
      <point x="650" y="409"/>
      <point x="650" y="680" type="curve" smooth="yes"/>
      <point x="650" y="860"/>
      <point x="504" y="1005"/>
      <point x="325" y="1005" type="curve" smooth="yes"/>
      <point x="145" y="1005"/>
      <point x="0" y="860"/>
      <point x="0" y="680" type="curve" smooth="yes"/>
      <point x="0" y="514"/>
      <point x="135" y="380"/>
      <point x="301" y="380" type="curve" smooth="yes"/>
      <point x="331" y="380"/>
      <point x="360" y="384"/>
      <point x="387" y="393" type="curve"/>
      <point x="338" y="296"/>
      <point x="270" y="208"/>
      <point x="201" y="119" type="curve" smooth="yes"/>
      <point x="182" y="95"/>
      <point x="199" y="50"/>
      <point x="239" y="19" type="curve" smooth="yes"/>
      <point x="278" y="-11"/>
      <point x="326" y="-16"/>
    </contour>
  </outline>
</glyph>
<glyph name="colon" format="1">
  <advance width="344"/>
  <unicode hex="003A"/>
  <outline>
    <contour>
      <point x="209" y="167" type="line" smooth="yes"/>
      <point x="209" y="181"/>
      <point x="162" y="193"/>
      <point x="105" y="193" type="curve" smooth="yes"/>
      <point x="47" y="193"/>
      <point x="0" y="181"/>
      <point x="0" y="167" type="curve" smooth="yes"/>
      <point x="0" y="21" type="line" smooth="yes"/>
      <point x="0" y="6"/>
      <point x="47" y="-5"/>
      <point x="104" y="-5" type="curve" smooth="yes"/>
      <point x="162" y="-5"/>
      <point x="209" y="6"/>
      <point x="209" y="21" type="curve" smooth="yes"/>
    </contour>
    <contour>
      <point x="209" y="567" type="line" smooth="yes"/>
      <point x="209" y="581"/>
      <point x="162" y="593"/>
      <point x="105" y="593" type="curve" smooth="yes"/>
      <point x="47" y="593"/>
      <point x="0" y="581"/>
      <point x="0" y="567" type="curve" smooth="yes"/>
      <point x="0" y="421" type="line" smooth="yes"/>
      <point x="0" y="406"/>
      <point x="47" y="395"/>
      <point x="104" y="395" type="curve" smooth="yes"/>
      <point x="162" y="395"/>
      <point x="209" y="406"/>
      <point x="209" y="421" type="curve" smooth="yes"/>
    </contour>
  </outline>
</glyph>
<glyph name="semicolon" format="1">
  <advance width="344"/>
  <unicode hex="003B"/>
  <outline>
    <contour>
      <point x="209" y="167" type="curve" smooth="yes"/>
      <point x="209" y="181"/>
      <point x="162" y="193"/>
      <point x="105" y="193" type="curve" smooth="yes"/>
      <point x="47" y="193"/>
      <point x="0" y="181"/>
      <point x="0" y="167" type="curve" smooth="yes"/>
      <point x="0" y="21" type="line" smooth="yes"/>
      <point x="0" y="11"/>
      <point x="20" y="3"/>
      <point x="49" y="-1" type="curve"/>
      <point x="53" y="-2"/>
      <point x="57" y="-11"/>
      <point x="57" y="-24" type="curve"/>
      <point x="58" y="-37"/>
      <point x="56" y="-50"/>
      <point x="53" y="-56" type="curve"/>
      <point x="24" y="-72" type="line"/>
      <point x="19" y="-74"/>
      <point x="22" y="-89"/>
      <point x="30" y="-105" type="curve" smooth="yes"/>
      <point x="38" y="-121"/>
      <point x="48" y="-132"/>
      <point x="53" y="-129" type="curve"/>
      <point x="167" y="-71"/>
      <point x="209" y="48"/>
    </contour>
    <contour>
      <point x="209" y="567" type="line" smooth="yes"/>
      <point x="209" y="581"/>
      <point x="162" y="593"/>
      <point x="105" y="593" type="curve" smooth="yes"/>
      <point x="47" y="593"/>
      <point x="0" y="581"/>
      <point x="0" y="567" type="curve" smooth="yes"/>
      <point x="0" y="421" type="line" smooth="yes"/>
      <point x="0" y="406"/>
      <point x="47" y="395"/>
      <point x="104" y="395" type="curve" smooth="yes"/>
      <point x="162" y="395"/>
      <point x="209" y="406"/>
      <point x="209" y="421" type="curve" smooth="yes"/>
    </contour>
  </outline>
</glyph>
<glyph name="less" format="1">
  <advance width="742"/>
  <unicode hex="003C"/>
  <outline>
    <contour>
      <point x="531" y="199" type="line"/>
      <point x="534" y="197"/>
      <point x="538" y="198"/>
      <point x="543" y="201" type="curve"/>
      <point x="562" y="214"/>
      <point x="587" y="259"/>
      <point x="600" y="303" type="curve" smooth="yes"/>
      <point x="609" y="335"/>
      <point x="609" y="358"/>
      <point x="600" y="361" type="curve"/>
      <point x="245" y="510" type="line"/>
      <point x="600" y="659" type="line"/>
      <point x="609" y="662"/>
      <point x="609" y="685"/>
      <point x="600" y="717" type="curve" smooth="yes"/>
      <point x="587" y="761"/>
      <point x="562" y="806"/>
      <point x="543" y="819" type="curve"/>
      <point x="538" y="822"/>
      <point x="534" y="823"/>
      <point x="531" y="821" type="curve"/>
      <point x="26" y="610" type="line" smooth="yes"/>
      <point x="11" y="604"/>
      <point x="0" y="562"/>
      <point x="0" y="510" type="curve" smooth="yes"/>
      <point x="0" y="458"/>
      <point x="11" y="416"/>
      <point x="26" y="410" type="curve" smooth="yes"/>
    </contour>
  </outline>
</glyph>
<glyph name="equal" format="1">
  <advance width="785"/>
  <unicode hex="003D"/>
  <outline>
    <contour>
      <point x="624" y="587" type="line" smooth="yes"/>
      <point x="639" y="587"/>
      <point x="650" y="626"/>
      <point x="650" y="675" type="curve" smooth="yes"/>
      <point x="650" y="724"/>
      <point x="639" y="763"/>
      <point x="624" y="763" type="curve" smooth="yes"/>
      <point x="26" y="763" type="line" smooth="yes"/>
      <point x="11" y="763"/>
      <point x="0" y="724"/>
      <point x="0" y="675" type="curve" smooth="yes"/>
      <point x="0" y="626"/>
      <point x="11" y="587"/>
      <point x="26" y="587" type="curve" smooth="yes"/>
    </contour>
    <contour>
      <point x="624" y="257" type="line" smooth="yes"/>
      <point x="639" y="257"/>
      <point x="650" y="296"/>
      <point x="650" y="345" type="curve" smooth="yes"/>
      <point x="650" y="394"/>
      <point x="639" y="433"/>
      <point x="624" y="433" type="curve" smooth="yes"/>
      <point x="26" y="433" type="line" smooth="yes"/>
      <point x="11" y="433"/>
      <point x="0" y="394"/>
      <point x="0" y="345" type="curve" smooth="yes"/>
      <point x="0" y="296"/>
      <point x="11" y="257"/>
      <point x="26" y="257" type="curve" smooth="yes"/>
    </contour>
  </outline>
</glyph>
<glyph name="greater" format="1">
  <advance width="742"/>
  <unicode hex="003E"/>
  <outline>
    <contour>
      <point x="76" y="199" type="curve"/>
      <point x="581" y="410" type="line" smooth="yes"/>
      <point x="596" y="416"/>
      <point x="607" y="458"/>
      <point x="607" y="510" type="curve" smooth="yes"/>
      <point x="607" y="562"/>
      <point x="596" y="604"/>
      <point x="581" y="610" type="curve" smooth="yes"/>
      <point x="76" y="821" type="line"/>
      <point x="73" y="823"/>
      <point x="69" y="822"/>
      <point x="64" y="819" type="curve"/>
      <point x="45" y="806"/>
      <point x="19" y="761"/>
      <point x="7" y="717" type="curve" smooth="yes"/>
      <point x="-3" y="685"/>
      <point x="-2" y="662"/>
      <point x="7" y="659" type="curve"/>
      <point x="362" y="510" type="line"/>
      <point x="7" y="361" type="line"/>
      <point x="-2" y="358"/>
      <point x="-3" y="335"/>
      <point x="7" y="303" type="curve" smooth="yes"/>
      <point x="19" y="259"/>
      <point x="45" y="214"/>
      <point x="64" y="201" type="curve"/>
      <point x="69" y="198"/>
      <point x="73" y="197"/>
    </contour>
  </outline>
</glyph>
<glyph name="question" format="1">
  <advance width="802"/>
  <unicode hex="003F"/>
  <outline>
    <contour>
      <point x="429" y="167" type="line" smooth="yes"/>
      <point x="429" y="181"/>
      <point x="382" y="193"/>
      <point x="325" y="193" type="curve" smooth="yes"/>
      <point x="267" y="193"/>
      <point x="220" y="181"/>
      <point x="220" y="167" type="curve" smooth="yes"/>
      <point x="220" y="21" type="line" smooth="yes"/>
      <point x="220" y="6"/>
      <point x="267" y="-5"/>
      <point x="325" y="-5" type="curve" smooth="yes"/>
      <point x="382" y="-5"/>
      <point x="429" y="6"/>
      <point x="429" y="21" type="curve" smooth="yes"/>
    </contour>
    <contour>
      <point x="0" y="786" type="curve"/>
      <point x="-2" y="778"/>
      <point x="12" y="766"/>
      <point x="39" y="753" type="curve" smooth="yes"/>
      <point x="66" y="740"/>
      <point x="99" y="731"/>
      <point x="128" y="726" type="curve" smooth="yes"/>
      <point x="158" y="722"/>
      <point x="176" y="724"/>
      <point x="179" y="733" type="curve" smooth="yes"/>
      <point x="204" y="799"/>
      <point x="274" y="839"/>
      <point x="349" y="828" type="curve" smooth="yes"/>
      <point x="423" y="817"/>
      <point x="477" y="759"/>
      <point x="477" y="689" type="curve" smooth="yes"/>
      <point x="477" y="638"/>
      <point x="430" y="613"/>
      <point x="396" y="589" type="curve" smooth="yes"/>
      <point x="314" y="530"/>
      <point x="230" y="458"/>
      <point x="230" y="344" type="curve" smooth="yes"/>
      <point x="230" y="331"/>
      <point x="272" y="320"/>
      <point x="325" y="320" type="curve" smooth="yes"/>
      <point x="377" y="320"/>
      <point x="420" y="331"/>
      <point x="420" y="344" type="curve" smooth="yes"/>
      <point x="420" y="395"/>
      <point x="467" y="420"/>
      <point x="500" y="444" type="curve" smooth="yes"/>
      <point x="582" y="502"/>
      <point x="667" y="575"/>
      <point x="667" y="689" type="curve" smooth="yes"/>
      <point x="667" y="846"/>
      <point x="546" y="977"/>
      <point x="378" y="1001" type="curve" smooth="yes"/>
      <point x="210" y="1026"/>
      <point x="52" y="936"/>
    </contour>
  </outline>
</glyph>
<glyph name="A" format="1">
  <advance width="993"/>
  <unicode hex="0041"/>
  <outline>
    <contour>
      <point x="320" y="408" type="line"/>
      <point x="429" y="711" type="line"/>
      <point x="537" y="408" type="line"/>
    </contour>
    <contour>
      <point x="669" y="39" type="line" smooth="yes"/>
      <point x="680" y="9"/>
      <point x="730" y="-10"/>
      <point x="782" y="-4" type="curve" smooth="yes"/>
      <point x="833" y="2"/>
      <point x="866" y="31"/>
      <point x="855" y="61" type="curve" smooth="yes"/>
      <point x="536" y="955" type="line" smooth="yes"/>
      <point x="525" y="985"/>
      <point x="481" y="1005"/>
      <point x="429" y="1005" type="curve" smooth="yes"/>
      <point x="376" y="1005"/>
      <point x="332" y="985"/>
      <point x="322" y="955" type="curve" smooth="yes"/>
      <point x="2" y="61" type="line" smooth="yes"/>
      <point x="-9" y="31"/>
      <point x="24" y="2"/>
      <point x="76" y="-4" type="curve" smooth="yes"/>
      <point x="127" y="-10"/>
      <point x="177" y="9"/>
      <point x="188" y="39" type="curve" smooth="yes"/>
      <point x="257" y="232" type="line"/>
      <point x="600" y="232" type="line"/>
    </contour>
  </outline>
</glyph>
<glyph name="Latin_Capital_Letter_A" format="1">
  <advance width="903"/>
  <unicode hex="0041"/>
  <outline>
    <contour>
      <point x="326" y="408" type="line"/>
      <point x="451" y="738" type="line"/>
      <point x="576" y="408" type="line"/>
    </contour>
    <contour>
      <point x="715" y="40" type="line" smooth="yes"/>
      <point x="727" y="9"/>
      <point x="778" y="-11"/>
      <point x="829" y="-4" type="curve" smooth="yes"/>
      <point x="880" y="4"/>
      <point x="912" y="36"/>
      <point x="900" y="68" type="curve" smooth="yes"/>
      <point x="567" y="948" type="line" smooth="yes"/>
      <point x="554" y="982"/>
      <point x="507" y="1005"/>
      <point x="451" y="1005" type="curve" smooth="yes"/>
      <point x="395" y="1005"/>
      <point x="349" y="982"/>
      <point x="336" y="948" type="curve" smooth="yes"/>
      <point x="3" y="68" type="line" smooth="yes"/>
      <point x="-10" y="36"/>
      <point x="22" y="4"/>
      <point x="73" y="-4" type="curve" smooth="yes"/>
      <point x="124" y="-11"/>
      <point x="175" y="9"/>
      <point x="187" y="40" type="curve" smooth="yes"/>
      <point x="260" y="232" type="line"/>
      <point x="643" y="232" type="line"/>
    </contour>
  </outline>
</glyph>
<glyph name="B" format="1">
  <advance width="830"/>
  <unicode hex="0042"/>
  <outline>
    <contour>
      <point x="190" y="442" type="line"/>
      <point x="361" y="442" type="line" smooth="yes"/>
      <point x="434" y="442"/>
      <point x="494" y="382"/>
      <point x="494" y="309" type="curve" smooth="yes"/>
      <point x="494" y="235"/>
      <point x="434" y="176"/>
      <point x="361" y="176" type="curve" smooth="yes"/>
      <point x="190" y="176" type="line"/>
    </contour>
    <contour>
      <point x="190" y="824" type="line"/>
      <point x="333" y="824" type="line" smooth="yes"/>
      <point x="390" y="824"/>
      <point x="437" y="778"/>
      <point x="437" y="721" type="curve" smooth="yes"/>
      <point x="437" y="664"/>
      <point x="390" y="618"/>
      <point x="333" y="618" type="curve" smooth="yes"/>
      <point x="190" y="618" type="line"/>
    </contour>
    <contour>
      <point x="361" y="0" type="line" smooth="yes"/>
      <point x="545" y="0"/>
      <point x="695" y="138"/>
      <point x="695" y="309" type="curve" smooth="yes"/>
      <point x="695" y="416"/>
      <point x="620" y="507"/>
      <point x="515" y="538" type="curve"/>
      <point x="586" y="573"/>
      <point x="635" y="642"/>
      <point x="635" y="721" type="curve" smooth="yes"/>
      <point x="635" y="875"/>
      <point x="500" y="1000"/>
      <point x="333" y="1000" type="curve" smooth="yes"/>
      <point x="109" y="1000" type="line" smooth="yes"/>
      <point x="49" y="1000"/>
      <point x="0" y="972"/>
      <point x="0" y="937" type="curve" smooth="yes"/>
      <point x="0" y="63" type="line" smooth="yes"/>
      <point x="0" y="28"/>
      <point x="49" y="0"/>
      <point x="109" y="0" type="curve" smooth="yes"/>
    </contour>
  </outline>
</glyph>
<glyph name="Latin_Capital_Letter_C" format="1">
  <advance width="903"/>
  <unicode hex="0043"/>
  <outline>
    <contour>
      <point x="455" y="0" type="line" smooth="yes"/>
      <point x="573" y="0"/>
      <point x="679" y="53"/>
      <point x="755" y="139" type="curve" smooth="yes"/>
      <point x="769" y="156"/>
      <point x="770" y="181"/>
      <point x="757" y="208" type="curve" smooth="yes"/>
      <point x="744" y="236"/>
      <point x="720" y="259"/>
      <point x="692" y="270" type="curve" smooth="yes"/>
      <point x="663" y="282"/>
      <point x="639" y="280"/>
      <point x="622" y="264" type="curve"/>
      <point x="579" y="211"/>
      <point x="520" y="176"/>
      <point x="455" y="176" type="curve" smooth="yes"/>
      <point x="426" y="176" type="line" smooth="yes"/>
      <point x="297" y="176"/>
      <point x="209" y="308"/>
      <point x="209" y="472" type="curve" smooth="yes"/>
      <point x="209" y="528" type="line" smooth="yes"/>
      <point x="209" y="683"/>
      <point x="306" y="824"/>
      <point x="426" y="824" type="curve" smooth="yes"/>
      <point x="455" y="824" type="line" smooth="yes"/>
      <point x="525" y="824"/>
      <point x="584" y="791"/>
      <point x="625" y="737" type="curve"/>
      <point x="648" y="713"/>
      <point x="696" y="721"/>
      <point x="732" y="756" type="curve" smooth="yes"/>
      <point x="768" y="790"/>
      <point x="779" y="837"/>
      <point x="756" y="862" type="curve" smooth="yes"/>
      <point x="679" y="947"/>
      <point x="573" y="1000"/>
      <point x="455" y="1000" type="curve" smooth="yes"/>
      <point x="425" y="1000" type="line" smooth="yes"/>
      <point x="190" y="1000"/>
      <point x="0" y="788"/>
      <point x="0" y="528" type="curve" smooth="yes"/>
      <point x="0" y="472" type="line" smooth="yes"/>
      <point x="0" y="212"/>
      <point x="190" y="0"/>
      <point x="425" y="0" type="curve" smooth="yes"/>
    </contour>
  </outline>
</glyph>
<glyph name="D" format="1">
  <advance width="893"/>
  <unicode hex="0044"/>
  <outline>
    <contour>
      <point x="334" y="0" type="line" smooth="yes"/>
      <point x="568" y="0"/>
      <point x="758" y="212"/>
      <point x="758" y="472" type="curve" smooth="yes"/>
      <point x="758" y="528" type="line" smooth="yes"/>
      <point x="758" y="788"/>
      <point x="568" y="1000"/>
      <point x="334" y="1000" type="curve" smooth="yes"/>
      <point x="109" y="1000" type="line" smooth="yes"/>
      <point x="49" y="1000"/>
      <point x="0" y="988"/>
      <point x="0" y="973" type="curve" smooth="yes"/>
      <point x="0" y="27" type="line" smooth="yes"/>
      <point x="0" y="12"/>
      <point x="49" y="0"/>
      <point x="109" y="0" type="curve" smooth="yes"/>
    </contour>
    <contour>
      <point x="190" y="824" type="line"/>
      <point x="341" y="824" type="line" smooth="yes"/>
      <point x="476" y="824"/>
      <point x="568" y="692"/>
      <point x="568" y="528" type="curve" smooth="yes"/>
      <point x="568" y="472" type="line" smooth="yes"/>
      <point x="568" y="317"/>
      <point x="467" y="176"/>
      <point x="341" y="176" type="curve" smooth="yes"/>
      <point x="190" y="176" type="line"/>
    </contour>
  </outline>
</glyph>
<glyph name="E" format="1">
  <advance width="790"/>
  <unicode hex="0045"/>
  <outline>
    <contour>
      <point x="590" y="7" type="line" smooth="yes"/>
      <point x="626" y="7"/>
      <point x="655" y="46"/>
      <point x="655" y="95" type="curve"/>
      <point x="655" y="95" type="line"/>
      <point x="655" y="144"/>
      <point x="626" y="183"/>
      <point x="590" y="183" type="curve" smooth="yes"/>
      <point x="190" y="183" type="line"/>
      <point x="190" y="422" type="line"/>
      <point x="422" y="422" type="line" smooth="yes"/>
      <point x="458" y="422"/>
      <point x="487" y="461"/>
      <point x="487" y="510" type="curve"/>
      <point x="487" y="510" type="line"/>
      <point x="487" y="559"/>
      <point x="458" y="598"/>
      <point x="422" y="598" type="curve" smooth="yes"/>
      <point x="190" y="598" type="line"/>
      <point x="190" y="817" type="line"/>
      <point x="590" y="817" type="line" smooth="yes"/>
      <point x="626" y="817"/>
      <point x="655" y="856"/>
      <point x="655" y="905" type="curve"/>
      <point x="655" y="905" type="line"/>
      <point x="655" y="954"/>
      <point x="626" y="993"/>
      <point x="590" y="993" type="curve" smooth="yes"/>
      <point x="109" y="1000" type="line" smooth="yes"/>
      <point x="49" y="1000"/>
      <point x="0" y="969"/>
      <point x="0" y="932" type="curve" smooth="yes"/>
      <point x="0" y="68" type="line" smooth="yes"/>
      <point x="0" y="31"/>
      <point x="49" y="0"/>
      <point x="109" y="0" type="curve" smooth="yes"/>
    </contour>
  </outline>
</glyph>
<glyph name="Latin_Capital_Letter_E" format="1">
  <advance width="650"/>
  <unicode hex="0045"/>
  <outline>
    <contour>
      <point x="586" y="0" type="line" smooth="yes"/>
      <point x="621" y="0"/>
      <point x="650" y="39"/>
      <point x="650" y="88" type="curve"/>
      <point x="650" y="88" type="line"/>
      <point x="650" y="136"/>
      <point x="621" y="176"/>
      <point x="586" y="176" type="curve" smooth="yes"/>
      <point x="190" y="176" type="line"/>
      <point x="190" y="422" type="line"/>
      <point x="422" y="422" type="line" smooth="yes"/>
      <point x="458" y="422"/>
      <point x="487" y="461"/>
      <point x="487" y="510" type="curve"/>
      <point x="487" y="510" type="line"/>
      <point x="487" y="559"/>
      <point x="458" y="598"/>
      <point x="422" y="598" type="curve" smooth="yes"/>
      <point x="190" y="598" type="line"/>
      <point x="190" y="824" type="line"/>
      <point x="586" y="824" type="line" smooth="yes"/>
      <point x="621" y="824"/>
      <point x="650" y="864"/>
      <point x="650" y="912" type="curve"/>
      <point x="650" y="912" type="line"/>
      <point x="650" y="961"/>
      <point x="621" y="1000"/>
      <point x="586" y="1000" type="curve" smooth="yes"/>
      <point x="109" y="1000" type="line" smooth="yes"/>
      <point x="49" y="1000"/>
      <point x="0" y="969"/>
      <point x="0" y="932" type="curve" smooth="yes"/>
      <point x="0" y="68" type="line" smooth="yes"/>
      <point x="0" y="31"/>
      <point x="49" y="0"/>
      <point x="109" y="0" type="curve" smooth="yes"/>
    </contour>
  </outline>
</glyph>
<glyph name="F" format="1">
  <advance width="763"/>
  <unicode hex="0046"/>
  <outline>
    <contour>
      <point x="190" y="18" type="curve" smooth="yes"/>
      <point x="190" y="422" type="line"/>
      <point x="417" y="422" type="line" smooth="yes"/>
      <point x="431" y="422"/>
      <point x="443" y="461"/>
      <point x="443" y="510" type="curve" smooth="yes"/>
      <point x="443" y="559"/>
      <point x="431" y="598"/>
      <point x="417" y="598" type="curve" smooth="yes"/>
      <point x="190" y="598" type="line"/>
      <point x="190" y="824" type="line"/>
      <point x="602" y="824" type="line" smooth="yes"/>
      <point x="616" y="824"/>
      <point x="627" y="864"/>
      <point x="627" y="912" type="curve" smooth="yes"/>
      <point x="627" y="961"/>
      <point x="616" y="1000"/>
      <point x="602" y="1000" type="curve" smooth="yes"/>
      <point x="109" y="1000" type="line" smooth="yes"/>
      <point x="49" y="1000"/>
      <point x="0" y="988"/>
      <point x="0" y="973" type="curve" smooth="yes"/>
      <point x="0" y="18" type="line" smooth="yes"/>
      <point x="0" y="5"/>
      <point x="43" y="-5"/>
      <point x="95" y="-5" type="curve" smooth="yes"/>
      <point x="147" y="-5"/>
      <point x="190" y="5"/>
    </contour>
  </outline>
</glyph>
<glyph name="G" format="1">
  <advance width="993"/>
  <unicode hex="0047"/>
  <outline>
    <contour>
      <point x="509" y="558" type="line" smooth="yes"/>
      <point x="476" y="558"/>
      <point x="449" y="519"/>
      <point x="449" y="470" type="curve" smooth="yes"/>
      <point x="449" y="421"/>
      <point x="476" y="382"/>
      <point x="509" y="382" type="curve" smooth="yes"/>
      <point x="655" y="382" type="line"/>
      <point x="627" y="267"/>
      <point x="549" y="176"/>
      <point x="455" y="176" type="curve" smooth="yes"/>
      <point x="426" y="176" type="line" smooth="yes"/>
      <point x="297" y="176"/>
      <point x="209" y="308"/>
      <point x="209" y="472" type="curve" smooth="yes"/>
      <point x="209" y="528" type="line" smooth="yes"/>
      <point x="209" y="683"/>
      <point x="306" y="824"/>
      <point x="426" y="824" type="curve" smooth="yes"/>
      <point x="455" y="824" type="line" smooth="yes"/>
      <point x="525" y="824"/>
      <point x="584" y="791"/>
      <point x="625" y="737" type="curve"/>
      <point x="646" y="715"/>
      <point x="693" y="724"/>
      <point x="729" y="759" type="curve" smooth="yes"/>
      <point x="765" y="793"/>
      <point x="777" y="839"/>
      <point x="756" y="862" type="curve" smooth="yes"/>
      <point x="679" y="947"/>
      <point x="573" y="1000"/>
      <point x="455" y="1000" type="curve" smooth="yes"/>
      <point x="425" y="1000" type="line" smooth="yes"/>
      <point x="190" y="1000"/>
      <point x="0" y="788"/>
      <point x="0" y="528" type="curve" smooth="yes"/>
      <point x="0" y="472" type="line" smooth="yes"/>
      <point x="0" y="212"/>
      <point x="190" y="0"/>
      <point x="425" y="0" type="curve" smooth="yes"/>
      <point x="455" y="0" type="line" smooth="yes"/>
      <point x="676" y="0"/>
      <point x="855" y="210"/>
      <point x="857" y="470" type="curve" smooth="yes"/>
      <point x="859" y="519"/>
      <point x="833" y="558"/>
      <point x="800" y="558" type="curve" smooth="yes"/>
    </contour>
  </outline>
</glyph>
<glyph name="Latin_Capital_Letter_G" format="1">
  <advance width="882"/>
  <unicode hex="0047"/>
  <outline>
    <contour>
      <point x="526" y="558" type="line" smooth="yes"/>
      <point x="490" y="558"/>
      <point x="462" y="519"/>
      <point x="462" y="470" type="curve" smooth="yes"/>
      <point x="462" y="421"/>
      <point x="490" y="382"/>
      <point x="526" y="382" type="curve" smooth="yes"/>
      <point x="679" y="382" type="line"/>
      <point x="648" y="266"/>
      <point x="560" y="176"/>
      <point x="455" y="176" type="curve" smooth="yes"/>
      <point x="426" y="176" type="line" smooth="yes"/>
      <point x="297" y="176"/>
      <point x="209" y="308"/>
      <point x="209" y="472" type="curve" smooth="yes"/>
      <point x="209" y="528" type="line" smooth="yes"/>
      <point x="209" y="683"/>
      <point x="306" y="824"/>
      <point x="426" y="824" type="curve" smooth="yes"/>
      <point x="455" y="824" type="line" smooth="yes"/>
      <point x="525" y="824"/>
      <point x="584" y="791"/>
      <point x="625" y="737" type="curve"/>
      <point x="648" y="713"/>
      <point x="696" y="721"/>
      <point x="732" y="756" type="curve" smooth="yes"/>
      <point x="768" y="790"/>
      <point x="779" y="837"/>
      <point x="756" y="862" type="curve" smooth="yes"/>
      <point x="679" y="947"/>
      <point x="573" y="1000"/>
      <point x="455" y="1000" type="curve" smooth="yes"/>
      <point x="425" y="1000" type="line" smooth="yes"/>
      <point x="190" y="1000"/>
      <point x="0" y="788"/>
      <point x="0" y="528" type="curve" smooth="yes"/>
      <point x="0" y="472" type="line" smooth="yes"/>
      <point x="0" y="212"/>
      <point x="190" y="0"/>
      <point x="425" y="0" type="curve" smooth="yes"/>
      <point x="455" y="0" type="line" smooth="yes"/>
      <point x="690" y="0"/>
      <point x="880" y="210"/>
      <point x="882" y="470" type="curve"/>
      <point x="885" y="519"/>
      <point x="856" y="558"/>
      <point x="821" y="558" type="curve" smooth="yes"/>
    </contour>
  </outline>
</glyph>
<glyph name="H" format="1">
  <advance width="882"/>
  <unicode hex="0048"/>
  <outline>
    <contour>
      <point x="190" y="422" type="line"/>
      <point x="557" y="422" type="line"/>
      <point x="557" y="50" type="line" smooth="yes"/>
      <point x="557" y="19"/>
      <point x="599" y="-5"/>
      <point x="652" y="-5" type="curve" smooth="yes"/>
      <point x="704" y="-5"/>
      <point x="747" y="19"/>
      <point x="747" y="50" type="curve" smooth="yes"/>
      <point x="747" y="950" type="line" smooth="yes"/>
      <point x="747" y="981"/>
      <point x="704" y="1005"/>
      <point x="652" y="1005" type="curve" smooth="yes"/>
      <point x="599" y="1005"/>
      <point x="557" y="981"/>
      <point x="557" y="950" type="curve" smooth="yes"/>
      <point x="557" y="598" type="line"/>
      <point x="190" y="598" type="line"/>
      <point x="190" y="950" type="line" smooth="yes"/>
      <point x="190" y="981"/>
      <point x="147" y="1005"/>
      <point x="95" y="1005" type="curve" smooth="yes"/>
      <point x="43" y="1005"/>
      <point x="0" y="981"/>
      <point x="0" y="950" type="curve" smooth="yes"/>
      <point x="0" y="50" type="line" smooth="yes"/>
      <point x="0" y="19"/>
      <point x="43" y="-5"/>
      <point x="95" y="-5" type="curve" smooth="yes"/>
      <point x="147" y="-5"/>
      <point x="190" y="19"/>
      <point x="190" y="50" type="curve" smooth="yes"/>
    </contour>
  </outline>
</glyph>
<glyph name="Latin_Capital_Letter_H" format="1">
  <advance width="948"/>
  <unicode hex="0048"/>
  <outline>
    <contour>
      <point x="190" y="422" type="line"/>
      <point x="622" y="422" type="line"/>
      <point x="622" y="54" type="line" smooth="yes"/>
      <point x="622" y="21"/>
      <point x="665" y="-5"/>
      <point x="717" y="-5" type="curve" smooth="yes"/>
      <point x="770" y="-5"/>
      <point x="812" y="21"/>
      <point x="812" y="54" type="curve" smooth="yes"/>
      <point x="812" y="946" type="line" smooth="yes"/>
      <point x="812" y="979"/>
      <point x="770" y="1005"/>
      <point x="717" y="1005" type="curve" smooth="yes"/>
      <point x="665" y="1005"/>
      <point x="622" y="979"/>
      <point x="622" y="946" type="curve" smooth="yes"/>
      <point x="622" y="598" type="line"/>
      <point x="190" y="598" type="line"/>
      <point x="190" y="946" type="line" smooth="yes"/>
      <point x="190" y="979"/>
      <point x="147" y="1005"/>
      <point x="95" y="1005" type="curve" smooth="yes"/>
      <point x="43" y="1005"/>
      <point x="0" y="979"/>
      <point x="0" y="946" type="curve" smooth="yes"/>
      <point x="0" y="54" type="line" smooth="yes"/>
      <point x="0" y="21"/>
      <point x="43" y="-5"/>
      <point x="95" y="-5" type="curve" smooth="yes"/>
      <point x="147" y="-5"/>
      <point x="190" y="21"/>
      <point x="190" y="54" type="curve" smooth="yes"/>
    </contour>
  </outline>
</glyph>
<glyph name="I" format="1">
  <advance width="325"/>
  <unicode hex="0049"/>
  <outline>
    <contour>
      <point x="190" y="946" type="line" smooth="yes"/>
      <point x="190" y="979"/>
      <point x="147" y="1005"/>
      <point x="95" y="1005" type="curve" smooth="yes"/>
      <point x="43" y="1005"/>
      <point x="0" y="979"/>
      <point x="0" y="946" type="curve" smooth="yes"/>
      <point x="0" y="54" type="line" smooth="yes"/>
      <point x="0" y="21"/>
      <point x="43" y="-5"/>
      <point x="95" y="-5" type="curve" smooth="yes"/>
      <point x="147" y="-5"/>
      <point x="190" y="21"/>
      <point x="190" y="54" type="curve" smooth="yes"/>
    </contour>
  </outline>
</glyph>
<glyph name="J" format="1">
  <advance width="565"/>
  <unicode hex="004A"/>
  <outline>
    <contour>
      <point x="239" y="167" type="line"/>
      <point x="239" y="169"/>
      <point x="227" y="170"/>
      <point x="206" y="170" type="curve" smooth="yes"/>
      <point x="185" y="171"/>
      <point x="163" y="170"/>
      <point x="147" y="170" type="curve"/>
      <point x="123" y="196"/>
      <point x="73" y="189"/>
      <point x="36" y="155" type="curve" smooth="yes"/>
      <point x="-1" y="121"/>
      <point x="-11" y="72"/>
      <point x="13" y="45" type="curve"/>
      <point x="85" y="-5"/>
      <point x="185" y="-19"/>
      <point x="279" y="8" type="curve" smooth="yes"/>
      <point x="372" y="35"/>
      <point x="429" y="96"/>
      <point x="429" y="167" type="curve" smooth="yes"/>
      <point x="429" y="982" type="line" smooth="yes"/>
      <point x="429" y="995"/>
      <point x="387" y="1005"/>
      <point x="334" y="1005" type="curve" smooth="yes"/>
      <point x="282" y="1005"/>
      <point x="239" y="995"/>
      <point x="239" y="982" type="curve" smooth="yes"/>
    </contour>
  </outline>
</glyph>
<glyph name="Latin_Capital_Letter_J" format="1">
  <advance width="631"/>
  <unicode hex="004A"/>
  <outline>
    <contour>
      <point x="306" y="238" type="line" smooth="yes"/>
      <point x="306" y="210"/>
      <point x="285" y="186"/>
      <point x="251" y="176" type="curve" smooth="yes"/>
      <point x="217" y="165"/>
      <point x="180" y="170"/>
      <point x="153" y="190" type="curve"/>
      <point x="153" y="190" type="line"/>
      <point x="124" y="223"/>
      <point x="69" y="221"/>
      <point x="32" y="187" type="curve"/>
      <point x="32" y="187" type="line"/>
      <point x="-5" y="153"/>
      <point x="-11" y="98"/>
      <point x="19" y="66" type="curve"/>
      <point x="19" y="66" type="line"/>
      <point x="101" y="-5"/>
      <point x="217" y="-25"/>
      <point x="324" y="13" type="curve" smooth="yes"/>
      <point x="431" y="52"/>
      <point x="496" y="138"/>
      <point x="496" y="238" type="curve" smooth="yes"/>
      <point x="496" y="946" type="line" smooth="yes"/>
      <point x="496" y="979"/>
      <point x="454" y="1005"/>
      <point x="401" y="1005" type="curve" smooth="yes"/>
      <point x="349" y="1005"/>
      <point x="306" y="979"/>
      <point x="306" y="946" type="curve" smooth="yes"/>
    </contour>
  </outline>
</glyph>
<glyph name="K" format="1">
  <advance width="803"/>
  <unicode hex="004B"/>
  <outline>
    <contour>
      <point x="190" y="260" type="line"/>
      <point x="269" y="372" type="line"/>
      <point x="493" y="22" type="line"/>
      <point x="521" y="-6"/>
      <point x="580" y="-14"/>
      <point x="624" y="4" type="curve" smooth="yes"/>
      <point x="668" y="22"/>
      <point x="681" y="59"/>
      <point x="653" y="86" type="curve"/>
      <point x="374" y="521" type="line"/>
      <point x="650" y="912" type="line"/>
      <point x="681" y="938"/>
      <point x="671" y="975"/>
      <point x="628" y="994" type="curve" smooth="yes"/>
      <point x="585" y="1013"/>
      <point x="526" y="1007"/>
      <point x="495" y="980" type="curve"/>
      <point x="190" y="548" type="line"/>
      <point x="190" y="946" type="line" smooth="yes"/>
      <point x="190" y="979"/>
      <point x="147" y="1005"/>
      <point x="95" y="1005" type="curve" smooth="yes"/>
      <point x="43" y="1005"/>
      <point x="0" y="979"/>
      <point x="0" y="946" type="curve" smooth="yes"/>
      <point x="0" y="54" type="line" smooth="yes"/>
      <point x="0" y="21"/>
      <point x="43" y="-5"/>
      <point x="95" y="-5" type="curve" smooth="yes"/>
      <point x="147" y="-5"/>
      <point x="190" y="21"/>
      <point x="190" y="54" type="curve" smooth="yes"/>
    </contour>
  </outline>
</glyph>
<glyph name="L" format="1">
  <advance width="817"/>
  <unicode hex="004C"/>
  <outline>
    <contour>
      <point x="618" y="7" type="line" smooth="yes"/>
      <point x="653" y="7"/>
      <point x="682" y="46"/>
      <point x="682" y="95" type="curve"/>
      <point x="682" y="95" type="line"/>
      <point x="682" y="144"/>
      <point x="653" y="183"/>
      <point x="618" y="183" type="curve" smooth="yes"/>
      <point x="190" y="183" type="line"/>
      <point x="190" y="946" type="line" smooth="yes"/>
      <point x="190" y="979"/>
      <point x="147" y="1005"/>
      <point x="95" y="1005" type="curve" smooth="yes"/>
      <point x="43" y="1005"/>
      <point x="0" y="979"/>
      <point x="0" y="946" type="curve" smooth="yes"/>
      <point x="0" y="63" type="line" smooth="yes"/>
      <point x="0" y="25"/>
      <point x="49" y="-5"/>
      <point x="109" y="-5" type="curve" smooth="yes"/>
    </contour>
  </outline>
</glyph>
<glyph name="Latin_Capital_Letter_L" format="1">
  <advance width="677"/>
  <unicode hex="004C"/>
  <outline>
    <contour>
      <point x="613" y="0" type="line" smooth="yes"/>
      <point x="648" y="0"/>
      <point x="677" y="39"/>
      <point x="677" y="88" type="curve"/>
      <point x="677" y="88" type="line"/>
      <point x="677" y="136"/>
      <point x="648" y="176"/>
      <point x="613" y="176" type="curve" smooth="yes"/>
      <point x="190" y="176" type="line"/>
      <point x="190" y="946" type="line" smooth="yes"/>
      <point x="190" y="979"/>
      <point x="147" y="1005"/>
      <point x="95" y="1005" type="curve" smooth="yes"/>
      <point x="43" y="1005"/>
      <point x="0" y="979"/>
      <point x="0" y="946" type="curve" smooth="yes"/>
      <point x="0" y="68" type="line" smooth="yes"/>
      <point x="0" y="31"/>
      <point x="49" y="0"/>
      <point x="109" y="0" type="curve" smooth="yes"/>
    </contour>
  </outline>
</glyph>
<glyph name="Latin_Capital_Letter_M" format="1">
  <advance width="1128"/>
  <unicode hex="004D"/>
  <outline>
    <contour>
      <point x="457" y="51" type="line" smooth="yes"/>
      <point x="466" y="19"/>
      <point x="509" y="-5"/>
      <point x="562" y="-5" type="curve" smooth="yes"/>
      <point x="615" y="-6"/>
      <point x="659" y="16"/>
      <point x="671" y="48" type="curve"/>
      <point x="831" y="617" type="line"/>
      <point x="939" y="47" type="line" smooth="yes"/>
      <point x="945" y="14"/>
      <point x="993" y="-9"/>
      <point x="1045" y="-5" type="curve" smooth="yes"/>
      <point x="1097" y="-1"/>
      <point x="1134" y="29"/>
      <point x="1127" y="61" type="curve" smooth="yes"/>
      <point x="951" y="945" type="line" smooth="yes"/>
      <point x="944" y="979"/>
      <point x="901" y="1004"/>
      <point x="848" y="1005" type="curve" smooth="yes"/>
      <point x="794" y="1007"/>
      <point x="748" y="985"/>
      <point x="736" y="952" type="curve"/>
      <point x="559" y="307" type="line"/>
      <point x="393" y="949" type="line" smooth="yes"/>
      <point x="383" y="983"/>
      <point x="337" y="1006"/>
      <point x="283" y="1005" type="curve" smooth="yes"/>
      <point x="228" y="1004"/>
      <point x="184" y="979"/>
      <point x="177" y="945" type="curve" smooth="yes"/>
      <point x="1" y="61" type="line" smooth="yes"/>
      <point x="-6" y="29"/>
      <point x="31" y="-1"/>
      <point x="83" y="-5" type="curve" smooth="yes"/>
      <point x="135" y="-9"/>
      <point x="183" y="14"/>
      <point x="189" y="47" type="curve" smooth="yes"/>
      <point x="300" y="630" type="line"/>
    </contour>
  </outline>
</glyph>
<glyph name="M" format="1">
  <advance width="1264"/>
  <unicode hex="004D"/>
  <outline>
    <contour>
      <point x="460" y="42" type="line"/>
      <point x="475" y="13"/>
      <point x="516" y="-5"/>
      <point x="564" y="-5" type="curve" smooth="yes"/>
      <point x="613" y="-5"/>
      <point x="653" y="13"/>
      <point x="668" y="42" type="curve"/>
      <point x="831" y="618" type="line"/>
      <point x="940" y="42" type="line"/>
      <point x="948" y="20"/>
      <point x="971" y="4"/>
      <point x="1004" y="-2" type="curve" smooth="yes"/>
      <point x="1037" y="-9"/>
      <point x="1071" y="-5"/>
      <point x="1097" y="10" type="curve" smooth="yes"/>
      <point x="1123" y="25"/>
      <point x="1133" y="45"/>
      <point x="1126" y="67" type="curve"/>
      <point x="950" y="951" type="line"/>
      <point x="939" y="982"/>
      <point x="898" y="1004"/>
      <point x="848" y="1005" type="curve" smooth="yes"/>
      <point x="798" y="1007"/>
      <point x="754" y="988"/>
      <point x="739" y="958" type="curve"/>
      <point x="559" y="305" type="line"/>
      <point x="390" y="958" type="line"/>
      <point x="374" y="988"/>
      <point x="330" y="1007"/>
      <point x="279" y="1005" type="curve" smooth="yes"/>
      <point x="229" y="1003"/>
      <point x="188" y="981"/>
      <point x="178" y="950" type="curve"/>
      <point x="2" y="66" type="line"/>
      <point x="-8" y="34"/>
      <point x="25" y="2"/>
      <point x="76" y="-4" type="curve" smooth="yes"/>
      <point x="128" y="-11"/>
      <point x="178" y="10"/>
      <point x="188" y="42" type="curve"/>
      <point x="300" y="632" type="line"/>
    </contour>
  </outline>
</glyph>
<glyph name="N" format="1">
  <advance width="903"/>
  <unicode hex="004E"/>
  <outline>
    <contour>
      <point x="190" y="621" type="line"/>
      <point x="556" y="38" type="line" smooth="yes"/>
      <point x="576" y="7"/>
      <point x="626" y="-10"/>
      <point x="678" y="-4" type="curve" smooth="yes"/>
      <point x="730" y="2"/>
      <point x="767" y="30"/>
      <point x="767" y="63" type="curve" smooth="yes"/>
      <point x="767" y="946" type="line" smooth="yes"/>
      <point x="767" y="979"/>
      <point x="725" y="1005"/>
      <point x="672" y="1005" type="curve" smooth="yes"/>
      <point x="620" y="1005"/>
      <point x="577" y="979"/>
      <point x="577" y="946" type="curve" smooth="yes"/>
      <point x="577" y="379" type="line"/>
      <point x="211" y="962" type="line" smooth="yes"/>
      <point x="192" y="993"/>
      <point x="141" y="1010"/>
      <point x="89" y="1004" type="curve" smooth="yes"/>
      <point x="37" y="998"/>
      <point x="0" y="970"/>
      <point x="0" y="937" type="curve" smooth="yes"/>
      <point x="0" y="54" type="line" smooth="yes"/>
      <point x="0" y="21"/>
      <point x="43" y="-5"/>
      <point x="95" y="-5" type="curve" smooth="yes"/>
      <point x="147" y="-5"/>
      <point x="190" y="21"/>
      <point x="190" y="54" type="curve" smooth="yes"/>
    </contour>
  </outline>
</glyph>
<glyph name="P" format="1">
  <advance width="790"/>
  <unicode hex="0050"/>
  <outline>
    <contour>
      <point x="190" y="18" type="curve" smooth="yes"/>
      <point x="190" y="362" type="line"/>
      <point x="310" y="362" type="line" smooth="yes"/>
      <point x="500" y="362"/>
      <point x="654" y="502"/>
      <point x="654" y="675" type="curve" smooth="yes"/>
      <point x="654" y="687" type="line" smooth="yes"/>
      <point x="654" y="860"/>
      <point x="500" y="1000"/>
      <point x="310" y="1000" type="curve" smooth="yes"/>
      <point x="109" y="1000" type="line" smooth="yes"/>
      <point x="49" y="1000"/>
      <point x="0" y="988"/>
      <point x="0" y="973" type="curve" smooth="yes"/>
      <point x="0" y="18" type="line" smooth="yes"/>
      <point x="0" y="5"/>
      <point x="43" y="-5"/>
      <point x="95" y="-5" type="curve" smooth="yes"/>
      <point x="147" y="-5"/>
      <point x="190" y="5"/>
    </contour>
    <contour>
      <point x="190" y="824" type="line"/>
      <point x="310" y="824" type="line" smooth="yes"/>
      <point x="392" y="824"/>
      <point x="460" y="763"/>
      <point x="460" y="687" type="curve" smooth="yes"/>
      <point x="460" y="675" type="line" smooth="yes"/>
      <point x="460" y="598"/>
      <point x="393" y="538"/>
      <point x="310" y="538" type="curve" smooth="yes"/>
      <point x="190" y="538" type="line"/>
    </contour>
  </outline>
</glyph>
<glyph name="Q" format="1">
  <advance width="1015"/>
  <unicode hex="0051"/>
  <outline>
    <contour>
      <point x="208" y="472" type="curve" smooth="yes"/>
      <point x="208" y="528" type="line" smooth="yes"/>
      <point x="208" y="683"/>
      <point x="304" y="824"/>
      <point x="425" y="824" type="curve" smooth="yes"/>
      <point x="455" y="824" type="line" smooth="yes"/>
      <point x="585" y="824"/>
      <point x="672" y="692"/>
      <point x="672" y="528" type="curve" smooth="yes"/>
      <point x="672" y="472" type="line" smooth="yes"/>
      <point x="672" y="317"/>
      <point x="575" y="176"/>
      <point x="455" y="176" type="curve" smooth="yes"/>
      <point x="425" y="176" type="line" smooth="yes"/>
      <point x="295" y="176"/>
      <point x="208" y="308"/>
    </contour>
    <contour>
      <point x="0" y="473" type="line" smooth="yes"/>
      <point x="0" y="293"/>
      <point x="82" y="141"/>
      <point x="224" y="56" type="curve"/>
      <point x="699" y="-196" type="line"/>
      <point x="723" y="-218"/>
      <point x="764" y="-203"/>
      <point x="791" y="-162" type="curve" smooth="yes"/>
      <point x="819" y="-122"/>
      <point x="821" y="-72"/>
      <point x="797" y="-51" type="curve"/>
      <point x="612" y="33" type="line"/>
      <point x="769" y="102"/>
      <point x="880" y="273"/>
      <point x="880" y="472" type="curve" smooth="yes"/>
      <point x="880" y="528" type="line" smooth="yes"/>
      <point x="880" y="788"/>
      <point x="690" y="1000"/>
      <point x="455" y="1000" type="curve" smooth="yes"/>
      <point x="425" y="1000" type="line" smooth="yes"/>
      <point x="190" y="1000"/>
      <point x="0" y="788"/>
      <point x="0" y="528" type="curve" smooth="yes"/>
    </contour>
  </outline>
</glyph>
<glyph name="Latin_Capital_Letter_R" format="1">
  <advance width="664"/>
  <unicode hex="0052"/>
  <outline>
    <contour>
      <point x="190" y="362" type="line"/>
      <point x="316" y="362" type="line"/>
      <point x="478" y="36" type="line" smooth="yes"/>
      <point x="488" y="16"/>
      <point x="513" y="1"/>
      <point x="547" y="-4" type="curve" smooth="yes"/>
      <point x="582" y="-9"/>
      <point x="614" y="-2"/>
      <point x="638" y="14" type="curve" smooth="yes"/>
      <point x="662" y="30"/>
      <point x="669" y="51"/>
      <point x="659" y="72" type="curve" smooth="yes"/>
      <point x="493" y="405" type="line"/>
      <point x="595" y="459"/>
      <point x="663" y="560"/>
      <point x="663" y="675" type="curve" smooth="yes"/>
      <point x="663" y="687" type="line" smooth="yes"/>
      <point x="663" y="860"/>
      <point x="509" y="1000"/>
      <point x="320" y="1000" type="curve" smooth="yes"/>
      <point x="109" y="1000" type="line" smooth="yes"/>
      <point x="49" y="1000"/>
      <point x="0" y="969"/>
      <point x="0" y="932" type="curve" smooth="yes"/>
      <point x="0" y="54" type="line" smooth="yes"/>
      <point x="0" y="21"/>
      <point x="43" y="-5"/>
      <point x="95" y="-5" type="curve" smooth="yes"/>
      <point x="147" y="-5"/>
      <point x="190" y="21"/>
      <point x="190" y="54" type="curve" smooth="yes"/>
    </contour>
    <contour>
      <point x="190" y="824" type="line"/>
      <point x="320" y="824" type="line" smooth="yes"/>
      <point x="397" y="824"/>
      <point x="462" y="763"/>
      <point x="462" y="687" type="curve" smooth="yes"/>
      <point x="462" y="675" type="line" smooth="yes"/>
      <point x="462" y="598"/>
      <point x="398" y="538"/>
      <point x="320" y="538" type="curve" smooth="yes"/>
      <point x="190" y="538" type="line"/>
    </contour>
  </outline>
</glyph>
<glyph name="R" format="1">
  <advance width="790"/>
  <unicode hex="0052"/>
  <outline>
    <contour>
      <point x="190" y="362" type="line"/>
      <point x="310" y="362" type="line"/>
      <point x="468" y="35" type="line" smooth="yes"/>
      <point x="482" y="6"/>
      <point x="534" y="-11"/>
      <point x="585" y="-3" type="curve" smooth="yes"/>
      <point x="635" y="5"/>
      <point x="665" y="35"/>
      <point x="651" y="65" type="curve" smooth="yes"/>
      <point x="486" y="406" type="line"/>
      <point x="587" y="461"/>
      <point x="654" y="560"/>
      <point x="654" y="675" type="curve" smooth="yes"/>
      <point x="654" y="687" type="line" smooth="yes"/>
      <point x="654" y="860"/>
      <point x="500" y="1000"/>
      <point x="310" y="1000" type="curve" smooth="yes"/>
      <point x="109" y="1000" type="line" smooth="yes"/>
      <point x="49" y="1000"/>
      <point x="0" y="972"/>
      <point x="0" y="937" type="curve" smooth="yes"/>
      <point x="0" y="50" type="line" smooth="yes"/>
      <point x="0" y="19"/>
      <point x="43" y="-5"/>
      <point x="95" y="-5" type="curve" smooth="yes"/>
      <point x="147" y="-5"/>
      <point x="190" y="19"/>
      <point x="190" y="50" type="curve" smooth="yes"/>
    </contour>
    <contour>
      <point x="190" y="824" type="line"/>
      <point x="310" y="824" type="line" smooth="yes"/>
      <point x="388" y="824"/>
      <point x="453" y="763"/>
      <point x="453" y="687" type="curve" smooth="yes"/>
      <point x="453" y="675" type="line" smooth="yes"/>
      <point x="453" y="598"/>
      <point x="389" y="538"/>
      <point x="310" y="538" type="curve" smooth="yes"/>
      <point x="190" y="538" type="line"/>
    </contour>
  </outline>
</glyph>
<glyph name="S" format="1">
  <advance width="788"/>
  <unicode hex="0053"/>
  <outline>
    <contour>
      <point x="653" y="314" type="curve" smooth="yes"/>
      <point x="653" y="490"/>
      <point x="504" y="575"/>
      <point x="336" y="629" type="curve" smooth="yes"/>
      <point x="286" y="646"/>
      <point x="194" y="677"/>
      <point x="194" y="731" type="curve" smooth="yes"/>
      <point x="194" y="786"/>
      <point x="244" y="830"/>
      <point x="307" y="830" type="curve" smooth="yes"/>
      <point x="353" y="830"/>
      <point x="392" y="820"/>
      <point x="425" y="801" type="curve"/>
      <point x="435" y="792"/>
      <point x="472" y="811"/>
      <point x="509" y="845" type="curve" smooth="yes"/>
      <point x="545" y="879"/>
      <point x="567" y="914"/>
      <point x="559" y="925" type="curve"/>
      <point x="490" y="979"/>
      <point x="405" y="1005"/>
      <point x="307" y="1005" type="curve" smooth="yes"/>
      <point x="137" y="1005"/>
      <point x="0" y="883"/>
      <point x="0" y="731" type="curve" smooth="yes"/>
      <point x="0" y="580"/>
      <point x="138" y="508"/>
      <point x="282" y="462" type="curve" smooth="yes"/>
      <point x="355" y="437"/>
      <point x="458" y="393"/>
      <point x="458" y="314" type="curve" smooth="yes"/>
      <point x="458" y="235"/>
      <point x="384" y="170"/>
      <point x="292" y="170" type="curve" smooth="yes"/>
      <point x="231" y="170"/>
      <point x="179" y="184"/>
      <point x="135" y="212" type="curve"/>
      <point x="126" y="221"/>
      <point x="89" y="202"/>
      <point x="52" y="168" type="curve" smooth="yes"/>
      <point x="15" y="134"/>
      <point x="-7" y="99"/>
      <point x="2" y="89" type="curve"/>
      <point x="82" y="26"/>
      <point x="178" y="-5"/>
      <point x="292" y="-5" type="curve" smooth="yes"/>
      <point x="491" y="-5"/>
      <point x="653" y="138"/>
    </contour>
  </outline>
</glyph>
<glyph name="T" format="1">
  <advance width="939"/>
  <unicode hex="0054"/>
  <outline>
    <contour>
      <point x="497" y="824" type="line"/>
      <point x="778" y="824" type="line" smooth="yes"/>
      <point x="792" y="824"/>
      <point x="803" y="864"/>
      <point x="803" y="912" type="curve" smooth="yes"/>
      <point x="803" y="961"/>
      <point x="792" y="1000"/>
      <point x="778" y="1000" type="curve" smooth="yes"/>
      <point x="26" y="1000" type="line" smooth="yes"/>
      <point x="11" y="1000"/>
      <point x="0" y="961"/>
      <point x="0" y="912" type="curve" smooth="yes"/>
      <point x="0" y="864"/>
      <point x="11" y="824"/>
      <point x="26" y="824" type="curve" smooth="yes"/>
      <point x="307" y="824" type="line"/>
      <point x="307" y="18" type="line" smooth="yes"/>
      <point x="307" y="5"/>
      <point x="349" y="-5"/>
      <point x="402" y="-5" type="curve" smooth="yes"/>
      <point x="454" y="-5"/>
      <point x="497" y="5"/>
      <point x="497" y="18" type="curve" smooth="yes"/>
    </contour>
  </outline>
</glyph>
<glyph name="Latin_Capital_Letter_U" format="1">
  <advance width="836"/>
  <unicode hex="0055"/>
  <outline>
    <contour>
      <point x="433" y="0" type="line" smooth="yes"/>
      <point x="655" y="0"/>
      <point x="836" y="212"/>
      <point x="836" y="472" type="curve" smooth="yes"/>
      <point x="836" y="946" type="line" smooth="yes"/>
      <point x="836" y="979"/>
      <point x="793" y="1005"/>
      <point x="741" y="1005" type="curve" smooth="yes"/>
      <point x="688" y="1005"/>
      <point x="646" y="979"/>
      <point x="646" y="946" type="curve" smooth="yes"/>
      <point x="646" y="472" type="line" smooth="yes"/>
      <point x="646" y="319"/>
      <point x="551" y="176"/>
      <point x="433" y="176" type="curve" smooth="yes"/>
      <point x="403" y="176" type="line" smooth="yes"/>
      <point x="272" y="176"/>
      <point x="190" y="308"/>
      <point x="190" y="472" type="curve" smooth="yes"/>
      <point x="190" y="946" type="line" smooth="yes"/>
      <point x="190" y="979"/>
      <point x="147" y="1005"/>
      <point x="95" y="1005" type="curve" smooth="yes"/>
      <point x="43" y="1005"/>
      <point x="0" y="979"/>
      <point x="0" y="946" type="curve" smooth="yes"/>
      <point x="0" y="472" type="line" smooth="yes"/>
      <point x="0" y="212"/>
      <point x="181" y="0"/>
      <point x="403" y="0" type="curve" smooth="yes"/>
    </contour>
  </outline>
</glyph>
<glyph name="U" format="1">
  <advance width="910"/>
  <unicode hex="0055"/>
  <outline>
    <contour>
      <point x="401" y="0" type="line" smooth="yes"/>
      <point x="607" y="0"/>
      <point x="774" y="212"/>
      <point x="774" y="472" type="curve" smooth="yes"/>
      <point x="774" y="950" type="line" smooth="yes"/>
      <point x="774" y="981"/>
      <point x="732" y="1005"/>
      <point x="679" y="1005" type="curve" smooth="yes"/>
      <point x="627" y="1005"/>
      <point x="584" y="981"/>
      <point x="584" y="950" type="curve" smooth="yes"/>
      <point x="584" y="472" type="line" smooth="yes"/>
      <point x="584" y="321"/>
      <point x="503" y="176"/>
      <point x="401" y="176" type="curve" smooth="yes"/>
      <point x="374" y="176" type="line" smooth="yes"/>
      <point x="254" y="176"/>
      <point x="190" y="308"/>
      <point x="190" y="472" type="curve" smooth="yes"/>
      <point x="190" y="950" type="line" smooth="yes"/>
      <point x="190" y="981"/>
      <point x="147" y="1005"/>
      <point x="95" y="1005" type="curve" smooth="yes"/>
      <point x="43" y="1005"/>
      <point x="0" y="981"/>
      <point x="0" y="950" type="curve" smooth="yes"/>
      <point x="0" y="472" type="line" smooth="yes"/>
      <point x="0" y="212"/>
      <point x="167" y="0"/>
      <point x="374" y="0" type="curve" smooth="yes"/>
    </contour>
  </outline>
</glyph>
<glyph name="Latin_Capital_Letter_V" format="1">
  <advance width="857"/>
  <unicode hex="0056"/>
  <outline>
    <contour>
      <point x="289" y="66" type="line" smooth="yes"/>
      <point x="303" y="24"/>
      <point x="360" y="-5"/>
      <point x="429" y="-5" type="curve" smooth="yes"/>
      <point x="497" y="-5"/>
      <point x="554" y="24"/>
      <point x="568" y="66" type="curve" smooth="yes"/>
      <point x="855" y="934" type="line" smooth="yes"/>
      <point x="866" y="966"/>
      <point x="833" y="997"/>
      <point x="782" y="1004" type="curve" smooth="yes"/>
      <point x="730" y="1011"/>
      <point x="680" y="990"/>
      <point x="669" y="958" type="curve" smooth="yes"/>
      <point x="429" y="230" type="line"/>
      <point x="188" y="958" type="line" smooth="yes"/>
      <point x="177" y="990"/>
      <point x="127" y="1011"/>
      <point x="76" y="1004" type="curve" smooth="yes"/>
      <point x="24" y="997"/>
      <point x="-9" y="966"/>
      <point x="2" y="934" type="curve" smooth="yes"/>
    </contour>
  </outline>
</glyph>
<glyph name="V" format="1">
  <advance width="976"/>
  <unicode hex="0056"/>
  <outline>
    <contour>
      <point x="313" y="17" type="line"/>
      <point x="322" y="4"/>
      <point x="367" y="-5"/>
      <point x="420" y="-5" type="curve" smooth="yes"/>
      <point x="474" y="-5"/>
      <point x="519" y="4"/>
      <point x="528" y="17" type="curve"/>
      <point x="841" y="963" type="line" smooth="yes"/>
      <point x="845" y="976"/>
      <point x="807" y="992"/>
      <point x="755" y="998" type="curve" smooth="yes"/>
      <point x="703" y="1005"/>
      <point x="658" y="1000"/>
      <point x="654" y="987" type="curve" smooth="yes"/>
      <point x="420" y="280" type="line"/>
      <point x="187" y="987" type="line" smooth="yes"/>
      <point x="183" y="1000"/>
      <point x="137" y="1005"/>
      <point x="86" y="998" type="curve" smooth="yes"/>
      <point x="34" y="992"/>
      <point x="-4" y="976"/>
      <point x="0" y="963" type="curve" smooth="yes"/>
    </contour>
  </outline>
</glyph>
<glyph name="Latin_Capital_Letter_W" format="1">
  <advance width="1354"/>
  <unicode hex="0057"/>
  <outline>
    <contour>
      <point x="272" y="50" type="line" smooth="yes"/>
      <point x="282" y="18"/>
      <point x="326" y="-5"/>
      <point x="379" y="-5" type="curve" smooth="yes"/>
      <point x="432" y="-5"/>
      <point x="477" y="18"/>
      <point x="487" y="50" type="curve" smooth="yes"/>
      <point x="677" y="708" type="line"/>
      <point x="867" y="50" type="line" smooth="yes"/>
      <point x="877" y="18"/>
      <point x="921" y="-5"/>
      <point x="974" y="-5" type="curve" smooth="yes"/>
      <point x="1027" y="-5"/>
      <point x="1072" y="18"/>
      <point x="1082" y="50" type="curve" smooth="yes"/>
      <point x="1352" y="935" type="line" smooth="yes"/>
      <point x="1362" y="967"/>
      <point x="1328" y="998"/>
      <point x="1277" y="1004" type="curve" smooth="yes"/>
      <point x="1225" y="1010"/>
      <point x="1175" y="989"/>
      <point x="1165" y="957" type="curve" smooth="yes"/>
      <point x="974" y="295" type="line"/>
      <point x="784" y="950" type="line" smooth="yes"/>
      <point x="774" y="982"/>
      <point x="730" y="1005"/>
      <point x="677" y="1005" type="curve" smooth="yes"/>
      <point x="624" y="1005"/>
      <point x="580" y="982"/>
      <point x="570" y="950" type="curve" smooth="yes"/>
      <point x="380" y="295" type="line"/>
      <point x="188" y="957" type="line" smooth="yes"/>
      <point x="178" y="989"/>
      <point x="129" y="1010"/>
      <point x="77" y="1004" type="curve" smooth="yes"/>
      <point x="26" y="998"/>
      <point x="-8" y="967"/>
      <point x="2" y="935" type="curve" smooth="yes"/>
    </contour>
  </outline>
</glyph>
<glyph name="W" format="1">
  <advance width="1489"/>
  <unicode hex="0057"/>
  <outline>
    <contour>
      <point x="275" y="42" type="line"/>
      <point x="290" y="13"/>
      <point x="332" y="-5"/>
      <point x="380" y="-5" type="curve" smooth="yes"/>
      <point x="429" y="-5"/>
      <point x="470" y="14"/>
      <point x="484" y="43" type="curve"/>
      <point x="677" y="710" type="line"/>
      <point x="870" y="42" type="line"/>
      <point x="885" y="13"/>
      <point x="927" y="-5"/>
      <point x="975" y="-5" type="curve" smooth="yes"/>
      <point x="1024" y="-5"/>
      <point x="1065" y="14"/>
      <point x="1079" y="43" type="curve"/>
      <point x="1350" y="929" type="line"/>
      <point x="1365" y="960"/>
      <point x="1337" y="993"/>
      <point x="1287" y="1003" type="curve" smooth="yes"/>
      <point x="1236" y="1012"/>
      <point x="1183" y="995"/>
      <point x="1168" y="963" type="curve"/>
      <point x="974" y="293" type="line"/>
      <point x="781" y="958" type="line"/>
      <point x="766" y="987"/>
      <point x="725" y="1005"/>
      <point x="676" y="1005" type="curve" smooth="yes"/>
      <point x="627" y="1005"/>
      <point x="587" y="986"/>
      <point x="572" y="957" type="curve"/>
      <point x="380" y="293" type="line"/>
      <point x="185" y="964" type="line"/>
      <point x="169" y="995"/>
      <point x="116" y="1012"/>
      <point x="66" y="1002" type="curve" smooth="yes"/>
      <point x="16" y="992"/>
      <point x="-11" y="959"/>
      <point x="5" y="928" type="curve"/>
    </contour>
  </outline>
</glyph>
<glyph name="X" format="1">
  <advance width="857"/>
  <unicode hex="0058"/>
  <outline>
    <contour>
      <point x="361" y="330" type="line"/>
      <point x="538" y="33" type="line" smooth="yes"/>
      <point x="556" y="3"/>
      <point x="611" y="-13"/>
      <point x="660" y="-2" type="curve" smooth="yes"/>
      <point x="709" y="10"/>
      <point x="734" y="44"/>
      <point x="716" y="75" type="curve" smooth="yes"/>
      <point x="462" y="500" type="line"/>
      <point x="716" y="925" type="line" smooth="yes"/>
      <point x="734" y="956"/>
      <point x="709" y="990"/>
      <point x="660" y="1002" type="curve" smooth="yes"/>
      <point x="611" y="1013"/>
      <point x="556" y="997"/>
      <point x="538" y="967" type="curve" smooth="yes"/>
      <point x="361" y="670" type="line"/>
      <point x="184" y="967" type="line" smooth="yes"/>
      <point x="166" y="997"/>
      <point x="111" y="1013"/>
      <point x="62" y="1002" type="curve" smooth="yes"/>
      <point x="13" y="990"/>
      <point x="-12" y="956"/>
      <point x="6" y="925" type="curve" smooth="yes"/>
      <point x="260" y="500" type="line"/>
      <point x="6" y="75" type="line" smooth="yes"/>
      <point x="-12" y="44"/>
      <point x="13" y="10"/>
      <point x="62" y="-2" type="curve" smooth="yes"/>
      <point x="111" y="-13"/>
      <point x="166" y="3"/>
      <point x="184" y="33" type="curve" smooth="yes"/>
    </contour>
  </outline>
</glyph>
<glyph name="Y" format="1">
  <advance width="901"/>
  <unicode hex="0059"/>
  <outline>
    <contour>
      <point x="288" y="499" type="line"/>
      <point x="288" y="18" type="line" smooth="yes"/>
      <point x="288" y="5"/>
      <point x="330" y="-5"/>
      <point x="383" y="-5" type="curve" smooth="yes"/>
      <point x="435" y="-5"/>
      <point x="478" y="5"/>
      <point x="478" y="18" type="curve" smooth="yes"/>
      <point x="478" y="499" type="line"/>
      <point x="765" y="954" type="line" smooth="yes"/>
      <point x="772" y="966"/>
      <point x="738" y="984"/>
      <point x="687" y="995" type="curve" smooth="yes"/>
      <point x="637" y="1006"/>
      <point x="590" y="1006"/>
      <point x="583" y="994" type="curve" smooth="yes"/>
      <point x="383" y="659" type="line"/>
      <point x="183" y="993" type="line" smooth="yes"/>
      <point x="176" y="1005"/>
      <point x="129" y="1006"/>
      <point x="79" y="995" type="curve" smooth="yes"/>
      <point x="29" y="984"/>
      <point x="-6" y="966"/>
      <point x="1" y="954" type="curve" smooth="yes"/>
    </contour>
  </outline>
</glyph>
<glyph name="Z" format="1">
  <advance width="826"/>
  <unicode hex="005A"/>
  <outline>
    <contour>
      <point x="460" y="817" type="line"/>
      <point x="16" y="196" type="line"/>
      <point x="-3" y="159"/>
      <point x="-5" y="114"/>
      <point x="10" y="73" type="curve"/>
      <point x="10" y="73" type="line"/>
      <point x="26" y="33"/>
      <point x="54" y="10"/>
      <point x="87" y="10" type="curve" smooth="yes"/>
      <point x="624" y="7" type="line" smooth="yes"/>
      <point x="660" y="7"/>
      <point x="689" y="46"/>
      <point x="689" y="95" type="curve"/>
      <point x="689" y="95" type="line"/>
      <point x="689" y="144"/>
      <point x="660" y="183"/>
      <point x="624" y="183" type="curve" smooth="yes"/>
      <point x="231" y="183" type="line"/>
      <point x="675" y="804" type="line"/>
      <point x="694" y="841"/>
      <point x="696" y="886"/>
      <point x="680" y="927" type="curve"/>
      <point x="680" y="927" type="line"/>
      <point x="665" y="967"/>
      <point x="637" y="990"/>
      <point x="604" y="990" type="curve" smooth="yes"/>
      <point x="66" y="993" type="line" smooth="yes"/>
      <point x="31" y="993"/>
      <point x="2" y="954"/>
      <point x="2" y="905" type="curve"/>
      <point x="2" y="905" type="line"/>
      <point x="2" y="856"/>
      <point x="31" y="817"/>
      <point x="66" y="817" type="curve" smooth="yes"/>
    </contour>
  </outline>
</glyph>
<glyph name="bracketleft" format="1">
  <advance width="496"/>
  <unicode hex="005B"/>
  <outline>
    <contour>
      <point x="335" y="-100" type="line" smooth="yes"/>
      <point x="350" y="-100"/>
      <point x="361" y="-61"/>
      <point x="361" y="-12" type="curve" smooth="yes"/>
      <point x="361" y="36"/>
      <point x="350" y="76"/>
      <point x="335" y="76" type="curve" smooth="yes"/>
      <point x="169" y="76" type="line"/>
      <point x="169" y="924" type="line"/>
      <point x="335" y="924" type="line" smooth="yes"/>
      <point x="350" y="924"/>
      <point x="361" y="964"/>
      <point x="361" y="1012" type="curve" smooth="yes"/>
      <point x="361" y="1061"/>
      <point x="350" y="1100"/>
      <point x="335" y="1100" type="curve" smooth="yes"/>
      <point x="109" y="1100" type="line" smooth="yes"/>
      <point x="49" y="1100"/>
      <point x="0" y="1088"/>
      <point x="0" y="1073" type="curve" smooth="yes"/>
      <point x="0" y="-73" type="line" smooth="yes"/>
      <point x="0" y="-88"/>
      <point x="49" y="-100"/>
      <point x="109" y="-100" type="curve" smooth="yes"/>
    </contour>
  </outline>
</glyph>
<glyph name="backslash" format="1">
  <advance width="683"/>
  <unicode hex="005C"/>
  <outline>
    <contour>
      <point x="0" y="1041" type="curve" smooth="yes"/>
      <point x="370" y="-98" type="line"/>
      <point x="375" y="-111"/>
      <point x="417" y="-108"/>
      <point x="466" y="-92" type="curve" smooth="yes"/>
      <point x="515" y="-76"/>
      <point x="551" y="-53"/>
      <point x="547" y="-41" type="curve" smooth="yes"/>
      <point x="177" y="1098" type="line" smooth="yes"/>
      <point x="173" y="1111"/>
      <point x="130" y="1108"/>
      <point x="81" y="1092" type="curve" smooth="yes"/>
      <point x="32" y="1076"/>
      <point x="-4" y="1053"/>
    </contour>
  </outline>
</glyph>
<glyph name="bracketright" format="1">
  <advance width="496"/>
  <unicode hex="005D"/>
  <outline>
    <contour>
      <point x="26" y="-100" type="curve" smooth="yes"/>
      <point x="252" y="-100" type="line" smooth="yes"/>
      <point x="312" y="-100"/>
      <point x="361" y="-88"/>
      <point x="361" y="-73" type="curve" smooth="yes"/>
      <point x="361" y="1073" type="line" smooth="yes"/>
      <point x="361" y="1088"/>
      <point x="312" y="1100"/>
      <point x="252" y="1100" type="curve" smooth="yes"/>
      <point x="26" y="1100" type="line" smooth="yes"/>
      <point x="11" y="1100"/>
      <point x="0" y="1061"/>
      <point x="0" y="1012" type="curve" smooth="yes"/>
      <point x="0" y="964"/>
      <point x="11" y="924"/>
      <point x="26" y="924" type="curve" smooth="yes"/>
      <point x="192" y="924" type="line"/>
      <point x="192" y="76" type="line"/>
      <point x="26" y="76" type="line" smooth="yes"/>
      <point x="11" y="76"/>
      <point x="0" y="36"/>
      <point x="0" y="-12" type="curve" smooth="yes"/>
      <point x="0" y="-61"/>
      <point x="11" y="-100"/>
    </contour>
  </outline>
</glyph>
<glyph name="asciicircum" format="1">
  <advance width="689"/>
  <unicode hex="005E"/>
  <outline>
    <contour>
      <point x="8" y="755" type="line" smooth="yes"/>
      <point x="1" y="746"/>
      <point x="-2" y="732"/>
      <point x="2" y="717" type="curve" smooth="yes"/>
      <point x="11" y="679"/>
      <point x="53" y="641"/>
      <point x="97" y="632" type="curve" smooth="yes"/>
      <point x="122" y="626"/>
      <point x="142" y="632"/>
      <point x="152" y="645" type="curve" smooth="yes"/>
      <point x="277" y="802" type="line"/>
      <point x="401" y="645" type="line" smooth="yes"/>
      <point x="412" y="632"/>
      <point x="432" y="626"/>
      <point x="457" y="632" type="curve" smooth="yes"/>
      <point x="500" y="641"/>
      <point x="543" y="679"/>
      <point x="552" y="717" type="curve" smooth="yes"/>
      <point x="556" y="732"/>
      <point x="553" y="746"/>
      <point x="546" y="755" type="curve" smooth="yes"/>
      <point x="376" y="968" type="line" smooth="yes"/>
      <point x="359" y="990"/>
      <point x="321" y="1005"/>
      <point x="277" y="1005" type="curve" smooth="yes"/>
      <point x="233" y="1005"/>
      <point x="195" y="990"/>
      <point x="177" y="968" type="curve" smooth="yes"/>
    </contour>
  </outline>
</glyph>
<glyph name="underscore" format="1">
  <advance width="960"/>
  <unicode hex="005F"/>
  <outline>
    <contour>
      <point x="765" y="-208" type="line" smooth="yes"/>
      <point x="798" y="-208"/>
      <point x="825" y="-169"/>
      <point x="825" y="-120" type="curve" smooth="yes"/>
      <point x="825" y="-71"/>
      <point x="798" y="-32"/>
      <point x="765" y="-32" type="curve" smooth="yes"/>
      <point x="60" y="-32" type="line" smooth="yes"/>
      <point x="27" y="-32"/>
      <point x="0" y="-71"/>
      <point x="0" y="-120" type="curve" smooth="yes"/>
      <point x="0" y="-169"/>
      <point x="27" y="-208"/>
      <point x="60" y="-208" type="curve" smooth="yes"/>
    </contour>
  </outline>
</glyph>
<glyph name="grave" format="1">
  <advance width="414"/>
  <unicode hex="0060"/>
  <outline>
    <contour>
      <point x="138" y="994" type="line" smooth="yes"/>
      <point x="124" y="1010"/>
      <point x="99" y="1009"/>
      <point x="70" y="992" type="curve" smooth="yes"/>
      <point x="41" y="975"/>
      <point x="18" y="947"/>
      <point x="6" y="915" type="curve" smooth="yes"/>
      <point x="-5" y="884"/>
      <point x="-1" y="859"/>
      <point x="18" y="848" type="curve" smooth="yes"/>
      <point x="190" y="745" type="line" smooth="yes"/>
      <point x="207" y="734"/>
      <point x="236" y="746"/>
      <point x="257" y="772" type="curve" smooth="yes"/>
      <point x="279" y="798"/>
      <point x="285" y="829"/>
      <point x="272" y="844" type="curve" smooth="yes"/>
    </contour>
  </outline>
</glyph>
<glyph name="c" format="1">
  <advance width="708"/>
  <unicode hex="0063"/>
  <outline>
    <contour>
      <point x="325" y="655" type="curve" smooth="yes"/>
      <point x="146" y="655"/>
      <point x="0" y="507"/>
      <point x="0" y="325" type="curve" smooth="yes"/>
      <point x="0" y="143"/>
      <point x="146" y="-5"/>
      <point x="325" y="-5" type="curve" smooth="yes"/>
      <point x="420" y="-5"/>
      <point x="501" y="23"/>
      <point x="570" y="81" type="curve"/>
      <point x="579" y="91"/>
      <point x="559" y="127"/>
      <point x="524" y="163" type="curve" smooth="yes"/>
      <point x="489" y="198"/>
      <point x="453" y="219"/>
      <point x="443" y="210" type="curve"/>
      <point x="409" y="184"/>
      <point x="370" y="170"/>
      <point x="325" y="170" type="curve" smooth="yes"/>
      <point x="253" y="170"/>
      <point x="194" y="240"/>
      <point x="194" y="325" type="curve" smooth="yes"/>
      <point x="194" y="410"/>
      <point x="253" y="480"/>
      <point x="325" y="480" type="curve" smooth="yes"/>
      <point x="370" y="480"/>
      <point x="409" y="466"/>
      <point x="443" y="440" type="curve"/>
      <point x="453" y="431"/>
      <point x="489" y="452"/>
      <point x="524" y="487" type="curve" smooth="yes"/>
      <point x="559" y="523"/>
      <point x="579" y="559"/>
      <point x="570" y="569" type="curve"/>
      <point x="501" y="627"/>
      <point x="420" y="655"/>
    </contour>
  </outline>
</glyph>
<glyph name="d" format="1">
  <advance width="781"/>
  <unicode hex="0064"/>
  <outline>
    <contour>
      <point x="456" y="325" type="curve" smooth="yes"/>
      <point x="456" y="240"/>
      <point x="397" y="170"/>
      <point x="325" y="170" type="curve" smooth="yes"/>
      <point x="253" y="170"/>
      <point x="194" y="240"/>
      <point x="194" y="325" type="curve" smooth="yes"/>
      <point x="194" y="410"/>
      <point x="253" y="480"/>
      <point x="325" y="480" type="curve" smooth="yes"/>
      <point x="397" y="480"/>
      <point x="456" y="410"/>
    </contour>
    <contour>
      <point x="456" y="610" type="line"/>
      <point x="417" y="639"/>
      <point x="373" y="655"/>
      <point x="325" y="655" type="curve" smooth="yes"/>
      <point x="146" y="655"/>
      <point x="0" y="507"/>
      <point x="0" y="325" type="curve" smooth="yes"/>
      <point x="0" y="143"/>
      <point x="146" y="-5"/>
      <point x="325" y="-5" type="curve" smooth="yes"/>
      <point x="373" y="-5"/>
      <point x="417" y="11"/>
      <point x="456" y="40" type="curve"/>
      <point x="456" y="18" type="line" smooth="yes"/>
      <point x="456" y="5"/>
      <point x="498" y="-5"/>
      <point x="551" y="-5" type="curve" smooth="yes"/>
      <point x="603" y="-5"/>
      <point x="646" y="5"/>
      <point x="646" y="18" type="curve" smooth="yes"/>
      <point x="646" y="982" type="line" smooth="yes"/>
      <point x="646" y="995"/>
      <point x="603" y="1005"/>
      <point x="551" y="1005" type="curve" smooth="yes"/>
      <point x="498" y="1005"/>
      <point x="456" y="995"/>
      <point x="456" y="982" type="curve" smooth="yes"/>
    </contour>
  </outline>
</glyph>
<glyph name="f" format="1">
  <advance width="613"/>
  <unicode hex="0066"/>
  <outline>
    <contour>
      <point x="93" y="474" type="line"/>
      <point x="93" y="18" type="line" smooth="yes"/>
      <point x="93" y="5"/>
      <point x="136" y="-5"/>
      <point x="188" y="-5" type="curve" smooth="yes"/>
      <point x="241" y="-5"/>
      <point x="283" y="5"/>
      <point x="283" y="18" type="curve" smooth="yes"/>
      <point x="283" y="474" type="line"/>
      <point x="383" y="474" type="line" smooth="yes"/>
      <point x="397" y="474"/>
      <point x="409" y="514"/>
      <point x="409" y="562" type="curve" smooth="yes"/>
      <point x="409" y="611"/>
      <point x="397" y="650"/>
      <point x="383" y="650" type="curve" smooth="yes"/>
      <point x="283" y="650" type="line"/>
      <point x="283" y="752" type="line" smooth="yes"/>
      <point x="283" y="777"/>
      <point x="297" y="799"/>
      <point x="323" y="815" type="curve" smooth="yes"/>
      <point x="350" y="830"/>
      <point x="380" y="834"/>
      <point x="411" y="826" type="curve"/>
      <point x="424" y="821"/>
      <point x="448" y="855"/>
      <point x="464" y="901" type="curve" smooth="yes"/>
      <point x="480" y="947"/>
      <point x="482" y="988"/>
      <point x="469" y="993" type="curve"/>
      <point x="379" y="1019"/>
      <point x="289" y="1006"/>
      <point x="212" y="957" type="curve" smooth="yes"/>
      <point x="135" y="907"/>
      <point x="93" y="836"/>
      <point x="93" y="752" type="curve" smooth="yes"/>
      <point x="93" y="650" type="line"/>
      <point x="26" y="650" type="line" smooth="yes"/>
      <point x="11" y="650"/>
      <point x="0" y="611"/>
      <point x="0" y="562" type="curve" smooth="yes"/>
      <point x="0" y="514"/>
      <point x="11" y="474"/>
      <point x="26" y="474" type="curve" smooth="yes"/>
    </contour>
  </outline>
</glyph>
<glyph name="g" format="1">
  <advance width="781"/>
  <unicode hex="0067"/>
  <outline>
    <contour>
      <point x="456" y="40" type="curve"/>
      <point x="456" y="0" type="line"/>
      <point x="456" y="-23" type="line" smooth="yes"/>
      <point x="456" y="-82"/>
      <point x="396" y="-130"/>
      <point x="323" y="-130" type="curve" smooth="yes"/>
      <point x="272" y="-130"/>
      <point x="228" y="-116"/>
      <point x="195" y="-91" type="curve"/>
      <point x="186" y="-81"/>
      <point x="147" y="-97"/>
      <point x="108" y="-128" type="curve" smooth="yes"/>
      <point x="68" y="-158"/>
      <point x="42" y="-191"/>
      <point x="50" y="-203" type="curve"/>
      <point x="119" y="-270"/>
      <point x="213" y="-305"/>
      <point x="323" y="-305" type="curve" smooth="yes"/>
      <point x="501" y="-305"/>
      <point x="646" y="-179"/>
      <point x="646" y="-23" type="curve" smooth="yes"/>
      <point x="646" y="0" type="line"/>
      <point x="646" y="632" type="line" smooth="yes"/>
      <point x="646" y="645"/>
      <point x="603" y="655"/>
      <point x="551" y="655" type="curve" smooth="yes"/>
      <point x="498" y="655"/>
      <point x="456" y="645"/>
      <point x="456" y="632" type="curve" smooth="yes"/>
      <point x="456" y="610" type="line"/>
      <point x="417" y="639"/>
      <point x="373" y="655"/>
      <point x="325" y="655" type="curve" smooth="yes"/>
      <point x="146" y="655"/>
      <point x="0" y="507"/>
      <point x="0" y="325" type="curve" smooth="yes"/>
      <point x="0" y="143"/>
      <point x="146" y="-5"/>
      <point x="325" y="-5" type="curve" smooth="yes"/>
      <point x="373" y="-5"/>
      <point x="417" y="11"/>
    </contour>
    <contour>
      <point x="194" y="325" type="curve" smooth="yes"/>
      <point x="194" y="410"/>
      <point x="253" y="480"/>
      <point x="325" y="480" type="curve" smooth="yes"/>
      <point x="397" y="480"/>
      <point x="456" y="410"/>
      <point x="456" y="325" type="curve" smooth="yes"/>
      <point x="456" y="240"/>
      <point x="397" y="170"/>
      <point x="325" y="170" type="curve" smooth="yes"/>
      <point x="253" y="170"/>
      <point x="194" y="240"/>
    </contour>
  </outline>
</glyph>
<glyph name="h" format="1">
  <advance width="707"/>
  <unicode hex="0068"/>
  <outline>
    <contour>
      <point x="0" y="18" type="line" smooth="yes"/>
      <point x="0" y="5"/>
      <point x="43" y="-5"/>
      <point x="95" y="-5" type="curve" smooth="yes"/>
      <point x="147" y="-5"/>
      <point x="190" y="5"/>
      <point x="190" y="18" type="curve" smooth="yes"/>
      <point x="190" y="455" type="line"/>
      <point x="190" y="455"/>
      <point x="247" y="514"/>
      <point x="317" y="514" type="curve" smooth="yes"/>
      <point x="353" y="514"/>
      <point x="382" y="487"/>
      <point x="382" y="455" type="curve" smooth="yes"/>
      <point x="382" y="18" type="line" smooth="yes"/>
      <point x="382" y="5"/>
      <point x="425" y="-5"/>
      <point x="477" y="-5" type="curve" smooth="yes"/>
      <point x="529" y="-5"/>
      <point x="572" y="5"/>
      <point x="572" y="18" type="curve" smooth="yes"/>
      <point x="572" y="455" type="line" smooth="yes"/>
      <point x="572" y="563"/>
      <point x="475" y="650"/>
      <point x="355" y="650" type="curve" smooth="yes"/>
      <point x="293" y="650"/>
      <point x="236" y="627"/>
      <point x="190" y="596" type="curve"/>
      <point x="190" y="982" type="line" smooth="yes"/>
      <point x="190" y="995"/>
      <point x="147" y="1005"/>
      <point x="95" y="1005" type="curve" smooth="yes"/>
      <point x="43" y="1005"/>
      <point x="0" y="995"/>
      <point x="0" y="982" type="curve" smooth="yes"/>
    </contour>
  </outline>
</glyph>
<glyph name="i" format="1">
  <advance width="325"/>
  <unicode hex="0069"/>
  <outline>
    <contour>
      <point x="190" y="632" type="line" smooth="yes"/>
      <point x="190" y="645"/>
      <point x="147" y="655"/>
      <point x="95" y="655" type="curve" smooth="yes"/>
      <point x="43" y="655"/>
      <point x="0" y="645"/>
      <point x="0" y="632" type="curve" smooth="yes"/>
      <point x="0" y="18" type="line" smooth="yes"/>
      <point x="0" y="5"/>
      <point x="43" y="-5"/>
      <point x="95" y="-5" type="curve" smooth="yes"/>
      <point x="147" y="-5"/>
      <point x="190" y="5"/>
      <point x="190" y="18" type="curve" smooth="yes"/>
    </contour>
    <contour>
      <point x="190" y="907" type="line" smooth="yes"/>
      <point x="190" y="920"/>
      <point x="147" y="931"/>
      <point x="95" y="931" type="curve" smooth="yes"/>
      <point x="43" y="931"/>
      <point x="0" y="920"/>
      <point x="0" y="907" type="curve" smooth="yes"/>
      <point x="0" y="779" type="line" smooth="yes"/>
      <point x="0" y="766"/>
      <point x="43" y="755"/>
      <point x="95" y="755" type="curve" smooth="yes"/>
      <point x="147" y="755"/>
      <point x="190" y="766"/>
      <point x="190" y="779" type="curve" smooth="yes"/>
    </contour>
  </outline>
</glyph>
<glyph name="j" format="1">
  <advance width="546"/>
  <unicode hex="006A"/>
  <outline>
    <contour>
      <point x="411" y="632" type="line" smooth="yes"/>
      <point x="411" y="645"/>
      <point x="368" y="655"/>
      <point x="316" y="655" type="curve" smooth="yes"/>
      <point x="264" y="655"/>
      <point x="221" y="645"/>
      <point x="221" y="632" type="curve" smooth="yes"/>
      <point x="221" y="-117" type="line" smooth="yes"/>
      <point x="221" y="-122"/>
      <point x="209" y="-127"/>
      <point x="190" y="-129" type="curve" smooth="yes"/>
      <point x="171" y="-131"/>
      <point x="150" y="-130"/>
      <point x="135" y="-126" type="curve"/>
      <point x="126" y="-117"/>
      <point x="89" y="-136"/>
      <point x="52" y="-170" type="curve" smooth="yes"/>
      <point x="15" y="-204"/>
      <point x="-7" y="-239"/>
      <point x="2" y="-250" type="curve"/>
      <point x="72" y="-305"/>
      <point x="171" y="-321"/>
      <point x="263" y="-291" type="curve" smooth="yes"/>
      <point x="355" y="-261"/>
      <point x="411" y="-195"/>
      <point x="411" y="-117" type="curve" smooth="yes"/>
    </contour>
    <contour>
      <point x="411" y="907" type="line" smooth="yes"/>
      <point x="411" y="920"/>
      <point x="368" y="931"/>
      <point x="316" y="931" type="curve" smooth="yes"/>
      <point x="264" y="931"/>
      <point x="221" y="920"/>
      <point x="221" y="907" type="curve" smooth="yes"/>
      <point x="221" y="779" type="line" smooth="yes"/>
      <point x="221" y="766"/>
      <point x="264" y="755"/>
      <point x="316" y="755" type="curve" smooth="yes"/>
      <point x="368" y="755"/>
      <point x="411" y="766"/>
      <point x="411" y="779" type="curve" smooth="yes"/>
    </contour>
  </outline>
</glyph>
<glyph name="k" format="1">
  <advance width="730"/>
  <unicode hex="006B"/>
  <outline>
    <contour>
      <point x="0" y="18" type="line" smooth="yes"/>
      <point x="0" y="5"/>
      <point x="43" y="-5"/>
      <point x="95" y="-5" type="curve" smooth="yes"/>
      <point x="147" y="-5"/>
      <point x="190" y="5"/>
      <point x="190" y="18" type="curve" smooth="yes"/>
      <point x="190" y="191" type="line"/>
      <point x="246" y="237" type="line"/>
      <point x="452" y="-12" type="line" smooth="yes"/>
      <point x="460" y="-22"/>
      <point x="498" y="-5"/>
      <point x="537" y="27" type="curve" smooth="yes"/>
      <point x="575" y="59"/>
      <point x="600" y="93"/>
      <point x="591" y="103" type="curve" smooth="yes"/>
      <point x="385" y="353" type="line"/>
      <point x="591" y="523" type="line" smooth="yes"/>
      <point x="598" y="529"/>
      <point x="594" y="546"/>
      <point x="579" y="571" type="curve" smooth="yes"/>
      <point x="564" y="596"/>
      <point x="544" y="621"/>
      <point x="522" y="640" type="curve" smooth="yes"/>
      <point x="500" y="659"/>
      <point x="484" y="667"/>
      <point x="477" y="661" type="curve" smooth="yes"/>
      <point x="190" y="424" type="line"/>
      <point x="190" y="982" type="line" smooth="yes"/>
      <point x="190" y="995"/>
      <point x="147" y="1005"/>
      <point x="95" y="1005" type="curve" smooth="yes"/>
      <point x="43" y="1005"/>
      <point x="0" y="995"/>
      <point x="0" y="982" type="curve" smooth="yes"/>
    </contour>
  </outline>
</glyph>
<glyph name="m" format="1">
  <advance width="1089"/>
  <unicode hex="006D"/>
  <outline>
    <contour>
      <point x="0" y="18" type="line" smooth="yes"/>
      <point x="0" y="5"/>
      <point x="43" y="-5"/>
      <point x="95" y="-5" type="curve" smooth="yes"/>
      <point x="147" y="-5"/>
      <point x="190" y="5"/>
      <point x="190" y="18" type="curve" smooth="yes"/>
      <point x="190" y="455" type="line"/>
      <point x="190" y="455"/>
      <point x="247" y="514"/>
      <point x="317" y="514" type="curve" smooth="yes"/>
      <point x="353" y="514"/>
      <point x="382" y="487"/>
      <point x="382" y="455" type="curve" smooth="yes"/>
      <point x="382" y="18" type="line" smooth="yes"/>
      <point x="382" y="5"/>
      <point x="425" y="-5"/>
      <point x="477" y="-5" type="curve" smooth="yes"/>
      <point x="529" y="-5"/>
      <point x="572" y="5"/>
      <point x="572" y="18" type="curve" smooth="yes"/>
      <point x="572" y="455" type="line"/>
      <point x="572" y="455"/>
      <point x="629" y="514"/>
      <point x="699" y="514" type="curve" smooth="yes"/>
      <point x="735" y="514"/>
      <point x="764" y="487"/>
      <point x="764" y="455" type="curve" smooth="yes"/>
      <point x="764" y="18" type="line" smooth="yes"/>
      <point x="764" y="5"/>
      <point x="807" y="-5"/>
      <point x="859" y="-5" type="curve" smooth="yes"/>
      <point x="911" y="-5"/>
      <point x="954" y="5"/>
      <point x="954" y="18" type="curve" smooth="yes"/>
      <point x="954" y="455" type="line" smooth="yes"/>
      <point x="954" y="563"/>
      <point x="857" y="650"/>
      <point x="737" y="650" type="curve" smooth="yes"/>
      <point x="657" y="650"/>
      <point x="584" y="611"/>
      <point x="533" y="567" type="curve"/>
      <point x="494" y="617"/>
      <point x="429" y="650"/>
      <point x="355" y="650" type="curve" smooth="yes"/>
      <point x="293" y="650"/>
      <point x="236" y="627"/>
      <point x="190" y="596" type="curve"/>
      <point x="190" y="632" type="line" smooth="yes"/>
      <point x="190" y="645"/>
      <point x="147" y="655"/>
      <point x="95" y="655" type="curve" smooth="yes"/>
      <point x="43" y="655"/>
      <point x="0" y="645"/>
      <point x="0" y="632" type="curve" smooth="yes"/>
    </contour>
  </outline>
</glyph>
<glyph name="o" format="1">
  <advance width="785"/>
  <unicode hex="006F"/>
  <outline>
    <contour>
      <point x="0" y="325" type="curve" smooth="yes"/>
      <point x="0" y="143"/>
      <point x="146" y="-5"/>
      <point x="325" y="-5" type="curve" smooth="yes"/>
      <point x="504" y="-5"/>
      <point x="650" y="143"/>
      <point x="650" y="325" type="curve" smooth="yes"/>
      <point x="650" y="507"/>
      <point x="504" y="655"/>
      <point x="325" y="655" type="curve" smooth="yes"/>
      <point x="146" y="655"/>
      <point x="0" y="507"/>
    </contour>
    <contour>
      <point x="194" y="325" type="curve" smooth="yes"/>
      <point x="194" y="410"/>
      <point x="253" y="480"/>
      <point x="325" y="480" type="curve" smooth="yes"/>
      <point x="397" y="480"/>
      <point x="456" y="410"/>
      <point x="456" y="325" type="curve" smooth="yes"/>
      <point x="456" y="240"/>
      <point x="397" y="170"/>
      <point x="325" y="170" type="curve" smooth="yes"/>
      <point x="253" y="170"/>
      <point x="194" y="240"/>
    </contour>
  </outline>
</glyph>
<glyph name="p" format="1">
  <advance width="781"/>
  <unicode hex="0070"/>
  <outline>
    <contour>
      <point x="190" y="325" type="curve" smooth="yes"/>
      <point x="190" y="410"/>
      <point x="249" y="480"/>
      <point x="321" y="480" type="curve" smooth="yes"/>
      <point x="393" y="480"/>
      <point x="452" y="410"/>
      <point x="452" y="325" type="curve" smooth="yes"/>
      <point x="452" y="240"/>
      <point x="393" y="170"/>
      <point x="321" y="170" type="curve" smooth="yes"/>
      <point x="249" y="170"/>
      <point x="190" y="240"/>
    </contour>
    <contour>
      <point x="190" y="40" type="line"/>
      <point x="228" y="11"/>
      <point x="273" y="-5"/>
      <point x="321" y="-5" type="curve" smooth="yes"/>
      <point x="500" y="-5"/>
      <point x="646" y="143"/>
      <point x="646" y="325" type="curve" smooth="yes"/>
      <point x="646" y="507"/>
      <point x="500" y="655"/>
      <point x="321" y="655" type="curve" smooth="yes"/>
      <point x="273" y="655"/>
      <point x="228" y="639"/>
      <point x="190" y="610" type="curve"/>
      <point x="190" y="632" type="line" smooth="yes"/>
      <point x="190" y="645"/>
      <point x="147" y="655"/>
      <point x="95" y="655" type="curve" smooth="yes"/>
      <point x="43" y="655"/>
      <point x="0" y="645"/>
      <point x="0" y="632" type="curve" smooth="yes"/>
      <point x="0" y="-282" type="line" smooth="yes"/>
      <point x="0" y="-295"/>
      <point x="43" y="-305"/>
      <point x="95" y="-305" type="curve" smooth="yes"/>
      <point x="147" y="-305"/>
      <point x="190" y="-295"/>
      <point x="190" y="-282" type="curve" smooth="yes"/>
    </contour>
  </outline>
</glyph>
<glyph name="r" format="1">
  <advance width="541"/>
  <unicode hex="0072"/>
  <outline>
    <contour>
      <point x="0" y="18" type="line" smooth="yes"/>
      <point x="0" y="5"/>
      <point x="43" y="-5"/>
      <point x="95" y="-5" type="curve" smooth="yes"/>
      <point x="147" y="-5"/>
      <point x="190" y="5"/>
      <point x="190" y="18" type="curve" smooth="yes"/>
      <point x="190" y="364" type="line" smooth="yes"/>
      <point x="190" y="425"/>
      <point x="275" y="474"/>
      <point x="380" y="474" type="curve" smooth="yes"/>
      <point x="394" y="474"/>
      <point x="406" y="514"/>
      <point x="406" y="562" type="curve" smooth="yes"/>
      <point x="406" y="611"/>
      <point x="394" y="650"/>
      <point x="380" y="650" type="curve" smooth="yes"/>
      <point x="275" y="650"/>
      <point x="190" y="601"/>
      <point x="190" y="540" type="curve"/>
      <point x="190" y="632" type="line" smooth="yes"/>
      <point x="190" y="645"/>
      <point x="147" y="655"/>
      <point x="95" y="655" type="curve" smooth="yes"/>
      <point x="43" y="655"/>
      <point x="0" y="645"/>
      <point x="0" y="632" type="curve" smooth="yes"/>
    </contour>
  </outline>
</glyph>
<glyph name="t" format="1">
  <advance width="544"/>
  <unicode hex="0074"/>
  <outline>
    <contour>
      <point x="93" y="650" type="line"/>
      <point x="26" y="650" type="line" smooth="yes"/>
      <point x="11" y="650"/>
      <point x="0" y="611"/>
      <point x="0" y="562" type="curve" smooth="yes"/>
      <point x="0" y="514"/>
      <point x="11" y="474"/>
      <point x="26" y="474" type="curve" smooth="yes"/>
      <point x="93" y="474" type="line"/>
      <point x="93" y="201" type="line" smooth="yes"/>
      <point x="93" y="132"/>
      <point x="125" y="74"/>
      <point x="185" y="34" type="curve" smooth="yes"/>
      <point x="245" y="-6"/>
      <point x="314" y="-16"/>
      <point x="384" y="5" type="curve"/>
      <point x="397" y="10"/>
      <point x="395" y="51"/>
      <point x="379" y="97" type="curve" smooth="yes"/>
      <point x="363" y="143"/>
      <point x="339" y="176"/>
      <point x="326" y="172" type="curve" smooth="yes"/>
      <point x="315" y="169"/>
      <point x="305" y="170"/>
      <point x="297" y="176" type="curve"/>
      <point x="288" y="182"/>
      <point x="283" y="191"/>
      <point x="283" y="201" type="curve" smooth="yes"/>
      <point x="283" y="474" type="line"/>
      <point x="383" y="474" type="line" smooth="yes"/>
      <point x="397" y="474"/>
      <point x="409" y="514"/>
      <point x="409" y="562" type="curve" smooth="yes"/>
      <point x="409" y="611"/>
      <point x="397" y="650"/>
      <point x="383" y="650" type="curve" smooth="yes"/>
      <point x="283" y="650" type="line"/>
      <point x="283" y="827" type="line" smooth="yes"/>
      <point x="283" y="840"/>
      <point x="241" y="850"/>
      <point x="188" y="850" type="curve" smooth="yes"/>
      <point x="136" y="850"/>
      <point x="93" y="840"/>
      <point x="93" y="827" type="curve" smooth="yes"/>
    </contour>
  </outline>
</glyph>
<glyph name="v" format="1">
  <advance width="750"/>
  <unicode hex="0076"/>
  <outline>
    <contour>
      <point x="200" y="17" type="line"/>
      <point x="209" y="4"/>
      <point x="251" y="-5"/>
      <point x="303" y="-5" type="curve" smooth="yes"/>
      <point x="354" y="-5"/>
      <point x="397" y="4"/>
      <point x="406" y="16" type="curve"/>
      <point x="615" y="618" type="line" smooth="yes"/>
      <point x="619" y="631"/>
      <point x="581" y="647"/>
      <point x="529" y="653" type="curve" smooth="yes"/>
      <point x="478" y="660"/>
      <point x="433" y="656"/>
      <point x="428" y="643" type="curve"/>
      <point x="305" y="261" type="line"/>
      <point x="187" y="643" type="line" smooth="yes"/>
      <point x="183" y="655"/>
      <point x="137" y="660"/>
      <point x="86" y="654" type="curve" smooth="yes"/>
      <point x="34" y="647"/>
      <point x="-4" y="631"/>
      <point x="0" y="619" type="curve" smooth="yes"/>
    </contour>
  </outline>
</glyph>
<glyph name="w" format="1">
  <advance width="1081"/>
  <unicode hex="0077"/>
  <outline>
    <contour>
      <point x="175" y="17" type="line"/>
      <point x="183" y="4"/>
      <point x="227" y="-5"/>
      <point x="279" y="-5" type="curve" smooth="yes"/>
      <point x="331" y="-5"/>
      <point x="374" y="4"/>
      <point x="382" y="17" type="curve"/>
      <point x="473" y="355" type="line"/>
      <point x="563" y="17" type="line"/>
      <point x="571" y="4"/>
      <point x="614" y="-5"/>
      <point x="666" y="-5" type="curve" smooth="yes"/>
      <point x="719" y="-5"/>
      <point x="762" y="4"/>
      <point x="770" y="17" type="curve"/>
      <point x="945" y="620" type="line" smooth="yes"/>
      <point x="949" y="633"/>
      <point x="910" y="648"/>
      <point x="858" y="654" type="curve" smooth="yes"/>
      <point x="806" y="660"/>
      <point x="762" y="654"/>
      <point x="758" y="642" type="curve"/>
      <point x="666" y="298" type="line"/>
      <point x="576" y="633" type="line"/>
      <point x="568" y="646"/>
      <point x="525" y="655"/>
      <point x="473" y="655" type="curve" smooth="yes"/>
      <point x="420" y="655"/>
      <point x="377" y="646"/>
      <point x="369" y="633" type="curve"/>
      <point x="279" y="298" type="line"/>
      <point x="187" y="642" type="line" smooth="yes"/>
      <point x="184" y="654"/>
      <point x="139" y="660"/>
      <point x="87" y="654" type="curve" smooth="yes"/>
      <point x="35" y="648"/>
      <point x="-3" y="633"/>
      <point x="0" y="620" type="curve"/>
    </contour>
  </outline>
</glyph>
<glyph name="x" format="1">
  <advance width="750"/>
  <unicode hex="0078"/>
  <outline>
    <contour>
      <point x="307" y="186" type="line"/>
      <point x="426" y="14" type="line" smooth="yes"/>
      <point x="435" y="2"/>
      <point x="484" y="-7"/>
      <point x="535" y="-5" type="curve" smooth="yes"/>
      <point x="587" y="-3"/>
      <point x="622" y="10"/>
      <point x="613" y="23" type="curve" smooth="yes"/>
      <point x="404" y="325" type="line"/>
      <point x="613" y="627" type="line" smooth="yes"/>
      <point x="622" y="640"/>
      <point x="587" y="653"/>
      <point x="535" y="655" type="curve" smooth="yes"/>
      <point x="484" y="657"/>
      <point x="435" y="648"/>
      <point x="426" y="636" type="curve" smooth="yes"/>
      <point x="307" y="464" type="line"/>
      <point x="189" y="636" type="line" smooth="yes"/>
      <point x="180" y="648"/>
      <point x="130" y="657"/>
      <point x="79" y="655" type="curve" smooth="yes"/>
      <point x="27" y="653"/>
      <point x="-8" y="640"/>
      <point x="1" y="627" type="curve" smooth="yes"/>
      <point x="211" y="325" type="line"/>
      <point x="1" y="23" type="line" smooth="yes"/>
      <point x="-8" y="10"/>
      <point x="27" y="-3"/>
      <point x="79" y="-5" type="curve" smooth="yes"/>
      <point x="130" y="-7"/>
      <point x="180" y="2"/>
      <point x="189" y="14" type="curve" smooth="yes"/>
    </contour>
  </outline>
</glyph>
<glyph name="y" format="1">
  <advance width="743"/>
  <unicode hex="0079"/>
  <outline>
    <contour>
      <point x="68" y="-258" type="line" smooth="yes"/>
      <point x="63" y="-270"/>
      <point x="100" y="-289"/>
      <point x="150" y="-301" type="curve" smooth="yes"/>
      <point x="200" y="-312"/>
      <point x="245" y="-311"/>
      <point x="250" y="-299" type="curve" smooth="yes"/>
      <point x="607" y="608" type="line" smooth="yes"/>
      <point x="610" y="616"/>
      <point x="596" y="627"/>
      <point x="569" y="638" type="curve" smooth="yes"/>
      <point x="542" y="648"/>
      <point x="509" y="656"/>
      <point x="478" y="658" type="curve" smooth="yes"/>
      <point x="447" y="661"/>
      <point x="428" y="657"/>
      <point x="425" y="649" type="curve" smooth="yes"/>
      <point x="304" y="341" type="line"/>
      <point x="183" y="649" type="line" smooth="yes"/>
      <point x="178" y="661"/>
      <point x="133" y="662"/>
      <point x="83" y="651" type="curve" smooth="yes"/>
      <point x="32" y="639"/>
      <point x="-4" y="620"/>
      <point x="0" y="608" type="curve"/>
      <point x="204" y="89" type="line"/>
    </contour>
  </outline>
</glyph>
<glyph name="z" format="1">
  <advance width="750"/>
  <unicode hex="007A"/>
  <outline>
    <contour>
      <point x="589" y="0" type="line" smooth="yes"/>
      <point x="603" y="0"/>
      <point x="614" y="39"/>
      <point x="614" y="88" type="curve" smooth="yes"/>
      <point x="614" y="136"/>
      <point x="603" y="176"/>
      <point x="589" y="176" type="curve" smooth="yes"/>
      <point x="274" y="176" type="line"/>
      <point x="593" y="460" type="line" smooth="yes"/>
      <point x="607" y="472"/>
      <point x="616" y="517"/>
      <point x="614" y="566" type="curve" smooth="yes"/>
      <point x="612" y="614"/>
      <point x="600" y="650"/>
      <point x="586" y="650" type="curve" smooth="yes"/>
      <point x="26" y="650" type="line" smooth="yes"/>
      <point x="12" y="650"/>
      <point x="0" y="611"/>
      <point x="0" y="562" type="curve" smooth="yes"/>
      <point x="0" y="514"/>
      <point x="12" y="474"/>
      <point x="26" y="474" type="curve" smooth="yes"/>
      <point x="340" y="474" type="line"/>
      <point x="21" y="190" type="line" smooth="yes"/>
      <point x="7" y="178"/>
      <point x="-2" y="133"/>
      <point x="0" y="84" type="curve" smooth="yes"/>
      <point x="2" y="36"/>
      <point x="14" y="0"/>
      <point x="28" y="0" type="curve" smooth="yes"/>
    </contour>
  </outline>
</glyph>
<glyph name="braceleft" format="1">
  <advance width="587"/>
  <unicode hex="007B"/>
  <outline>
    <contour>
      <point x="148" y="500" type="curve"/>
      <point x="221" y="533"/>
      <point x="279" y="597"/>
      <point x="279" y="689" type="curve" smooth="yes"/>
      <point x="279" y="778" type="line" smooth="yes"/>
      <point x="279" y="859"/>
      <point x="345" y="924"/>
      <point x="426" y="924" type="curve" smooth="yes"/>
      <point x="440" y="924"/>
      <point x="451" y="964"/>
      <point x="451" y="1012" type="curve" smooth="yes"/>
      <point x="451" y="1061"/>
      <point x="440" y="1100"/>
      <point x="426" y="1100" type="curve" smooth="yes"/>
      <point x="248" y="1100"/>
      <point x="127" y="943"/>
      <point x="127" y="778" type="curve" smooth="yes"/>
      <point x="127" y="689" type="line" smooth="yes"/>
      <point x="127" y="633"/>
      <point x="82" y="588"/>
      <point x="26" y="588" type="curve" smooth="yes"/>
      <point x="11" y="588"/>
      <point x="0" y="549"/>
      <point x="0" y="500" type="curve" smooth="yes"/>
      <point x="0" y="451"/>
      <point x="11" y="412"/>
      <point x="26" y="412" type="curve" smooth="yes"/>
      <point x="82" y="412"/>
      <point x="127" y="367"/>
      <point x="127" y="311" type="curve" smooth="yes"/>
      <point x="127" y="222" type="line" smooth="yes"/>
      <point x="127" y="57"/>
      <point x="248" y="-100"/>
      <point x="426" y="-100" type="curve" smooth="yes"/>
      <point x="440" y="-100"/>
      <point x="451" y="-61"/>
      <point x="451" y="-12" type="curve" smooth="yes"/>
      <point x="451" y="36"/>
      <point x="440" y="76"/>
      <point x="426" y="76" type="curve" smooth="yes"/>
      <point x="345" y="76"/>
      <point x="279" y="141"/>
      <point x="279" y="222" type="curve" smooth="yes"/>
      <point x="279" y="311" type="line" smooth="yes"/>
      <point x="279" y="403"/>
      <point x="221" y="467"/>
    </contour>
  </outline>
</glyph>
<glyph name="bar" format="1">
  <advance width="325"/>
  <unicode hex="007C"/>
  <outline>
    <contour>
      <point x="190" y="1082" type="line" smooth="yes"/>
      <point x="190" y="1095"/>
      <point x="147" y="1105"/>
      <point x="95" y="1105" type="curve" smooth="yes"/>
      <point x="43" y="1105"/>
      <point x="0" y="1095"/>
      <point x="0" y="1082" type="curve" smooth="yes"/>
      <point x="0" y="-82" type="line" smooth="yes"/>
      <point x="0" y="-95"/>
      <point x="43" y="-105"/>
      <point x="95" y="-105" type="curve" smooth="yes"/>
      <point x="147" y="-105"/>
      <point x="190" y="-95"/>
      <point x="190" y="-82" type="curve" smooth="yes"/>
    </contour>
  </outline>
</glyph>
<glyph name="braceright" format="1">
  <advance width="587"/>
  <unicode hex="007D"/>
  <outline>
    <contour>
      <point x="276" y="500" type="curve"/>
      <point x="218" y="471"/>
      <point x="172" y="420"/>
      <point x="172" y="345" type="curve" smooth="yes"/>
      <point x="172" y="188" type="line" smooth="yes"/>
      <point x="172" y="126"/>
      <point x="122" y="76"/>
      <point x="60" y="76" type="curve" smooth="yes"/>
      <point x="27" y="76"/>
      <point x="0" y="36"/>
      <point x="0" y="-12" type="curve" smooth="yes"/>
      <point x="0" y="-61"/>
      <point x="27" y="-100"/>
      <point x="60" y="-100" type="curve" smooth="yes"/>
      <point x="219" y="-100"/>
      <point x="324" y="42"/>
      <point x="324" y="188" type="curve" smooth="yes"/>
      <point x="324" y="345" type="line" smooth="yes"/>
      <point x="324" y="382"/>
      <point x="354" y="412"/>
      <point x="392" y="412" type="curve" smooth="yes"/>
      <point x="425" y="412"/>
      <point x="451" y="451"/>
      <point x="451" y="500" type="curve" smooth="yes"/>
      <point x="451" y="549"/>
      <point x="425" y="588"/>
      <point x="392" y="588" type="curve" smooth="yes"/>
      <point x="354" y="588"/>
      <point x="324" y="618"/>
      <point x="324" y="655" type="curve" smooth="yes"/>
      <point x="324" y="812" type="line" smooth="yes"/>
      <point x="324" y="958"/>
      <point x="219" y="1100"/>
      <point x="60" y="1100" type="curve" smooth="yes"/>
      <point x="27" y="1100"/>
      <point x="0" y="1061"/>
      <point x="0" y="1012" type="curve" smooth="yes"/>
      <point x="0" y="964"/>
      <point x="27" y="924"/>
      <point x="60" y="924" type="curve" smooth="yes"/>
      <point x="122" y="924"/>
      <point x="172" y="874"/>
      <point x="172" y="812" type="curve" smooth="yes"/>
      <point x="172" y="655" type="line" smooth="yes"/>
      <point x="172" y="580"/>
      <point x="218" y="529"/>
    </contour>
  </outline>
</glyph>
<glyph name="asciitilde" format="1">
  <advance width="694"/>
  <unicode hex="007E"/>
  <outline>
    <contour>
      <point x="139" y="447" type="curve"/>
      <point x="163" y="492"/>
      <point x="220" y="445"/>
      <point x="238" y="435" type="curve" smooth="yes"/>
      <point x="339" y="380"/>
      <point x="492" y="376"/>
      <point x="558" y="497" type="curve" smooth="yes"/>
      <point x="562" y="504"/>
      <point x="552" y="516"/>
      <point x="532" y="532" type="curve" smooth="yes"/>
      <point x="512" y="547"/>
      <point x="487" y="561"/>
      <point x="463" y="570" type="curve" smooth="yes"/>
      <point x="440" y="578"/>
      <point x="424" y="580"/>
      <point x="420" y="573" type="curve" smooth="yes"/>
      <point x="396" y="528"/>
      <point x="339" y="575"/>
      <point x="321" y="585" type="curve" smooth="yes"/>
      <point x="220" y="640"/>
      <point x="67" y="644"/>
      <point x="1" y="523" type="curve" smooth="yes"/>
      <point x="-5" y="513"/>
      <point x="22" y="488"/>
      <point x="60" y="467" type="curve" smooth="yes"/>
      <point x="98" y="446"/>
      <point x="133" y="437"/>
    </contour>
  </outline>
</glyph>
<glyph name="exclamdown" format="1">
  <advance width="339"/>
  <unicode hex="00A1"/>
  <outline>
    <contour>
      <point x="203" y="839" type="curve" smooth="yes"/>
      <point x="203" y="980" type="line" smooth="yes"/>
      <point x="203" y="994"/>
      <point x="158" y="1005"/>
      <point x="102" y="1005" type="curve" smooth="yes"/>
      <point x="46" y="1005"/>
      <point x="0" y="994"/>
      <point x="0" y="980" type="curve" smooth="yes"/>
      <point x="0" y="839" type="line" smooth="yes"/>
      <point x="0" y="825"/>
      <point x="46" y="814"/>
      <point x="102" y="814" type="curve" smooth="yes"/>
      <point x="158" y="814"/>
      <point x="203" y="825"/>
    </contour>
    <contour>
      <point x="203" y="20" type="curve" smooth="yes"/>
      <point x="190" y="662" type="line" smooth="yes"/>
      <point x="190" y="674"/>
      <point x="150" y="684"/>
      <point x="102" y="684" type="curve" smooth="yes"/>
      <point x="53" y="684"/>
      <point x="13" y="674"/>
      <point x="13" y="662" type="curve" smooth="yes"/>
      <point x="0" y="20" type="line" smooth="yes"/>
      <point x="0" y="6"/>
      <point x="46" y="-5"/>
      <point x="102" y="-5" type="curve" smooth="yes"/>
      <point x="158" y="-5"/>
      <point x="203" y="6"/>
    </contour>
  </outline>
</glyph>
<glyph name="dieresis" format="1">
  <advance width="672"/>
  <unicode hex="00A8"/>
  <outline>
    <contour>
      <point x="190" y="982" type="line" smooth="yes"/>
      <point x="190" y="995"/>
      <point x="147" y="1005"/>
      <point x="95" y="1005" type="curve" smooth="yes"/>
      <point x="43" y="1005"/>
      <point x="0" y="995"/>
      <point x="0" y="982" type="curve" smooth="yes"/>
      <point x="0" y="853" type="line" smooth="yes"/>
      <point x="0" y="840"/>
      <point x="43" y="830"/>
      <point x="95" y="830" type="curve" smooth="yes"/>
      <point x="147" y="830"/>
      <point x="190" y="840"/>
      <point x="190" y="853" type="curve" smooth="yes"/>
    </contour>
    <contour>
      <point x="537" y="982" type="line" smooth="yes"/>
      <point x="537" y="995"/>
      <point x="494" y="1005"/>
      <point x="442" y="1005" type="curve" smooth="yes"/>
      <point x="389" y="1005"/>
      <point x="347" y="995"/>
      <point x="347" y="982" type="curve" smooth="yes"/>
      <point x="347" y="853" type="line" smooth="yes"/>
      <point x="347" y="840"/>
      <point x="389" y="830"/>
      <point x="442" y="830" type="curve" smooth="yes"/>
      <point x="494" y="830"/>
      <point x="537" y="840"/>
      <point x="537" y="853" type="curve" smooth="yes"/>
    </contour>
  </outline>
</glyph>
<glyph name="macron" format="1">
  <advance width="635"/>
  <unicode hex="00AF"/>
  <outline>
    <contour>
      <point x="474" y="799" type="line" smooth="yes"/>
      <point x="489" y="799"/>
      <point x="500" y="839"/>
      <point x="500" y="887" type="curve" smooth="yes"/>
      <point x="500" y="936"/>
      <point x="489" y="975"/>
      <point x="474" y="975" type="curve" smooth="yes"/>
      <point x="26" y="975" type="line" smooth="yes"/>
      <point x="11" y="975"/>
      <point x="0" y="936"/>
      <point x="0" y="887" type="curve" smooth="yes"/>
      <point x="0" y="839"/>
      <point x="11" y="799"/>
      <point x="26" y="799" type="curve" smooth="yes"/>
    </contour>
  </outline>
</glyph>
<glyph name="acute" format="1">
  <advance width="396"/>
  <unicode hex="00B4"/>
  <outline>
    <contour>
      <point x="136" y="1003" type="curve" smooth="yes"/>
      <point x="1" y="852" type="line" smooth="yes"/>
      <point x="-4" y="846"/>
      <point x="8" y="819"/>
      <point x="31" y="793" type="curve" smooth="yes"/>
      <point x="53" y="766"/>
      <point x="76" y="748"/>
      <point x="84" y="753" type="curve" smooth="yes"/>
      <point x="257" y="857" type="line"/>
      <point x="265" y="861"/>
      <point x="260" y="879"/>
      <point x="244" y="906" type="curve" smooth="yes"/>
      <point x="228" y="933"/>
      <point x="205" y="960"/>
      <point x="182" y="981" type="curve" smooth="yes"/>
      <point x="159" y="1002"/>
      <point x="142" y="1010"/>
    </contour>
  </outline>
</glyph>
<glyph name="periodcentered" format="1">
  <advance width="344"/>
  <unicode hex="00B7"/>
  <outline>
    <contour>
      <point x="209" y="542" type="line" smooth="yes"/>
      <point x="209" y="575"/>
      <point x="162" y="602"/>
      <point x="105" y="602" type="curve" smooth="yes"/>
      <point x="47" y="602"/>
      <point x="0" y="575"/>
      <point x="0" y="542" type="curve" smooth="yes"/>
      <point x="0" y="458" type="line" smooth="yes"/>
      <point x="0" y="425"/>
      <point x="47" y="398"/>
      <point x="105" y="398" type="curve" smooth="yes"/>
      <point x="162" y="398"/>
      <point x="209" y="425"/>
      <point x="209" y="458" type="curve" smooth="yes"/>
    </contour>
  </outline>
</glyph>
<glyph name="Agrave" format="1">
  <advance width="993"/>
  <unicode hex="00C0"/>
  <outline>
    <contour>
      <point x="320" y="408" type="line"/>
      <point x="429" y="735" type="line"/>
      <point x="537" y="408" type="line"/>
    </contour>
    <contour>
      <point x="668" y="17" type="line" smooth="yes"/>
      <point x="672" y="3"/>
      <point x="718" y="-6"/>
      <point x="770" y="-5" type="curve" smooth="yes"/>
      <point x="823" y="-4"/>
      <point x="861" y="7"/>
      <point x="857" y="20" type="curve" smooth="yes"/>
      <point x="538" y="980" type="line" smooth="yes"/>
      <point x="533" y="994"/>
      <point x="486" y="1005"/>
      <point x="429" y="1005" type="curve" smooth="yes"/>
      <point x="372" y="1005"/>
      <point x="325" y="994"/>
      <point x="320" y="980" type="curve" smooth="yes"/>
      <point x="0" y="20" type="line" smooth="yes"/>
      <point x="-3" y="12"/>
      <point x="12" y="4"/>
      <point x="41" y="-1" type="curve" smooth="yes"/>
      <point x="70" y="-6"/>
      <point x="104" y="-7"/>
      <point x="136" y="-3" type="curve" smooth="yes"/>
      <point x="167" y="1"/>
      <point x="187" y="8"/>
      <point x="190" y="17" type="curve" smooth="yes"/>
      <point x="261" y="232" type="line"/>
      <point x="596" y="232" type="line"/>
    </contour>
    <contour>
      <point x="357" y="1335" type="line" smooth="yes"/>
      <point x="351" y="1342"/>
      <point x="334" y="1334"/>
      <point x="311" y="1313" type="curve" smooth="yes"/>
      <point x="288" y="1292"/>
      <point x="265" y="1265"/>
      <point x="249" y="1238" type="curve" smooth="yes"/>
      <point x="233" y="1211"/>
      <point x="228" y="1193"/>
      <point x="236" y="1189" type="curve"/>
      <point x="409" y="1085" type="line" smooth="yes"/>
      <point x="417" y="1080"/>
      <point x="440" y="1098"/>
      <point x="462" y="1125" type="curve" smooth="yes"/>
      <point x="485" y="1151"/>
      <point x="497" y="1178"/>
      <point x="492" y="1184" type="curve" smooth="yes"/>
    </contour>
  </outline>
</glyph>
<glyph name="Aacute" format="1">
  <advance width="993"/>
  <unicode hex="00C1"/>
  <outline>
    <contour>
      <point x="320" y="408" type="line"/>
      <point x="429" y="735" type="line"/>
      <point x="537" y="408" type="line"/>
    </contour>
    <contour>
      <point x="668" y="17" type="line" smooth="yes"/>
      <point x="672" y="3"/>
      <point x="718" y="-6"/>
      <point x="770" y="-5" type="curve" smooth="yes"/>
      <point x="823" y="-4"/>
      <point x="861" y="7"/>
      <point x="857" y="20" type="curve" smooth="yes"/>
      <point x="538" y="980" type="line" smooth="yes"/>
      <point x="533" y="994"/>
      <point x="486" y="1005"/>
      <point x="429" y="1005" type="curve" smooth="yes"/>
      <point x="372" y="1005"/>
      <point x="325" y="994"/>
      <point x="320" y="980" type="curve" smooth="yes"/>
      <point x="0" y="20" type="line" smooth="yes"/>
      <point x="-3" y="12"/>
      <point x="12" y="4"/>
      <point x="41" y="-1" type="curve" smooth="yes"/>
      <point x="70" y="-6"/>
      <point x="104" y="-7"/>
      <point x="136" y="-3" type="curve" smooth="yes"/>
      <point x="167" y="1"/>
      <point x="187" y="8"/>
      <point x="190" y="17" type="curve" smooth="yes"/>
      <point x="261" y="232" type="line"/>
      <point x="596" y="232" type="line"/>
    </contour>
    <contour>
      <point x="502" y="1335" type="curve" smooth="yes"/>
      <point x="367" y="1184" type="line" smooth="yes"/>
      <point x="362" y="1178"/>
      <point x="374" y="1151"/>
      <point x="397" y="1125" type="curve" smooth="yes"/>
      <point x="419" y="1098"/>
      <point x="442" y="1080"/>
      <point x="450" y="1085" type="curve" smooth="yes"/>
      <point x="623" y="1189" type="line"/>
      <point x="631" y="1193"/>
      <point x="626" y="1211"/>
      <point x="610" y="1238" type="curve" smooth="yes"/>
      <point x="594" y="1265"/>
      <point x="571" y="1292"/>
      <point x="548" y="1313" type="curve" smooth="yes"/>
      <point x="525" y="1334"/>
      <point x="508" y="1342"/>
    </contour>
  </outline>
</glyph>
<glyph name="Acircumflex" format="1">
  <advance width="993"/>
  <unicode hex="00C2"/>
  <outline>
    <contour>
      <point x="320" y="408" type="line"/>
      <point x="429" y="735" type="line"/>
      <point x="537" y="408" type="line"/>
    </contour>
    <contour>
      <point x="668" y="17" type="line" smooth="yes"/>
      <point x="672" y="3"/>
      <point x="718" y="-6"/>
      <point x="770" y="-5" type="curve" smooth="yes"/>
      <point x="823" y="-4"/>
      <point x="861" y="7"/>
      <point x="857" y="20" type="curve" smooth="yes"/>
      <point x="538" y="980" type="line" smooth="yes"/>
      <point x="533" y="994"/>
      <point x="486" y="1005"/>
      <point x="429" y="1005" type="curve" smooth="yes"/>
      <point x="372" y="1005"/>
      <point x="325" y="994"/>
      <point x="320" y="980" type="curve" smooth="yes"/>
      <point x="0" y="20" type="line" smooth="yes"/>
      <point x="-3" y="12"/>
      <point x="12" y="4"/>
      <point x="41" y="-1" type="curve" smooth="yes"/>
      <point x="70" y="-6"/>
      <point x="104" y="-7"/>
      <point x="136" y="-3" type="curve" smooth="yes"/>
      <point x="167" y="1"/>
      <point x="187" y="8"/>
      <point x="190" y="17" type="curve" smooth="yes"/>
      <point x="261" y="232" type="line"/>
      <point x="596" y="232" type="line"/>
    </contour>
    <contour>
      <point x="200" y="1187" type="line" smooth="yes"/>
      <point x="197" y="1183"/>
      <point x="198" y="1177"/>
      <point x="204" y="1167" type="curve"/>
      <point x="221" y="1143"/>
      <point x="267" y="1109"/>
      <point x="306" y="1092" type="curve" smooth="yes"/>
      <point x="330" y="1082"/>
      <point x="346" y="1080"/>
      <point x="351" y="1086" type="curve" smooth="yes"/>
      <point x="429" y="1184" type="line"/>
      <point x="508" y="1086" type="line" smooth="yes"/>
      <point x="513" y="1080"/>
      <point x="529" y="1082"/>
      <point x="553" y="1092" type="curve" smooth="yes"/>
      <point x="592" y="1109"/>
      <point x="637" y="1143"/>
      <point x="654" y="1167" type="curve" smooth="yes"/>
      <point x="661" y="1177"/>
      <point x="662" y="1183"/>
      <point x="659" y="1187" type="curve" smooth="yes"/>
      <point x="537" y="1340" type="line" smooth="yes"/>
      <point x="527" y="1353"/>
      <point x="482" y="1362"/>
      <point x="429" y="1362" type="curve" smooth="yes"/>
      <point x="377" y="1362"/>
      <point x="332" y="1353"/>
      <point x="322" y="1340" type="curve" smooth="yes"/>
    </contour>
  </outline>
</glyph>
<glyph name="Atilde" format="1">
  <advance width="993"/>
  <unicode hex="00C3"/>
  <outline>
    <contour>
      <point x="320" y="408" type="line"/>
      <point x="429" y="735" type="line"/>
      <point x="537" y="408" type="line"/>
    </contour>
    <contour>
      <point x="668" y="17" type="line" smooth="yes"/>
      <point x="672" y="3"/>
      <point x="718" y="-6"/>
      <point x="770" y="-5" type="curve" smooth="yes"/>
      <point x="823" y="-4"/>
      <point x="861" y="7"/>
      <point x="857" y="20" type="curve" smooth="yes"/>
      <point x="538" y="980" type="line" smooth="yes"/>
      <point x="533" y="994"/>
      <point x="486" y="1005"/>
      <point x="429" y="1005" type="curve" smooth="yes"/>
      <point x="372" y="1005"/>
      <point x="325" y="994"/>
      <point x="320" y="980" type="curve" smooth="yes"/>
      <point x="0" y="20" type="line" smooth="yes"/>
      <point x="-3" y="12"/>
      <point x="12" y="4"/>
      <point x="41" y="-1" type="curve" smooth="yes"/>
      <point x="70" y="-6"/>
      <point x="104" y="-7"/>
      <point x="136" y="-3" type="curve" smooth="yes"/>
      <point x="167" y="1"/>
      <point x="187" y="8"/>
      <point x="190" y="17" type="curve" smooth="yes"/>
      <point x="261" y="232" type="line"/>
      <point x="596" y="232" type="line"/>
    </contour>
    <contour>
      <point x="317" y="1137" type="curve"/>
      <point x="337" y="1173"/>
      <point x="382" y="1136"/>
      <point x="396" y="1128" type="curve" smooth="yes"/>
      <point x="477" y="1083"/>
      <point x="599" y="1080"/>
      <point x="652" y="1177" type="curve" smooth="yes"/>
      <point x="655" y="1183"/>
      <point x="648" y="1193"/>
      <point x="632" y="1205" type="curve" smooth="yes"/>
      <point x="616" y="1217"/>
      <point x="596" y="1228"/>
      <point x="577" y="1235" type="curve" smooth="yes"/>
      <point x="557" y="1242"/>
      <point x="545" y="1243"/>
      <point x="542" y="1238" type="curve" smooth="yes"/>
      <point x="522" y="1202"/>
      <point x="477" y="1240"/>
      <point x="462" y="1248" type="curve" smooth="yes"/>
      <point x="382" y="1292"/>
      <point x="260" y="1295"/>
      <point x="206" y="1198" type="curve" smooth="yes"/>
      <point x="202" y="1190"/>
      <point x="223" y="1170"/>
      <point x="254" y="1153" type="curve" smooth="yes"/>
      <point x="284" y="1136"/>
      <point x="312" y="1129"/>
    </contour>
  </outline>
</glyph>
<glyph name="Adieresis" format="1">
  <advance width="993"/>
  <unicode hex="00C4"/>
  <outline>
    <contour>
      <point x="320" y="408" type="line"/>
      <point x="429" y="711" type="line"/>
      <point x="537" y="408" type="line"/>
    </contour>
    <contour>
      <point x="669" y="39" type="line" smooth="yes"/>
      <point x="680" y="9"/>
      <point x="730" y="-10"/>
      <point x="782" y="-4" type="curve" smooth="yes"/>
      <point x="833" y="2"/>
      <point x="866" y="31"/>
      <point x="855" y="61" type="curve" smooth="yes"/>
      <point x="536" y="955" type="line" smooth="yes"/>
      <point x="525" y="985"/>
      <point x="481" y="1005"/>
      <point x="429" y="1005" type="curve" smooth="yes"/>
      <point x="376" y="1005"/>
      <point x="332" y="985"/>
      <point x="322" y="955" type="curve" smooth="yes"/>
      <point x="2" y="61" type="line" smooth="yes"/>
      <point x="-9" y="31"/>
      <point x="24" y="2"/>
      <point x="76" y="-4" type="curve" smooth="yes"/>
      <point x="127" y="-10"/>
      <point x="177" y="9"/>
      <point x="188" y="39" type="curve" smooth="yes"/>
      <point x="257" y="232" type="line"/>
      <point x="600" y="232" type="line"/>
    </contour>
    <contour>
      <point x="350" y="1196" type="line" smooth="yes"/>
      <point x="350" y="1226"/>
      <point x="308" y="1251"/>
      <point x="255" y="1251" type="curve" smooth="yes"/>
      <point x="203" y="1251"/>
      <point x="160" y="1226"/>
      <point x="160" y="1196" type="curve" smooth="yes"/>
      <point x="160" y="1130" type="line" smooth="yes"/>
      <point x="160" y="1100"/>
      <point x="203" y="1075"/>
      <point x="255" y="1075" type="curve" smooth="yes"/>
      <point x="308" y="1075"/>
      <point x="350" y="1100"/>
      <point x="350" y="1130" type="curve" smooth="yes"/>
    </contour>
    <contour>
      <point x="697" y="1196" type="line" smooth="yes"/>
      <point x="697" y="1226"/>
      <point x="655" y="1251"/>
      <point x="602" y="1251" type="curve" smooth="yes"/>
      <point x="550" y="1251"/>
      <point x="507" y="1226"/>
      <point x="507" y="1196" type="curve" smooth="yes"/>
      <point x="507" y="1130" type="line" smooth="yes"/>
      <point x="507" y="1100"/>
      <point x="550" y="1075"/>
      <point x="602" y="1075" type="curve" smooth="yes"/>
      <point x="655" y="1075"/>
      <point x="697" y="1100"/>
      <point x="697" y="1130" type="curve" smooth="yes"/>
    </contour>
  </outline>
</glyph>
<glyph name="Aring" format="1">
  <advance width="993"/>
  <unicode hex="00C5"/>
  <outline>
    <contour>
      <point x="320" y="408" type="line"/>
      <point x="429" y="735" type="line"/>
      <point x="537" y="408" type="line"/>
    </contour>
    <contour>
      <point x="668" y="17" type="line" smooth="yes"/>
      <point x="672" y="3"/>
      <point x="718" y="-6"/>
      <point x="770" y="-5" type="curve" smooth="yes"/>
      <point x="823" y="-4"/>
      <point x="861" y="7"/>
      <point x="857" y="20" type="curve" smooth="yes"/>
      <point x="538" y="980" type="line" smooth="yes"/>
      <point x="533" y="994"/>
      <point x="486" y="1005"/>
      <point x="429" y="1005" type="curve" smooth="yes"/>
      <point x="372" y="1005"/>
      <point x="325" y="994"/>
      <point x="320" y="980" type="curve" smooth="yes"/>
      <point x="0" y="20" type="line" smooth="yes"/>
      <point x="-3" y="12"/>
      <point x="12" y="4"/>
      <point x="41" y="-1" type="curve" smooth="yes"/>
      <point x="70" y="-6"/>
      <point x="104" y="-7"/>
      <point x="136" y="-3" type="curve" smooth="yes"/>
      <point x="167" y="1"/>
      <point x="187" y="8"/>
      <point x="190" y="17" type="curve" smooth="yes"/>
      <point x="261" y="232" type="line"/>
      <point x="596" y="232" type="line"/>
    </contour>
    <contour>
      <point x="347" y="1291" type="curve" smooth="yes"/>
      <point x="347" y="1335"/>
      <point x="384" y="1370"/>
      <point x="429" y="1370" type="curve" smooth="yes"/>
      <point x="475" y="1370"/>
      <point x="512" y="1335"/>
      <point x="512" y="1291" type="curve" smooth="yes"/>
      <point x="512" y="1247"/>
      <point x="475" y="1212"/>
      <point x="429" y="1212" type="curve" smooth="yes"/>
      <point x="384" y="1212"/>
      <point x="347" y="1247"/>
    </contour>
    <contour>
      <point x="201" y="1291" type="curve" smooth="yes"/>
      <point x="201" y="1175"/>
      <point x="304" y="1080"/>
      <point x="429" y="1080" type="curve" smooth="yes"/>
      <point x="555" y="1080"/>
      <point x="657" y="1175"/>
      <point x="657" y="1291" type="curve" smooth="yes"/>
      <point x="657" y="1408"/>
      <point x="555" y="1502"/>
      <point x="429" y="1502" type="curve" smooth="yes"/>
      <point x="304" y="1502"/>
      <point x="201" y="1408"/>
    </contour>
  </outline>
</glyph>
<glyph name="Egrave" format="1">
  <advance width="763"/>
  <unicode hex="00C8"/>
  <outline>
    <contour>
      <point x="602" y="0" type="line" smooth="yes"/>
      <point x="616" y="0"/>
      <point x="627" y="39"/>
      <point x="627" y="88" type="curve" smooth="yes"/>
      <point x="627" y="136"/>
      <point x="616" y="176"/>
      <point x="602" y="176" type="curve" smooth="yes"/>
      <point x="190" y="176" type="line"/>
      <point x="190" y="422" type="line"/>
      <point x="417" y="422" type="line" smooth="yes"/>
      <point x="431" y="422"/>
      <point x="443" y="461"/>
      <point x="443" y="510" type="curve" smooth="yes"/>
      <point x="443" y="559"/>
      <point x="431" y="598"/>
      <point x="417" y="598" type="curve" smooth="yes"/>
      <point x="190" y="598" type="line"/>
      <point x="190" y="824" type="line"/>
      <point x="602" y="824" type="line" smooth="yes"/>
      <point x="616" y="824"/>
      <point x="627" y="864"/>
      <point x="627" y="912" type="curve" smooth="yes"/>
      <point x="627" y="961"/>
      <point x="616" y="1000"/>
      <point x="602" y="1000" type="curve" smooth="yes"/>
      <point x="109" y="1000" type="line" smooth="yes"/>
      <point x="49" y="1000"/>
      <point x="0" y="988"/>
      <point x="0" y="973" type="curve" smooth="yes"/>
      <point x="0" y="27" type="line" smooth="yes"/>
      <point x="0" y="12"/>
      <point x="49" y="0"/>
      <point x="109" y="0" type="curve" smooth="yes"/>
    </contour>
    <contour>
      <point x="241" y="1330" type="line"/>
      <point x="235" y="1336"/>
      <point x="218" y="1328"/>
      <point x="195" y="1308" type="curve" smooth="yes"/>
      <point x="172" y="1287"/>
      <point x="149" y="1259"/>
      <point x="133" y="1233" type="curve" smooth="yes"/>
      <point x="117" y="1206"/>
      <point x="112" y="1188"/>
      <point x="120" y="1183" type="curve" smooth="yes"/>
      <point x="293" y="1080" type="line" smooth="yes"/>
      <point x="301" y="1075"/>
      <point x="324" y="1093"/>
      <point x="347" y="1119" type="curve" smooth="yes"/>
      <point x="369" y="1146"/>
      <point x="382" y="1172"/>
      <point x="376" y="1179" type="curve" smooth="yes"/>
    </contour>
  </outline>
</glyph>
<glyph name="Eacute" format="1">
  <advance width="763"/>
  <unicode hex="00C9"/>
  <outline>
    <contour>
      <point x="602" y="0" type="line" smooth="yes"/>
      <point x="616" y="0"/>
      <point x="627" y="39"/>
      <point x="627" y="88" type="curve" smooth="yes"/>
      <point x="627" y="136"/>
      <point x="616" y="176"/>
      <point x="602" y="176" type="curve" smooth="yes"/>
      <point x="190" y="176" type="line"/>
      <point x="190" y="422" type="line"/>
      <point x="417" y="422" type="line" smooth="yes"/>
      <point x="431" y="422"/>
      <point x="443" y="461"/>
      <point x="443" y="510" type="curve" smooth="yes"/>
      <point x="443" y="559"/>
      <point x="431" y="598"/>
      <point x="417" y="598" type="curve" smooth="yes"/>
      <point x="190" y="598" type="line"/>
      <point x="190" y="824" type="line"/>
      <point x="602" y="824" type="line" smooth="yes"/>
      <point x="616" y="824"/>
      <point x="627" y="864"/>
      <point x="627" y="912" type="curve" smooth="yes"/>
      <point x="627" y="961"/>
      <point x="616" y="1000"/>
      <point x="602" y="1000" type="curve" smooth="yes"/>
      <point x="109" y="1000" type="line" smooth="yes"/>
      <point x="49" y="1000"/>
      <point x="0" y="988"/>
      <point x="0" y="973" type="curve" smooth="yes"/>
      <point x="0" y="27" type="line" smooth="yes"/>
      <point x="0" y="12"/>
      <point x="49" y="0"/>
      <point x="109" y="0" type="curve" smooth="yes"/>
    </contour>
    <contour>
      <point x="386" y="1330" type="curve"/>
      <point x="252" y="1179" type="line" smooth="yes"/>
      <point x="246" y="1172"/>
      <point x="259" y="1146"/>
      <point x="281" y="1119" type="curve" smooth="yes"/>
      <point x="303" y="1093"/>
      <point x="326" y="1075"/>
      <point x="334" y="1080" type="curve" smooth="yes"/>
      <point x="507" y="1183" type="line" smooth="yes"/>
      <point x="515" y="1188"/>
      <point x="510" y="1206"/>
      <point x="494" y="1233" type="curve" smooth="yes"/>
      <point x="478" y="1259"/>
      <point x="455" y="1287"/>
      <point x="432" y="1308" type="curve" smooth="yes"/>
      <point x="409" y="1328"/>
      <point x="392" y="1336"/>
    </contour>
  </outline>
</glyph>
<glyph name="Ecircumflex" format="1">
  <advance width="763"/>
  <unicode hex="00CA"/>
  <outline>
    <contour>
      <point x="568" y="0" type="line" smooth="yes"/>
      <point x="601" y="0"/>
      <point x="627" y="39"/>
      <point x="627" y="88" type="curve" smooth="yes"/>
      <point x="627" y="136"/>
      <point x="601" y="176"/>
      <point x="568" y="176" type="curve" smooth="yes"/>
      <point x="190" y="176" type="line"/>
      <point x="190" y="422" type="line"/>
      <point x="417" y="422" type="line" smooth="yes"/>
      <point x="450" y="422"/>
      <point x="477" y="461"/>
      <point x="477" y="510" type="curve" smooth="yes"/>
      <point x="477" y="559"/>
      <point x="450" y="598"/>
      <point x="417" y="598" type="curve" smooth="yes"/>
      <point x="190" y="598" type="line"/>
      <point x="190" y="824" type="line"/>
      <point x="568" y="824" type="line" smooth="yes"/>
      <point x="601" y="824"/>
      <point x="627" y="864"/>
      <point x="627" y="912" type="curve" smooth="yes"/>
      <point x="627" y="961"/>
      <point x="601" y="1000"/>
      <point x="568" y="1000" type="curve" smooth="yes"/>
      <point x="109" y="1000" type="line" smooth="yes"/>
      <point x="49" y="1000"/>
      <point x="0" y="972"/>
      <point x="0" y="937" type="curve" smooth="yes"/>
      <point x="0" y="63" type="line" smooth="yes"/>
      <point x="0" y="28"/>
      <point x="49" y="0"/>
      <point x="109" y="0" type="curve" smooth="yes"/>
    </contour>
    <contour>
      <point x="96" y="1208" type="line"/>
      <point x="88" y="1198"/>
      <point x="84" y="1184"/>
      <point x="89" y="1166" type="curve" smooth="yes"/>
      <point x="98" y="1128"/>
      <point x="140" y="1089"/>
      <point x="182" y="1080" type="curve" smooth="yes"/>
      <point x="206" y="1075"/>
      <point x="224" y="1080"/>
      <point x="235" y="1091" type="curve"/>
      <point x="314" y="1179" type="line"/>
      <point x="392" y="1091" type="line"/>
      <point x="403" y="1080"/>
      <point x="422" y="1075"/>
      <point x="445" y="1080" type="curve" smooth="yes"/>
      <point x="487" y="1089"/>
      <point x="529" y="1128"/>
      <point x="539" y="1166" type="curve" smooth="yes"/>
      <point x="543" y="1184"/>
      <point x="540" y="1198"/>
      <point x="531" y="1208" type="curve" smooth="yes"/>
      <point x="410" y="1341" type="line" smooth="yes"/>
      <point x="392" y="1361"/>
      <point x="356" y="1375"/>
      <point x="314" y="1375" type="curve" smooth="yes"/>
      <point x="272" y="1375"/>
      <point x="235" y="1361"/>
      <point x="217" y="1341" type="curve" smooth="yes"/>
    </contour>
  </outline>
</glyph>
<glyph name="Edieresis" format="1">
  <advance width="763"/>
  <unicode hex="00CB"/>
  <outline>
    <contour>
      <point x="602" y="0" type="line" smooth="yes"/>
      <point x="616" y="0"/>
      <point x="627" y="39"/>
      <point x="627" y="88" type="curve" smooth="yes"/>
      <point x="627" y="136"/>
      <point x="616" y="176"/>
      <point x="602" y="176" type="curve" smooth="yes"/>
      <point x="190" y="176" type="line"/>
      <point x="190" y="422" type="line"/>
      <point x="417" y="422" type="line" smooth="yes"/>
      <point x="431" y="422"/>
      <point x="443" y="461"/>
      <point x="443" y="510" type="curve" smooth="yes"/>
      <point x="443" y="559"/>
      <point x="431" y="598"/>
      <point x="417" y="598" type="curve" smooth="yes"/>
      <point x="190" y="598" type="line"/>
      <point x="190" y="824" type="line"/>
      <point x="602" y="824" type="line" smooth="yes"/>
      <point x="616" y="824"/>
      <point x="627" y="864"/>
      <point x="627" y="912" type="curve" smooth="yes"/>
      <point x="627" y="961"/>
      <point x="616" y="1000"/>
      <point x="602" y="1000" type="curve" smooth="yes"/>
      <point x="109" y="1000" type="line" smooth="yes"/>
      <point x="49" y="1000"/>
      <point x="0" y="988"/>
      <point x="0" y="973" type="curve" smooth="yes"/>
      <point x="0" y="27" type="line" smooth="yes"/>
      <point x="0" y="12"/>
      <point x="49" y="0"/>
      <point x="109" y="0" type="curve" smooth="yes"/>
    </contour>
    <contour>
      <point x="235" y="1227" type="line" smooth="yes"/>
      <point x="235" y="1240"/>
      <point x="193" y="1251"/>
      <point x="140" y="1251" type="curve" smooth="yes"/>
      <point x="88" y="1251"/>
      <point x="45" y="1240"/>
      <point x="45" y="1227" type="curve" smooth="yes"/>
      <point x="45" y="1099" type="line" smooth="yes"/>
      <point x="45" y="1086"/>
      <point x="88" y="1075"/>
      <point x="140" y="1075" type="curve" smooth="yes"/>
      <point x="193" y="1075"/>
      <point x="235" y="1086"/>
      <point x="235" y="1099" type="curve" smooth="yes"/>
    </contour>
    <contour>
      <point x="582" y="1227" type="line" smooth="yes"/>
      <point x="582" y="1240"/>
      <point x="539" y="1251"/>
      <point x="487" y="1251" type="curve" smooth="yes"/>
      <point x="435" y="1251"/>
      <point x="392" y="1240"/>
      <point x="392" y="1227" type="curve" smooth="yes"/>
      <point x="392" y="1099" type="line" smooth="yes"/>
      <point x="392" y="1086"/>
      <point x="435" y="1075"/>
      <point x="487" y="1075" type="curve" smooth="yes"/>
      <point x="539" y="1075"/>
      <point x="582" y="1086"/>
      <point x="582" y="1099" type="curve" smooth="yes"/>
    </contour>
  </outline>
</glyph>
<glyph name="Igrave" format="1">
  <advance width="325"/>
  <unicode hex="00CC"/>
  <outline>
    <contour>
      <point x="190" y="950" type="line" smooth="yes"/>
      <point x="190" y="981"/>
      <point x="147" y="1005"/>
      <point x="95" y="1005" type="curve" smooth="yes"/>
      <point x="43" y="1005"/>
      <point x="0" y="981"/>
      <point x="0" y="950" type="curve" smooth="yes"/>
      <point x="0" y="50" type="line" smooth="yes"/>
      <point x="0" y="19"/>
      <point x="43" y="-5"/>
      <point x="95" y="-5" type="curve" smooth="yes"/>
      <point x="147" y="-5"/>
      <point x="190" y="19"/>
      <point x="190" y="50" type="curve" smooth="yes"/>
    </contour>
    <contour>
      <point x="30" y="1334" type="line" smooth="yes"/>
      <point x="16" y="1350"/>
      <point x="-10" y="1350"/>
      <point x="-38" y="1333" type="curve" smooth="yes"/>
      <point x="-67" y="1316"/>
      <point x="-91" y="1287"/>
      <point x="-102" y="1256" type="curve" smooth="yes"/>
      <point x="-113" y="1224"/>
      <point x="-109" y="1199"/>
      <point x="-91" y="1188" type="curve" smooth="yes"/>
      <point x="82" y="1085" type="line" smooth="yes"/>
      <point x="98" y="1075"/>
      <point x="127" y="1087"/>
      <point x="149" y="1113" type="curve" smooth="yes"/>
      <point x="170" y="1139"/>
      <point x="177" y="1170"/>
      <point x="164" y="1184" type="curve" smooth="yes"/>
    </contour>
  </outline>
</glyph>
<glyph name="Iacute" format="1">
  <advance width="325"/>
  <unicode hex="00CD"/>
  <outline>
    <contour>
      <point x="190" y="950" type="line" smooth="yes"/>
      <point x="190" y="981"/>
      <point x="147" y="1005"/>
      <point x="95" y="1005" type="curve" smooth="yes"/>
      <point x="43" y="1005"/>
      <point x="0" y="981"/>
      <point x="0" y="950" type="curve" smooth="yes"/>
      <point x="0" y="50" type="line" smooth="yes"/>
      <point x="0" y="19"/>
      <point x="43" y="-5"/>
      <point x="95" y="-5" type="curve" smooth="yes"/>
      <point x="147" y="-5"/>
      <point x="190" y="19"/>
      <point x="190" y="50" type="curve" smooth="yes"/>
    </contour>
    <contour>
      <point x="160" y="1334" type="curve" smooth="yes"/>
      <point x="26" y="1184" type="line" smooth="yes"/>
      <point x="13" y="1170"/>
      <point x="20" y="1139"/>
      <point x="41" y="1113" type="curve" smooth="yes"/>
      <point x="63" y="1087"/>
      <point x="92" y="1075"/>
      <point x="108" y="1085" type="curve" smooth="yes"/>
      <point x="281" y="1188" type="line" smooth="yes"/>
      <point x="299" y="1199"/>
      <point x="303" y="1224"/>
      <point x="292" y="1256" type="curve" smooth="yes"/>
      <point x="281" y="1287"/>
      <point x="257" y="1316"/>
      <point x="228" y="1333" type="curve" smooth="yes"/>
      <point x="200" y="1350"/>
      <point x="174" y="1350"/>
    </contour>
  </outline>
</glyph>
<glyph name="Icircumflex" format="1">
  <advance width="598"/>
  <unicode hex="00CE"/>
  <outline>
    <contour>
      <point x="326" y="982" type="line" smooth="yes"/>
      <point x="326" y="995"/>
      <point x="284" y="1005"/>
      <point x="231" y="1005" type="curve" smooth="yes"/>
      <point x="179" y="1005"/>
      <point x="136" y="995"/>
      <point x="136" y="982" type="curve" smooth="yes"/>
      <point x="136" y="18" type="line" smooth="yes"/>
      <point x="136" y="5"/>
      <point x="179" y="-5"/>
      <point x="231" y="-5" type="curve" smooth="yes"/>
      <point x="284" y="-5"/>
      <point x="326" y="5"/>
      <point x="326" y="18" type="curve" smooth="yes"/>
    </contour>
    <contour>
      <point x="1" y="1187" type="line"/>
      <point x="-1" y="1183"/>
      <point x="0" y="1177"/>
      <point x="6" y="1167" type="curve"/>
      <point x="23" y="1143"/>
      <point x="69" y="1109"/>
      <point x="108" y="1092" type="curve" smooth="yes"/>
      <point x="132" y="1082"/>
      <point x="148" y="1080"/>
      <point x="153" y="1086" type="curve" smooth="yes"/>
      <point x="231" y="1184" type="line"/>
      <point x="310" y="1086" type="line" smooth="yes"/>
      <point x="315" y="1080"/>
      <point x="331" y="1082"/>
      <point x="355" y="1092" type="curve" smooth="yes"/>
      <point x="394" y="1109"/>
      <point x="439" y="1143"/>
      <point x="456" y="1167" type="curve" smooth="yes"/>
      <point x="463" y="1177"/>
      <point x="464" y="1183"/>
      <point x="461" y="1187" type="curve" smooth="yes"/>
      <point x="339" y="1340" type="line" smooth="yes"/>
      <point x="328" y="1353"/>
      <point x="284" y="1362"/>
      <point x="231" y="1362" type="curve" smooth="yes"/>
      <point x="178" y="1362"/>
      <point x="134" y="1353"/>
      <point x="124" y="1340" type="curve" smooth="yes"/>
    </contour>
  </outline>
</glyph>
